{
classes = (
{
automatic = 1;
code = "A Aacute Abreve Acircumflex Adieresis Agrave Amacron Aogonek Aring Aringacute Atilde AE AEacute B C Cacute Ccaron Ccedilla Ccircumflex Cdotaccent D Eth Dcaron Dcroat E Eacute Ebreve Ecaron Ecircumflex Edieresis Edotaccent Egrave Emacron Eogonek F G Gbreve Gcircumflex Gcommaaccent Gdotaccent H Hbar Hcircumflex I IJ Iacute Ibreve Icircumflex Idieresis Idotaccent Igrave Imacron Iogonek Itilde J Jcircumflex K Kcommaaccent L Lacute Lcaron Lcommaaccent Ldot Lslash M N Nacute Ncaron Ncommaaccent Eng Ntilde O Oacute Obreve Ocircumflex Odieresis Ograve Ohungarumlaut Omacron Oslash Oslashacute Otilde OE P Thorn Q R Racute Rcaron Rcommaaccent S Sacute Scaron Scedilla Scircumflex Scommaaccent T Tbar Tcaron Tcedilla Tcommaaccent U Uacute Ubreve Ucircumflex Udieresis Ugrave Uhungarumlaut Umacron Uogonek Uring Utilde V W Wacute Wcircumflex Wdieresis Wgrave X Y Yacute Ycircumflex Ydieresis Ygrave Z Zacute Zcaron Zdotaccent uni0394 Omega uni03A9";
name = Uppercase;
},
{

glyphs = (
{
glyphname = A;
lastChange = "2015-05-11 17:51:26 +0000";
layers = (
{
anchors = (
{
name = ogonek;
position = "{544, 8}";
},
{
name = top;
position = "{275, 613}";
}
);
hints = (
{
horizontal = 1;
place = "{139.250000, 75.821429}";
},
{
horizontal = 1;
place = "{511.000000, -20.000000}";
},
{
horizontal = 1;
place = "{15.000000, 21.000000}";
}
);
layerId = "E777F328-EA17-4AE7-9EBA-8002E537BA4F";
name = Regular;
paths = (
{
closed = 1;
nodes = (
"104 178 LINE",
"407 178 LINE",
"407 235 LINE",
"104 235 LINE"
);
},
{
closed = 1;
nodes = (
"233 613 LINE",
"424 0 LINE",
"540 0 LINE",
"346 613 LINE"
);
},
{
closed = 1;
nodes = (
"204 613 LINE",
"10 0 LINE",
"79 0 LINE",
"269 613 LINE"
);
}
);
width = 548;
},
{
anchors = (
{
name = ogonek;
position = "{544, 8}";
},
{
name = top;
position = "{282, 613}";
}
);
hints = (
{
horizontal = 1;
place = "{128.000000, 96.714286}";
},
{
horizontal = 1;
place = "{511.000000, -20.000000}";
},
{
horizontal = 1;
place = "{15.000000, 21.000000}";
}
);
layerId = "39185045-6A8C-415A-8312-7B8F11386A4C";
name = Bold;
paths = (
{
closed = 1;
nodes = (
"103 168 LINE",
"412 168 LINE",
"412 242 LINE",
"103 242 LINE"
);
},
{
closed = 1;
nodes = (
"228 613 LINE",
"409 0 LINE",
"559 0 LINE",
"373 613 LINE"
);
},
{
closed = 1;
nodes = (
"191 613 LINE",
"5 0 LINE",
"95 0 LINE",
"275 613 LINE"
);
}
);
width = 564;
}
);
leftKerningGroup = A;
rightKerningGroup = A;
unicode = 0041;
},
{
glyphname = AE;
lastChange = "2015-05-11 17:51:26 +0000";
layers = (
{
anchors = (
{
name = top;
position = "{496, 613}";
}
);
hints = (
{
place = "{329.500000, 100.000000}";
},
{
horizontal = 1;
place = "{0.000000, 76.714286}";
},
{
horizontal = 1;
place = "{208.035714, 75.928571}";
},
{
horizontal = 1;
place = "{434.178571, 76.821429}";
}
);
layerId = "E777F328-EA17-4AE7-9EBA-8002E537BA4F";
name = Regular;
paths = (
{
closed = 1;
nodes = (
"278 613 LINE",
"13 0 LINE",
"83 0 LINE",
"343 613 LINE"
);
},
{
closed = 1;
nodes = (
"164 265 LINE",
"724 265 LINE",
"724 325 LINE",
"164 325 LINE"
);
},
{
closed = 1;
nodes = (
"395 554 LINE",
"744 554 LINE",
"744 613 LINE",
"395 613 LINE",
"395 0 LINE",
"516 0 LINE",
"516 554 LINE"
);
},
{
closed = 1;
nodes = (
"395 0 LINE",
"761 0 LINE",
"761 59 LINE",
"395 59 LINE"
);
},
{
closed = 1;
nodes = (
"301 554 LINE",
"395 554 LINE",
"395 613 LINE",
"301 613 LINE"
);
}
);
width = 788;
},
{
anchors = (
{
name = top;
position = "{504, 613}";
}
);
hints = (
{
place = "{337.000000, 130.000000}";
},
{
horizontal = 1;
place = "{0.000000, 98.142857}";
},
{
horizontal = 1;
place = "{197.857143, 96.285714}";
},
{
horizontal = 1;
place = "{413.285714, 97.714286}";
}
);
layerId = "39185045-6A8C-415A-8312-7B8F11386A4C";
name = Bold;
paths = (
{
closed = 1;
nodes = (
"269 613 LINE",
"13 0 LINE",
"102 0 LINE",
"354 613 LINE"
);
},
{
closed = 1;
nodes = (
"164 258 LINE",
"748 258 LINE",
"748 332 LINE",
"164 332 LINE"
);
},
{
closed = 1;
nodes = (
"404 538 LINE",
"772 538 LINE",
"772 613 LINE",
"404 613 LINE",
"404 0 LINE",
"562 0 LINE",
"562 538 LINE"
);
},
{
closed = 1;
nodes = (
"404 0 LINE",
"788 0 LINE",
"788 76 LINE",
"404 76 LINE"
);
},
{
closed = 1;
nodes = (
"300 539 LINE",
"404 539 LINE",
"404 613 LINE",
"300 613 LINE"
);
}
);
width = 806;
}
);
leftKerningGroup = AE;
unicode = 00C6;
},
{
glyphname = B;
lastChange = "2015-05-11 17:51:26 +0000";
layers = (
{
hints = (
{
place = "{64.500000, 100.000000}";
},
{
place = "{294.250000, 100.000000}";
},
{
place = "{316.000000, 100.000000}";
},
{
horizontal = 1;
place = "{0.000000, 76.714286}";
},
{
horizontal = 1;
place = "{223.035714, 49.535714}";
},
{
horizontal = 1;
place = "{249.428571, 23.250000}";
},
{
horizontal = 1;
place = "{434.285714, 76.714286}";
},
{
horizontal = 1;
place = "{249.428571, 49.642857}";
}
);
layerId = "E777F328-EA17-4AE7-9EBA-8002E537BA4F";
name = Regular;
paths = (
{
closed = 1;
nodes = (
"77 613 LINE",
"77 0 LINE",
"197 0 LINE",
"197 613 LINE"
);
},
{
closed = 1;
nodes = (
"301 0 LINE SMOOTH",
"460 0 OFFCURVE",
"499 85 OFFCURVE",
"499 164 CURVE SMOOTH",
"499 242 OFFCURVE",
"451 328 OFFCURVE",
"301 328 CURVE SMOOTH",
"77 328 LINE",
"77 0 LINE"
);
},
{
closed = 1;
nodes = (
"197 44 LINE",
"197 292 LINE",
"287 292 LINE SMOOTH",
"350 292 OFFCURVE",
"379 230 OFFCURVE",
"379 164 CURVE SMOOTH",
"379 88 OFFCURVE",
"352 44 OFFCURVE",
"287 44 CURVE SMOOTH"
);
},
{
closed = 1;
nodes = (
"274 299 LINE SMOOTH",
"439 299 OFFCURVE",
"473 382 OFFCURVE",
"473 456 CURVE SMOOTH",
"473 533 OFFCURVE",
"431 613 OFFCURVE",
"274 613 CURVE SMOOTH",
"77 613 LINE",
"77 299 LINE"
);
},
{
closed = 1;
nodes = (
"197 335 LINE",
"197 569 LINE",
"264 569 LINE SMOOTH",
"320 569 OFFCURVE",
"353 533 OFFCURVE",
"353 455 CURVE SMOOTH",
"353 392 OFFCURVE",
"335 335 OFFCURVE",
"264 335 CURVE SMOOTH"
);
}
);
width = 527;
},
{
hints = (
{
place = "{57.000000, 130.000000}";
},
{
place = "{283.000000, 130.000000}";
},
{
place = "{301.000000, 130.000000}";
},
{
horizontal = 1;
place = "{0.000000, 98.142857}";
},
{
horizontal = 1;
place = "{212.857143, 61.857143}";
},
{
horizontal = 1;
place = "{247.285714, 27.000000}";
},
{
horizontal = 1;
place = "{412.857143, 98.142857}";
},
{
horizontal = 1;
place = "{247.285714, 61.428571}";
}
);
layerId = "39185045-6A8C-415A-8312-7B8F11386A4C";
name = Bold;
paths = (
{
closed = 1;
nodes = (
"68 613 LINE",
"68 0 LINE",
"224 0 LINE",
"224 613 LINE"
);
},
{
closed = 1;
nodes = (
"311 0 LINE SMOOTH",
"478 0 OFFCURVE",
"517 90 OFFCURVE",
"517 164 CURVE SMOOTH",
"517 238 OFFCURVE",
"469 329 OFFCURVE",
"311 329 CURVE SMOOTH",
"68 329 LINE",
"68 0 LINE"
);
},
{
closed = 1;
nodes = (
"224 56 LINE",
"224 286 LINE",
"289 286 LINE SMOOTH",
"336 286 OFFCURVE",
"361 226 OFFCURVE",
"361 164 CURVE SMOOTH",
"361 89 OFFCURVE",
"337 56 OFFCURVE",
"289 56 CURVE SMOOTH"
);
},
{
closed = 1;
nodes = (
"288 296 LINE SMOOTH",
"472 296 OFFCURVE",
"496 386 OFFCURVE",
"496 456 CURVE SMOOTH",
"496 515 OFFCURVE",
"463 613 OFFCURVE",
"288 613 CURVE SMOOTH",
"68 613 LINE",
"68 296 LINE"
);
},
{
closed = 1;
nodes = (
"224 340 LINE",
"224 557 LINE",
"272 557 LINE SMOOTH",
"307 557 OFFCURVE",
"340 533 OFFCURVE",
"340 455 CURVE SMOOTH",
"340 397 OFFCURVE",
"331 340 OFFCURVE",
"272 340 CURVE SMOOTH"
);
}
);
width = 535;
}
);
unicode = 0042;
},
{
glyphname = C;
lastChange = "2015-05-11 17:51:26 +0000";
layers = (
{
anchors = (
{
name = bottom;
position = "{280, 0}";
},
{
name = top;
position = "{263, 613}";
}
);
hints = (
{
place = "{37.250000, 100.000000}";
},
{
place = "{338.321429, 81.178571}";
},
{
horizontal = 1;
place = "{-10.000000, 80.392857}";
},
{
horizontal = 1;
place = "{439.714286, 80.392857}";
}
);
layerId = "E777F328-EA17-4AE7-9EBA-8002E537BA4F";
name = Regular;
paths = (
{
closed = 1;
nodes = (
"500 455 LINE",
"488 558 OFFCURVE",
"444 625 OFFCURVE",
"295 625 CURVE SMOOTH",
"98 625 OFFCURVE",
"44 511 OFFCURVE",
"44 306 CURVE SMOOTH",
"44 102 OFFCURVE",
"98 -12 OFFCURVE",
"295 -12 CURVE SMOOTH",
"455 -12 OFFCURVE",
"494 71 OFFCURVE",
"503 196 CURVE",
"406 200 LINE",
"404 103 OFFCURVE",
"379 38 OFFCURVE",
"295 38 CURVE SMOOTH",
"190 38 OFFCURVE",
"164 122 OFFCURVE",
"164 306 CURVE SMOOTH",
"164 492 OFFCURVE",
"190 575 OFFCURVE",
"295 575 CURVE SMOOTH",
"368 575 OFFCURVE",
"397 522 OFFCURVE",
"404 439 CURVE"
);
}
);
width = 524;
},
{
anchors = (
{
name = bottom;
position = "{275, 0}";
},
{
name = top;
position = "{258, 613}";
}
);
hints = (
{
place = "{26.000000, 130.000000}";
},
{
place = "{321.714286, 105.285714}";
},
{
horizontal = 1;
place = "{-10.000000, 103.428571}";
},
{
horizontal = 1;
place = "{416.142857, 103.428571}";
}
);
layerId = "39185045-6A8C-415A-8312-7B8F11386A4C";
name = Bold;
paths = (
{
closed = 1;
nodes = (
"510 444 LINE",
"498 553 OFFCURVE",
"457 625 OFFCURVE",
"294 625 CURVE SMOOTH",
"91 625 OFFCURVE",
"31 516 OFFCURVE",
"31 306 CURVE SMOOTH",
"31 97 OFFCURVE",
"91 -12 OFFCURVE",
"294 -12 CURVE SMOOTH",
"469 -12 OFFCURVE",
"504 76 OFFCURVE",
"512 208 CURVE",
"386 214 LINE",
"385 112 OFFCURVE",
"367 53 OFFCURVE",
"294 53 CURVE SMOOTH",
"212 53 OFFCURVE",
"187 121 OFFCURVE",
"187 306 CURVE SMOOTH",
"187 493 OFFCURVE",
"212 560 OFFCURVE",
"294 560 CURVE SMOOTH",
"359 560 OFFCURVE",
"379 511 OFFCURVE",
"386 426 CURVE"
);
}
);
width = 515;
}
);
unicode = 0043;
},
{
glyphname = D;
lastChange = "2015-05-11 17:51:26 +0000";
layers = (
{
anchors = (
{
name = center;
position = "{300, 306}";
},
{
name = top;
position = "{300, 613}";
}
);
hints = (
{
place = "{64.500000, 100.000000}";
},
{
place = "{343.750000, 100.000000}";
},
{
horizontal = 1;
place = "{0.000000, 76.714286}";
},
{
horizontal = 1;
place = "{434.285714, 76.714286}";
}
);
layerId = "E777F328-EA17-4AE7-9EBA-8002E537BA4F";
name = Regular;
paths = (
{
closed = 1;
nodes = (
"77 613 LINE",
"77 0 LINE",
"197 0 LINE",
"197 613 LINE"
);
},
{
closed = 1;
nodes = (
"197 613 LINE",
"197 569 LINE",
"274 569 LINE SMOOTH",
"403 569 OFFCURVE",
"427 449 OFFCURVE",
"427 306 CURVE SMOOTH",
"427 164 OFFCURVE",
"403 44 OFFCURVE",
"274 44 CURVE SMOOTH",
"197 44 LINE",
"197 0 LINE",
"290 0 LINE SMOOTH",
"504 0 OFFCURVE",
"548 134 OFFCURVE",
"548 306 CURVE SMOOTH",
"548 478 OFFCURVE",
"504 613 OFFCURVE",
"290 613 CURVE SMOOTH"
);
}
);
width = 605;
},
{
anchors = (
{
name = center;
position = "{305, 306}";
},
{
name = top;
position = "{305, 613}";
}
);
hints = (
{
place = "{57.000000, 130.000000}";
},
{
place = "{325.000000, 130.000000}";
},
{
horizontal = 1;
place = "{0.000000, 98.142857}";
},
{
horizontal = 1;
place = "{412.857143, 98.142857}";
}
);
layerId = "39185045-6A8C-415A-8312-7B8F11386A4C";
name = Bold;
paths = (
{
closed = 1;
nodes = (
"68 613 LINE",
"68 0 LINE",
"224 0 LINE",
"224 613 LINE"
);
},
{
closed = 1;
nodes = (
"224 613 LINE",
"224 557 LINE",
"276 557 LINE SMOOTH",
"390 557 OFFCURVE",
"414 442 OFFCURVE",
"414 306 CURVE SMOOTH",
"414 172 OFFCURVE",
"390 56 OFFCURVE",
"276 56 CURVE SMOOTH",
"224 56 LINE",
"224 0 LINE",
"301 0 LINE SMOOTH",
"526 0 OFFCURVE",
"571 134 OFFCURVE",
"571 306 CURVE SMOOTH",
"571 478 OFFCURVE",
"526 613 OFFCURVE",
"301 613 CURVE SMOOTH"
);
}
);
width = 618;
}
);
unicode = 0044;
},
{
glyphname = E;
lastChange = "2015-05-11 17:51:26 +0000";
layers = (
{
anchors = (
{
name = bottom;
position = "{235, 0}";
},
{
name = ogonek;
position = "{497, 8}";
},
{
name = top;
position = "{252, 613}";
}
);
hints = (
{
place = "{64.500000, 100.000000}";
},
{
horizontal = 1;
place = "{0.000000, 76.714286}";
},
{
horizontal = 1;
place = "{222.035714, 75.928571}";
},
{
horizontal = 1;
place = "{434.285714, 76.714286}";
}
);
layerId = "E777F328-EA17-4AE7-9EBA-8002E537BA4F";
name = Regular;
paths = (
{
closed = 1;
nodes = (
"77 554 LINE",
"426 554 LINE",
"426 613 LINE",
"77 613 LINE"
);
},
{
closed = 1;
nodes = (
"77 554 LINE",
"77 0 LINE",
"197 0 LINE",
"197 554 LINE"
);
},
{
closed = 1;
nodes = (
"77 0 LINE",
"443 0 LINE",
"443 59 LINE",
"77 59 LINE"
);
},
{
closed = 1;
nodes = (
"197 282 LINE",
"404 282 LINE",
"404 342 LINE",
"197 342 LINE"
);
}
);
width = 470;
},
{
anchors = (
{
name = bottom;
position = "{235, 0}";
},
{
name = ogonek;
position = "{506, 8}";
},
{
name = top;
position = "{252, 613}";
}
);
hints = (
{
place = "{57.000000, 130.000000}";
},
{
horizontal = 1;
place = "{0.000000, 98.142857}";
},
{
horizontal = 1;
place = "{211.857143, 96.285714}";
},
{
horizontal = 1;
place = "{412.857143, 98.142857}";
}
);
layerId = "39185045-6A8C-415A-8312-7B8F11386A4C";
name = Bold;
paths = (
{
closed = 1;
nodes = (
"68 538 LINE",
"436 538 LINE",
"436 613 LINE",
"68 613 LINE"
);
},
{
closed = 1;
nodes = (
"68 538 LINE",
"68 0 LINE",
"224 0 LINE",
"224 538 LINE"
);
},
{
closed = 1;
nodes = (
"68 0 LINE",
"452 0 LINE",
"452 76 LINE",
"68 76 LINE"
);
},
{
closed = 1;
nodes = (
"224 275 LINE",
"412 275 LINE",
"412 349 LINE",
"224 349 LINE"
);
}
);
width = 470;
}
);
unicode = 0045;
},
{
glyphname = F;
lastChange = "2015-05-11 17:51:27 +0000";
layers = (
{
hints = (
{
place = "{64.500000, 100.000000}";
},
{
horizontal = 1;
place = "{222.035714, 75.928571}";
},
{
horizontal = 1;
place = "{434.285714, 76.714286}";
},
{
horizontal = 1;
place = "{15.000000, 21.000000}";
}
);
layerId = "E777F328-EA17-4AE7-9EBA-8002E537BA4F";
name = Regular;
paths = (
{
closed = 1;
nodes = (
"77 546 LINE",
"409 546 LINE",
"409 613 LINE",
"77 613 LINE"
);
},
{
closed = 1;
nodes = (
"77 546 LINE",
"77 0 LINE",
"197 0 LINE",
"197 546 LINE"
);
},
{
closed = 1;
nodes = (
"77 278 LINE",
"380 278 LINE",
"380 344 LINE",
"77 344 LINE"
);
}
);
width = 430;
},
{
hints = (
{
place = "{57.000000, 130.000000}";
},
{
horizontal = 1;
place = "{211.857143, 96.285714}";
},
{
horizontal = 1;
place = "{412.857143, 98.142857}";
},
{
horizontal = 1;
place = "{15.000000, 21.000000}";
}
);
layerId = "39185045-6A8C-415A-8312-7B8F11386A4C";
name = Bold;
paths = (
{
closed = 1;
nodes = (
"68 526 LINE",
"419 526 LINE",
"419 613 LINE",
"68 613 LINE"
);
},
{
closed = 1;
nodes = (
"68 526 LINE",
"68 0 LINE",
"224 0 LINE",
"224 526 LINE"
);
},
{
closed = 1;
nodes = (
"68 268 LINE",
"383 268 LINE",
"383 354 LINE",
"68 354 LINE"
);
}
);
width = 425;
}
);
unicode = 0046;
},
{
glyphname = G;
lastChange = "2015-05-11 17:51:26 +0000";
layers = (
{
anchors = (
{
name = bottom;
position = "{293, 0}";
},
{
name = top;
position = "{293, 613}";
}
);
hints = (
{
place = "{37.250000, 100.000000}";
},
{
place = "{343.214286, 65.357143}";
},
{
place = "{343.214286, 86.071429}";
},
{
horizontal = 1;
place = "{-10.000000, 80.392857}";
},
{
horizontal = 1;
place = "{0.000000, 71.285714}";
},
{
horizontal = 1;
place = "{197.785714, 63.571429}";
},
{
horizontal = 1;
place = "{439.714286, 80.392857}";
}
);
layerId = "E777F328-EA17-4AE7-9EBA-8002E537BA4F";
name = Regular;
paths = (
{
closed = 1;
nodes = (
"456 0 LINE",
"515 0 LINE",
"515 314 LINE",
"412 314 LINE",
"412 130 LINE"
);
},
{
closed = 1;
nodes = (
"307 256 LINE",
"515 256 LINE",
"515 314 LINE",
"307 314 LINE"
);
},
{
closed = 1;
nodes = (
"44 109 OFFCURVE",
"95 -12 OFFCURVE",
"284 -12 CURVE SMOOTH",
"439 -12 OFFCURVE",
"474 146 OFFCURVE",
"482 224 CURVE",
"412 217 LINE",
"410 91 OFFCURVE",
"367 38 OFFCURVE",
"284 38 CURVE SMOOTH",
"187 38 OFFCURVE",
"164 132 OFFCURVE",
"164 306 CURVE SMOOTH",
"164 492 OFFCURVE",
"190 575 OFFCURVE",
"295 575 CURVE SMOOTH",
"368 575 OFFCURVE",
"397 522 OFFCURVE",
"404 439 CURVE",
"500 455 LINE",
"488 558 OFFCURVE",
"444 625 OFFCURVE",
"295 625 CURVE SMOOTH",
"98 625 OFFCURVE",
"44 511 OFFCURVE",
"44 306 CURVE SMOOTH"
);
}
);
width = 584;
},
{
anchors = (
{
name = bottom;
position = "{294, 0}";
},
{
name = top;
position = "{294, 613}";
}
);
hints = (
{
place = "{26.000000, 130.000000}";
},
{
place = "{327.142857, 83.571429}";
},
{
place = "{327.142857, 110.714286}";
},
{
horizontal = 1;
place = "{-10.000000, 103.428571}";
},
{
horizontal = 1;
place = "{0.000000, 94.857143}";
},
{
horizontal = 1;
place = "{183.857143, 80.714286}";
},
{
horizontal = 1;
place = "{416.142857, 103.428571}";
}
);
layerId = "39185045-6A8C-415A-8312-7B8F11386A4C";
name = Bold;
paths = (
{
closed = 1;
nodes = (
"451 0 LINE",
"526 0 LINE",
"526 319 LINE",
"392 319 LINE",
"392 118 LINE"
);
},
{
closed = 1;
nodes = (
"302 245 LINE",
"526 245 LINE",
"526 319 LINE",
"302 319 LINE"
);
},
{
closed = 1;
nodes = (
"31 109 OFFCURVE",
"91 -12 OFFCURVE",
"281 -12 CURVE SMOOTH",
"450 -12 OFFCURVE",
"478 178 OFFCURVE",
"486 233 CURVE",
"392 230 LINE",
"392 90 OFFCURVE",
"353 53 OFFCURVE",
"281 53 CURVE SMOOTH",
"210 53 OFFCURVE",
"187 142 OFFCURVE",
"187 306 CURVE SMOOTH",
"187 494 OFFCURVE",
"212 560 OFFCURVE",
"294 560 CURVE SMOOTH",
"359 560 OFFCURVE",
"379 511 OFFCURVE",
"386 426 CURVE",
"510 444 LINE",
"498 553 OFFCURVE",
"457 625 OFFCURVE",
"294 625 CURVE SMOOTH",
"91 625 OFFCURVE",
"31 516 OFFCURVE",
"31 306 CURVE SMOOTH"
);
}
);
width = 586;
}
);
unicode = 0047;
},
{
glyphname = H;
lastChange = "2015-05-11 17:51:26 +0000";
layers = (
{
anchors = (
{
name = center;
position = "{307, 306}";
},
{
name = top;
position = "{307, 613}";
}
);
hints = (
{
place = "{64.500000, 100.000000}";
},
{
place = "{346.071429, 100.000000}";
},
{
horizontal = 1;
place = "{217.928571, 75.928571}";
},
{
horizontal = 1;
place = "{511.000000, -20.000000}";
},
{
horizontal = 1;
place = "{15.000000, 21.000000}";
}
);
layerId = "E777F328-EA17-4AE7-9EBA-8002E537BA4F";
name = Regular;
paths = (
{
closed = 1;
nodes = (
"77 613 LINE",
"77 0 LINE",
"197 0 LINE",
"197 613 LINE"
);
},
{
closed = 1;
nodes = (
"166 277 LINE",
"498 277 LINE",
"498 336 LINE",
"166 336 LINE"
);
},
{
closed = 1;
nodes = (
"415 613 LINE",
"415 0 LINE",
"536 0 LINE",
"536 613 LINE"
);
}
);
width = 613;
},
{
anchors = (
{
name = center;
position = "{308, 306}";
},
{
name = top;
position = "{308, 613}";
}
);
hints = (
{
place = "{57.000000, 130.000000}";
},
{
place = "{325.714286, 130.000000}";
},
{
horizontal = 1;
place = "{208.285714, 96.285714}";
},
{
horizontal = 1;
place = "{511.000000, -20.000000}";
},
{
horizontal = 1;
place = "{15.000000, 21.000000}";
}
);
layerId = "39185045-6A8C-415A-8312-7B8F11386A4C";
name = Bold;
paths = (
{
closed = 1;
nodes = (
"68 613 LINE",
"68 0 LINE",
"224 0 LINE",
"224 613 LINE"
);
},
{
closed = 1;
nodes = (
"184 269 LINE",
"503 269 LINE",
"503 344 LINE",
"184 344 LINE"
);
},
{
closed = 1;
nodes = (
"391 613 LINE",
"391 0 LINE",
"548 0 LINE",
"548 613 LINE"
);
}
);
width = 617;
}
);
unicode = 0048;
},
{
glyphname = I;
lastChange = "2015-05-11 17:51:26 +0000";
layers = (
{
anchors = (
{
name = ogonek;
position = "{240, 8}";
},
{
name = top;
position = "{138, 613}";
}
);
hints = (
{
place = "{64.500000, 100.000000}";
},
{
horizontal = 1;
place = "{511.000000, -20.000000}";
},
{
horizontal = 1;
place = "{15.000000, 21.000000}";
}
);
layerId = "E777F328-EA17-4AE7-9EBA-8002E537BA4F";
name = Regular;
paths = (
{
closed = 1;
nodes = (
"77 613 LINE",
"77 0 LINE",
"197 0 LINE",
"197 613 LINE"
);
}
);
width = 275;
},
{
anchors = (
{
name = ogonek;
position = "{254, 8}";
},
{
name = top;
position = "{146, 613}";
}
);
hints = (
{
place = "{57.000000, 130.000000}";
},
{
horizontal = 1;
place = "{511.000000, -20.000000}";
},
{
horizontal = 1;
place = "{15.000000, 21.000000}";
}
);
layerId = "39185045-6A8C-415A-8312-7B8F11386A4C";
name = Bold;
paths = (
{
closed = 1;
nodes = (
"68 613 LINE",
"68 0 LINE",
"224 0 LINE",
"224 613 LINE"
);
}
);
width = 293;
}
);
unicode = 0049;
},
{
glyphname = J;
lastChange = "2015-05-11 17:51:26 +0000";
layers = (
{
anchors = (
{
name = top;
position = "{284, 613}";
}
);
hints = (
{
place = "{1.500000, 86.750000}";
},
{
place = "{187.250000, 100.000000}";
},
{
horizontal = 1;
place = "{-10.000000, 80.392857}";
},
{
horizontal = 1;
place = "{511.000000, -20.000000}";
}
);
layerId = "E777F328-EA17-4AE7-9EBA-8002E537BA4F";
name = Regular;
paths = (
{
closed = 1;
nodes = (
"344 613 LINE",
"224 613 LINE",
"224 154 LINE SMOOTH",
"224 71 OFFCURVE",
"211 38 OFFCURVE",
"166 38 CURVE SMOOTH",
"120 38 OFFCURVE",
"106 77 OFFCURVE",
"106 176 CURVE",
"1 176 LINE",
"1 68 OFFCURVE",
"7 -12 OFFCURVE",
"163 -12 CURVE SMOOTH",
"329 -12 OFFCURVE",
"344 67 OFFCURVE",
"344 154 CURVE SMOOTH"
);
}
);
width = 410;
},
{
anchors = (
{
name = top;
position = "{289, 613}";
}
);
hints = (
{
place = "{-6.000000, 113.000000}";
},
{
place = "{176.000000, 130.000000}";
},
{
horizontal = 1;
place = "{-10.000000, 103.428571}";
},
{
horizontal = 1;
place = "{511.000000, -20.000000}";
}
);
layerId = "39185045-6A8C-415A-8312-7B8F11386A4C";
name = Bold;
paths = (
{
closed = 1;
nodes = (
"367 613 LINE",
"211 613 LINE",
"211 154 LINE SMOOTH",
"211 84 OFFCURVE",
"199 53 OFFCURVE",
"170 53 CURVE SMOOTH",
"140 53 OFFCURVE",
"128 90 OFFCURVE",
"128 190 CURVE",
"-7 190 LINE",
"-7 68 OFFCURVE",
"-1 -12 OFFCURVE",
"167 -12 CURVE SMOOTH",
"350 -12 OFFCURVE",
"367 72 OFFCURVE",
"367 154 CURVE SMOOTH"
);
}
);
width = 424;
}
);
leftKerningGroup = J;
unicode = 004A;
},
{
glyphname = K;
lastChange = "2015-05-11 17:51:26 +0000";
layers = (
{
anchors = (
{
name = bottom;
position = "{264, 0}";
},
{
name = top;
position = "{264, 613}";
}
);
hints = (
{
place = "{64.500000, 100.000000}";
},
{
horizontal = 1;
place = "{221.928571, 48.428571}";
},
{
horizontal = 1;
place = "{247.000000, 23.357143}";
},
{
horizontal = 1;
place = "{247.000000, 50.750000}";
},
{
horizontal = 1;
place = "{511.000000, -20.000000}";
},
{
horizontal = 1;
place = "{15.000000, 21.000000}";
}
);
layerId = "E777F328-EA17-4AE7-9EBA-8002E537BA4F";
name = Regular;
paths = (
{
closed = 1;
nodes = (
"77 613 LINE",
"77 0 LINE",
"197 0 LINE",
"197 613 LINE"
);
},
{
closed = 1;
nodes = (
"529 0 LINE",
"322 324 LINE",
"194 324 LINE",
"402 0 LINE"
);
},
{
closed = 1;
nodes = (
"142 282 LINE",
"295 282 LINE",
"295 342 LINE",
"142 342 LINE"
);
},
{
closed = 1;
nodes = (
"444 613 LINE",
"254 320 LINE",
"323 320 LINE",
"515 613 LINE"
);
}
);
width = 524;
},
{
anchors = (
{
name = bottom;
position = "{272, 0}";
},
{
name = top;
position = "{272, 613}";
}
);
hints = (
{
place = "{57.000000, 130.000000}";
},
{
horizontal = 1;
place = "{212.285714, 61.285714}";
},
{
horizontal = 1;
place = "{247.000000, 26.571429}";
},
{
horizontal = 1;
place = "{247.000000, 62.000000}";
},
{
horizontal = 1;
place = "{511.000000, -20.000000}";
},
{
horizontal = 1;
place = "{15.000000, 21.000000}";
}
);
layerId = "39185045-6A8C-415A-8312-7B8F11386A4C";
name = Bold;
paths = (
{
closed = 1;
nodes = (
"68 613 LINE",
"68 0 LINE",
"224 0 LINE",
"224 613 LINE"
);
},
{
closed = 1;
nodes = (
"560 0 LINE",
"356 330 LINE",
"192 330 LINE",
"395 0 LINE"
);
},
{
closed = 1;
nodes = (
"155 275 LINE",
"317 275 LINE",
"317 350 LINE",
"155 350 LINE"
);
},
{
closed = 1;
nodes = (
"449 613 LINE",
"269 325 LINE",
"358 325 LINE",
"541 613 LINE"
);
}
);
width = 542;
}
);
unicode = 004B;
},
{
glyphname = L;
lastChange = "2015-05-11 17:51:26 +0000";
layers = (
{
anchors = (
{
name = bottom;
position = "{228, 0}";
},
{
name = top;
position = "{138, 613}";
},
{
name = topright;
position = "{389, 613}";
}
);
hints = (
{
place = "{64.500000, 100.000000}";
},
{
horizontal = 1;
place = "{0.000000, 76.714286}";
},
{
horizontal = 1;
place = "{511.000000, -20.000000}";
}
);
layerId = "E777F328-EA17-4AE7-9EBA-8002E537BA4F";
name = Regular;
paths = (
{
closed = 1;
nodes = (
"77 613 LINE",
"77 0 LINE",
"197 0 LINE",
"197 613 LINE"
);
},
{
closed = 1;
nodes = (
"77 0 LINE",
"403 0 LINE",
"403 59 LINE",
"77 59 LINE"
);
}
);
width = 406;
},
{
anchors = (
{
name = bottom;
position = "{228, 0}";
},
{
name = top;
position = "{146, 613}";
},
{
name = topright;
position = "{389, 613}";
}
);
hints = (
{
place = "{57.000000, 130.000000}";
},
{
horizontal = 1;
place = "{0.000000, 98.142857}";
},
{
horizontal = 1;
place = "{511.000000, -20.000000}";
}
);
layerId = "39185045-6A8C-415A-8312-7B8F11386A4C";
name = Bold;
paths = (
{
closed = 1;
nodes = (
"68 613 LINE",
"68 0 LINE",
"224 0 LINE",
"224 613 LINE"
);
},
{
closed = 1;
nodes = (
"68 0 LINE",
"413 0 LINE",
"413 76 LINE",
"68 76 LINE"
);
}
);
width = 406;
}
);
rightKerningGroup = L;
unicode = 004C;
},
{
glyphname = M;
lastChange = "2015-05-11 17:51:26 +0000";
layers = (
{
hints = (
{
place = "{57.500000, 108.428571}";
},
{
place = "{463.535714, 85.892857}";
},
{
horizontal = 1;
place = "{511.000000, -20.000000}";
},
{
horizontal = 1;
place = "{15.000000, 21.000000}";
}
);
layerId = "E777F328-EA17-4AE7-9EBA-8002E537BA4F";
name = Regular;
paths = (
{
closed = 1;
nodes = (
"83 613 LINE",
"66 0 LINE",
"138 0 LINE",
"152 613 LINE"
);
},
{
closed = 1;
nodes = (
"511 613 LINE",
"337 0 LINE",
"407 0 LINE",
"583 613 LINE"
);
},
{
closed = 1;
nodes = (
"558 613 LINE",
"571 0 LINE",
"691 0 LINE",
"673 613 LINE"
);
},
{
closed = 1;
nodes = (
"408 0 LINE",
"238 613 LINE",
"130 613 LINE",
"302 0 LINE"
);
}
);
width = 756;
},
{
hints = (
{
place = "{50.000000, 136.285714}";
},
{
place = "{445.857143, 116.428571}";
},
{
horizontal = 1;
place = "{511.000000, -20.000000}";
},
{
horizontal = 1;
place = "{15.000000, 21.000000}";
}
);
layerId = "39185045-6A8C-415A-8312-7B8F11386A4C";
name = Bold;
paths = (
{
closed = 1;
nodes = (
"71 613 LINE",
"55 0 LINE",
"150 0 LINE",
"161 613 LINE"
);
},
{
closed = 1;
nodes = (
"475 613 LINE",
"324 0 LINE",
"415 0 LINE",
"570 613 LINE"
);
},
{
closed = 1;
nodes = (
"535 613 LINE",
"546 0 LINE",
"703 0 LINE",
"685 613 LINE"
);
},
{
closed = 1;
nodes = (
"416 0 LINE",
"270 613 LINE",
"131 613 LINE",
"281 0 LINE"
);
}
);
width = 756;
}
);
unicode = 004D;
},
{
glyphname = N;
lastChange = "2015-05-11 17:51:26 +0000";
layers = (
{
anchors = (
{
name = bottom;
position = "{320, 0}";
},
{
name = top;
position = "{320, 613}";
}
);
hints = (
{
place = "{64.500000, 100.000000}";
},
{
place = "{366.000000, 100.000000}";
},
{
horizontal = 1;
place = "{511.000000, -20.000000}";
},
{
horizontal = 1;
place = "{15.000000, 21.000000}";
}
);
layerId = "E777F328-EA17-4AE7-9EBA-8002E537BA4F";
name = Regular;
paths = (
{
closed = 1;
nodes = (
"78 613 LINE",
"78 0 LINE",
"149 0 LINE",
"149 613 LINE"
);
},
{
closed = 1;
nodes = (
"491 613 LINE",
"491 0 LINE",
"562 0 LINE",
"562 613 LINE"
);
},
{
closed = 1;
nodes = (
"78 613 LINE",
"434 0 LINE",
"562 0 LINE",
"205 613 LINE"
);
}
);
width = 640;
},
{
anchors = (
{
name = bottom;
position = "{319, 0}";
},
{
name = top;
position = "{319, 613}";
}
);
hints = (
{
place = "{57.000000, 130.000000}";
},
{
place = "{351.000000, 130.000000}";
},
{
horizontal = 1;
place = "{511.000000, -20.000000}";
},
{
horizontal = 1;
place = "{15.000000, 21.000000}";
}
);
layerId = "39185045-6A8C-415A-8312-7B8F11386A4C";
name = Bold;
paths = (
{
closed = 1;
nodes = (
"65 613 LINE",
"65 0 LINE",
"158 0 LINE",
"158 613 LINE"
);
},
{
closed = 1;
nodes = (
"479 613 LINE",
"479 0 LINE",
"572 0 LINE",
"572 613 LINE"
);
},
{
closed = 1;
nodes = (
"65 613 LINE",
"408 0 LINE",
"571 0 LINE",
"228 613 LINE"
);
}
);
width = 640;
}
);
unicode = 004E;
},
{
glyphname = Eng;
lastChange = "2015-05-11 17:51:27 +0000";
layers = (
{
components = (
{
name = N;
}
);
hints = (
{
place = "{64.500000, 100.000000}";
},
{
place = "{366.000000, 100.000000}";
},
{
horizontal = 1;
place = "{-145.035714, 78.285714}";
},
{
horizontal = 1;
place = "{15.000000, 21.000000}";
},
{
horizontal = 1;
place = "{511.000000, -20.000000}";
}
);
layerId = "E777F328-EA17-4AE7-9EBA-8002E537BA4F";
name = Regular;
paths = (
{
closed = 1;
nodes = (
"274 -169 LINE",
"314 -190 OFFCURVE",
"354 -203 OFFCURVE",
"396 -203 CURVE SMOOTH",
"505 -203 OFFCURVE",
"562 -149 OFFCURVE",
"562 -42 CURVE SMOOTH",
"562 0 LINE",
"434 0 LINE",
"443 -16 LINE",
"443 -70 LINE SMOOTH",
"443 -107 OFFCURVE",
"422 -134 OFFCURVE",
"385 -134 CURVE SMOOTH",
"354 -134 OFFCURVE",
"329 -113 OFFCURVE",
"311 -84 CURVE"
);
}
);
width = 640;
},
{
components = (
{
name = N;
}
);
hints = (
{
place = "{57.000000, 130.000000}";
},
{
place = "{351.000000, 130.000000}";
},
{
horizontal = 1;
place = "{-134.857143, 101.857143}";
},
{
horizontal = 1;
place = "{15.000000, 21.000000}";
},
{
horizontal = 1;
place = "{511.000000, -20.000000}";
}
);
layerId = "39185045-6A8C-415A-8312-7B8F11386A4C";
name = Bold;
paths = (
{
closed = 1;
nodes = (
"253 -174 LINE",
"299 -193 OFFCURVE",
"344 -203 OFFCURVE",
"382 -203 CURVE SMOOTH",
"514 -203 OFFCURVE",
"571 -142 OFFCURVE",
"571 -26 CURVE SMOOTH",
"571 0 LINE",
"408 0 LINE",
"416 -17 LINE",
"416 -58 LINE SMOOTH",
"416 -88 OFFCURVE",
"401 -112 OFFCURVE",
"366 -112 CURVE SMOOTH",
"337 -112 OFFCURVE",
"316 -94 OFFCURVE",
"298 -62 CURVE"
);
}
);
width = 640;
}
);
unicode = 014A;
},
{
glyphname = O;
lastChange = "2015-05-11 17:51:26 +0000";
layers = (
{
anchors = (
{
name = top;
position = "{298, 613}";
}
);
hints = (
{
place = "{37.250000, 100.000000}";
},
{
place = "{357.250000, 100.000000}";
},
{
horizontal = 1;
place = "{-10.000000, 80.392857}";
},
{
horizontal = 1;
place = "{439.714286, 80.392857}";
}
);
layerId = "E777F328-EA17-4AE7-9EBA-8002E537BA4F";
name = Regular;
paths = (
{
closed = 1;
nodes = (
"469 -12 OFFCURVE",
"548 89 OFFCURVE",
"548 306 CURVE SMOOTH",
"548 524 OFFCURVE",
"469 625 OFFCURVE",
"296 625 CURVE SMOOTH",
"124 625 OFFCURVE",
"44 526 OFFCURVE",
"44 306 CURVE SMOOTH",
"44 88 OFFCURVE",
"124 -12 OFFCURVE",
"296 -12 CURVE SMOOTH"
);
},
{
closed = 1;
nodes = (
"206 37 OFFCURVE",
"164 121 OFFCURVE",
"164 306 CURVE SMOOTH",
"164 492 OFFCURVE",
"206 576 OFFCURVE",
"296 576 CURVE SMOOTH",
"386 576 OFFCURVE",
"428 490 OFFCURVE",
"428 306 CURVE SMOOTH",
"428 124 OFFCURVE",
"386 37 OFFCURVE",
"296 37 CURVE SMOOTH"
);
}
);
width = 594;
},
{
anchors = (
{
name = top;
position = "{293, 613}";
}
);
hints = (
{
place = "{26.000000, 130.000000}";
},
{
place = "{331.000000, 130.000000}";
},
{
horizontal = 1;
place = "{-10.000000, 103.428571}";
},
{
horizontal = 1;
place = "{416.142857, 103.428571}";
}
);
layerId = "39185045-6A8C-415A-8312-7B8F11386A4C";
name = Bold;
paths = (
{
closed = 1;
nodes = (
"472 -12 OFFCURVE",
"553 89 OFFCURVE",
"553 306 CURVE SMOOTH",
"553 524 OFFCURVE",
"470 625 OFFCURVE",
"292 625 CURVE SMOOTH",
"114 625 OFFCURVE",
"31 526 OFFCURVE",
"31 306 CURVE SMOOTH",
"31 88 OFFCURVE",
"113 -12 OFFCURVE",
"292 -12 CURVE SMOOTH"
);
},
{
closed = 1;
nodes = (
"220 50 OFFCURVE",
"187 131 OFFCURVE",
"187 306 CURVE SMOOTH",
"187 482 OFFCURVE",
"220 563 OFFCURVE",
"292 563 CURVE SMOOTH",
"364 563 OFFCURVE",
"397 480 OFFCURVE",
"397 306 CURVE SMOOTH",
"397 133 OFFCURVE",
"364 50 OFFCURVE",
"292 50 CURVE SMOOTH"
);
}
);
width = 584;
}
);
unicode = 004F;
},
{
glyphname = OE;
lastChange = "2015-05-11 17:51:26 +0000";
layers = (
{
anchors = (
{
name = top;
position = "{397, 613}";
}
);
hints = (
{
place = "{37.250000, 100.000000}";
},
{
place = "{350.250000, 100.000000}";
},
{
horizontal = 1;
place = "{0.000000, 76.714286}";
},
{
horizontal = 1;
place = "{222.035714, 75.928571}";
},
{
horizontal = 1;
place = "{434.285714, 76.714286}";
}
);
layerId = "E777F328-EA17-4AE7-9EBA-8002E537BA4F";
name = Regular;
paths = (
{
closed = 1;
nodes = (
"493 0 OFFCURVE",
"540 132 OFFCURVE",
"540 306 CURVE SMOOTH",
"540 480 OFFCURVE",
"493 613 OFFCURVE",
"293 613 CURVE SMOOTH",
"91 613 OFFCURVE",
"44 480 OFFCURVE",
"44 306 CURVE SMOOTH",
"44 132 OFFCURVE",
"91 0 OFFCURVE",
"293 0 CURVE SMOOTH"
);
},
{
closed = 1;
nodes = (
"188 59 OFFCURVE",
"164 166 OFFCURVE",
"164 306 CURVE SMOOTH",
"164 448 OFFCURVE",
"190 554 OFFCURVE",
"293 554 CURVE SMOOTH",
"396 554 OFFCURVE",
"420 448 OFFCURVE",
"420 306 CURVE SMOOTH",
"420 166 OFFCURVE",
"396 59 OFFCURVE",
"293 59 CURVE SMOOTH"
);
},
{
closed = 1;
nodes = (
"294 554 LINE",
"751 554 LINE",
"751 613 LINE",
"294 613 LINE"
);
},
{
closed = 1;
nodes = (
"293 0 LINE",
"768 0 LINE",
"768 59 LINE",
"293 59 LINE"
);
},
{
closed = 1;
nodes = (
"533 282 LINE",
"730 282 LINE",
"730 342 LINE",
"533 342 LINE"
);
}
);
width = 794;
},
{
anchors = (
{
name = top;
position = "{390, 613}";
}
);
hints = (
{
place = "{26.000000, 130.000000}";
},
{
place = "{324.000000, 130.000000}";
},
{
horizontal = 1;
place = "{0.000000, 98.142857}";
},
{
horizontal = 1;
place = "{211.857143, 96.285714}";
},
{
horizontal = 1;
place = "{412.857143, 98.142857}";
}
);
layerId = "39185045-6A8C-415A-8312-7B8F11386A4C";
name = Bold;
paths = (
{
closed = 1;
nodes = (
"497 0 OFFCURVE",
"545 143 OFFCURVE",
"545 306 CURVE SMOOTH",
"545 469 OFFCURVE",
"497 613 OFFCURVE",
"288 613 CURVE SMOOTH",
"79 613 OFFCURVE",
"31 469 OFFCURVE",
"31 306 CURVE SMOOTH",
"31 143 OFFCURVE",
"79 0 OFFCURVE",
"288 0 CURVE SMOOTH"
);
},
{
closed = 1;
nodes = (
"206 76 OFFCURVE",
"187 182 OFFCURVE",
"187 306 CURVE SMOOTH",
"187 431 OFFCURVE",
"208 538 OFFCURVE",
"289 538 CURVE SMOOTH",
"371 538 OFFCURVE",
"389 431 OFFCURVE",
"389 306 CURVE SMOOTH",
"389 182 OFFCURVE",
"371 76 OFFCURVE",
"288 76 CURVE SMOOTH"
);
},
{
closed = 1;
nodes = (
"289 538 LINE",
"746 538 LINE",
"746 613 LINE",
"289 613 LINE"
);
},
{
closed = 1;
nodes = (
"288 0 LINE",
"763 0 LINE",
"763 76 LINE",
"288 76 LINE"
);
},
{
closed = 1;
nodes = (
"538 275 LINE",
"722 275 LINE",
"722 349 LINE",
"538 349 LINE"
);
}
);
width = 781;
}
);
leftMetricsKey = "=O";
rightMetricsKey = "=E";
unicode = 0152;
},
{
glyphname = P;
lastChange = "2015-05-11 17:51:26 +0000";
layers = (
{
hints = (
{
place = "{64.500000, 100.000000}";
},
{
place = "{308.928571, 100.000000}";
},
{
horizontal = 1;
place = "{180.500000, 76.714286}";
},
{
horizontal = 1;
place = "{434.285714, 76.714286}";
},
{
horizontal = 1;
place = "{15.000000, 21.000000}";
}
);
layerId = "E777F328-EA17-4AE7-9EBA-8002E537BA4F";
name = Regular;
paths = (
{
closed = 1;
nodes = (
"77 563 LINE",
"77 0 LINE",
"197 0 LINE",
"197 563 LINE"
);
},
{
closed = 1;
nodes = (
"293 217 LINE SMOOTH",
"448 217 OFFCURVE",
"490 312 OFFCURVE",
"490 414 CURVE SMOOTH",
"490 517 OFFCURVE",
"448 613 OFFCURVE",
"293 613 CURVE SMOOTH",
"77 613 LINE",
"77 217 LINE"
);
},
{
closed = 1;
nodes = (
"197 260 LINE",
"197 569 LINE",
"274 569 LINE SMOOTH",
"341 569 OFFCURVE",
"370 510 OFFCURVE",
"370 414 CURVE SMOOTH",
"370 319 OFFCURVE",
"341 260 OFFCURVE",
"274 260 CURVE SMOOTH"
);
}
);
width = 503;
},
{
hints = (
{
place = "{57.000000, 130.000000}";
},
{
place = "{299.285714, 130.000000}";
},
{
horizontal = 1;
place = "{173.000000, 98.142857}";
},
{
horizontal = 1;
place = "{412.857143, 98.142857}";
},
{
horizontal = 1;
place = "{15.000000, 21.000000}";
}
);
layerId = "39185045-6A8C-415A-8312-7B8F11386A4C";
name = Bold;
paths = (
{
closed = 1;
nodes = (
"68 546 LINE",
"68 0 LINE",
"224 0 LINE",
"224 546 LINE"
);
},
{
closed = 1;
nodes = (
"312 208 LINE SMOOTH",
"468 208 OFFCURVE",
"515 305 OFFCURVE",
"515 409 CURVE SMOOTH",
"515 516 OFFCURVE",
"468 613 OFFCURVE",
"312 613 CURVE SMOOTH",
"68 613 LINE",
"68 208 LINE"
);
},
{
closed = 1;
nodes = (
"224 264 LINE",
"224 557 LINE",
"282 557 LINE SMOOTH",
"331 557 OFFCURVE",
"359 509 OFFCURVE",
"359 409 CURVE SMOOTH",
"359 313 OFFCURVE",
"331 264 OFFCURVE",
"282 264 CURVE SMOOTH"
);
}
);
width = 509;
}
);
unicode = 0050;
},
{
glyphname = Thorn;
lastChange = "2015-05-11 17:51:26 +0000";
layers = (
{
hints = (
{
place = "{64.500000, 100.000000}";
},
{
place = "{308.928571, 100.000000}";
},
{
horizontal = 1;
place = "{180.500000, 76.714286}";
},
{
horizontal = 1;
place = "{434.285714, 76.714286}";
},
{
horizontal = 1;
place = "{15.000000, 15.000000}";
}
);
layerId = "E777F328-EA17-4AE7-9EBA-8002E537BA4F";
name = Regular;
paths = (
{
closed = 1;
nodes = (
"77 611 LINE",
"77 0 LINE",
"197 0 LINE",
"197 611 LINE"
);
},
{
closed = 1;
nodes = (
"293 108 LINE SMOOTH",
"448 108 OFFCURVE",
"490 203 OFFCURVE",
"490 305 CURVE SMOOTH",
"490 408 OFFCURVE",
"448 503 OFFCURVE",
"293 503 CURVE SMOOTH",
"77 503 LINE",
"77 108 LINE"
);
},
{
closed = 1;
nodes = (
"197 152 LINE",
"197 458 LINE",
"274 458 LINE SMOOTH",
"341 458 OFFCURVE",
"370 401 OFFCURVE",
"370 305 CURVE SMOOTH",
"370 210 OFFCURVE",
"341 152 OFFCURVE",
"274 152 CURVE SMOOTH"
);
}
);
width = 503;
},
{
hints = (
{
place = "{57.000000, 130.000000}";
},
{
place = "{299.285714, 130.000000}";
},
{
horizontal = 1;
place = "{173.000000, 98.142857}";
},
{
horizontal = 1;
place = "{412.857143, 98.142857}";
},
{
horizontal = 1;
place = "{15.000000, 15.000000}";
}
);
layerId = "39185045-6A8C-415A-8312-7B8F11386A4C";
name = Bold;
paths = (
{
closed = 1;
nodes = (
"68 624 LINE",
"68 0 LINE",
"224 0 LINE",
"224 624 LINE"
);
},
{
closed = 1;
nodes = (
"312 110 LINE SMOOTH",
"468 110 OFFCURVE",
"515 208 OFFCURVE",
"515 311 CURVE SMOOTH",
"515 416 OFFCURVE",
"468 514 OFFCURVE",
"312 514 CURVE SMOOTH",
"68 514 LINE",
"68 110 LINE"
);
},
{
closed = 1;
nodes = (
"224 167 LINE",
"224 457 LINE",
"282 457 LINE SMOOTH",
"331 457 OFFCURVE",
"359 409 OFFCURVE",
"359 311 CURVE SMOOTH",
"359 215 OFFCURVE",
"331 167 OFFCURVE",
"282 167 CURVE SMOOTH"
);
}
);
width = 509;
}
);
unicode = 00DE;
},
{
glyphname = Q;
lastChange = "2015-05-11 17:51:27 +0000";
layers = (
{
components = (
{
name = O;
}
);
hints = (
{
place = "{37.250000, 100.000000}";
},
{
place = "{350.250000, 100.000000}";
},
{
horizontal = 1;
place = "{-10.000000, 80.392857}";
},
{
horizontal = 1;
place = "{439.714286, 80.392857}";
},
{
horizontal = 1;
place = "{-86.464286, 21.000000}";
}
);
layerId = "E777F328-EA17-4AE7-9EBA-8002E537BA4F";
name = Regular;
paths = (
{
closed = 1;
nodes = (
"269 -10 LINE",
"491 -138 LINE",
"533 -59 LINE",
"310 31 LINE"
);
}
);
width = 586;
},
{
components = (
{
name = O;
}
);
hints = (
{
place = "{26.000000, 130.000000}";
},
{
place = "{324.000000, 130.000000}";
},
{
horizontal = 1;
place = "{-10.000000, 103.428571}";
},
{
horizontal = 1;
place = "{416.142857, 103.428571}";
},
{
horizontal = 1;
place = "{-89.142857, 21.000000}";
}
);
layerId = "39185045-6A8C-415A-8312-7B8F11386A4C";
name = Bold;
paths = (
{
closed = 1;
nodes = (
"256 -10 LINE",
"493 -140 LINE",
"546 -41 LINE",
"308 42 LINE"
);
}
);
width = 576;
}
);
unicode = 0051;
},
{
glyphname = R;
lastChange = "2015-05-11 17:51:26 +0000";
layers = (
{
anchors = (
{
name = bottom;
position = "{278, 0}";
},
{
name = top;
position = "{278, 613}";
}
);
hints = (
{
place = "{64.500000, 100.000000}";
},
{
place = "{315.392857, 100.000000}";
},
{
horizontal = 1;
place = "{201.500000, 50.000000}";
},
{
horizontal = 1;
place = "{434.285714, 76.714286}";
},
{
horizontal = 1;
place = "{201.500000, 76.714286}";
},
{
horizontal = 1;
place = "{15.000000, 21.000000}";
}
);
layerId = "E777F328-EA17-4AE7-9EBA-8002E537BA4F";
name = Regular;
paths = (
{
closed = 1;
nodes = (
"77 563 LINE",
"77 0 LINE",
"197 0 LINE",
"197 563 LINE"
);
},
{
closed = 1;
nodes = (
"295 258 LINE SMOOTH",
"461 258 OFFCURVE",
"498 349 OFFCURVE",
"498 427 CURVE SMOOTH",
"498 512 OFFCURVE",
"461 613 OFFCURVE",
"295 613 CURVE SMOOTH",
"77 613 LINE",
"77 258 LINE"
);
},
{
closed = 1;
nodes = (
"197 302 LINE",
"197 569 LINE",
"280 569 LINE SMOOTH",
"350 569 OFFCURVE",
"378 498 OFFCURVE",
"378 427 CURVE SMOOTH",
"378 366 OFFCURVE",
"350 302 OFFCURVE",
"280 302 CURVE SMOOTH"
);
},
{
closed = 1;
nodes = (
"236 258 LINE",
"278 258 OFFCURVE",
"293 252 OFFCURVE",
"308 215 CURVE SMOOTH",
"395 0 LINE",
"524 0 LINE",
"431 224 LINE SMOOTH",
"408 277 OFFCURVE",
"355 284 OFFCURVE",
"236 284 CURVE"
);
}
);
width = 557;
},
{
anchors = (
{
name = bottom;
position = "{286, 0}";
},
{
name = top;
position = "{286, 613}";
}
);
hints = (
{
place = "{57.000000, 130.000000}";
},
{
place = "{308.428571, 130.000000}";
},
{
horizontal = 1;
place = "{194.000000, 65.000000}";
},
{
horizontal = 1;
place = "{412.857143, 98.142857}";
},
{
horizontal = 1;
place = "{194.000000, 98.142857}";
},
{
horizontal = 1;
place = "{15.000000, 21.000000}";
}
);
layerId = "39185045-6A8C-415A-8312-7B8F11386A4C";
name = Bold;
paths = (
{
closed = 1;
nodes = (
"68 546 LINE",
"68 0 LINE",
"224 0 LINE",
"224 546 LINE"
);
},
{
closed = 1;
nodes = (
"312 253 LINE SMOOTH",
"487 253 OFFCURVE",
"526 344 OFFCURVE",
"526 422 CURVE SMOOTH",
"526 510 OFFCURVE",
"487 613 OFFCURVE",
"312 613 CURVE SMOOTH",
"68 613 LINE",
"68 253 LINE"
);
},
{
closed = 1;
nodes = (
"224 310 LINE",
"224 557 LINE",
"288 557 LINE SMOOTH",
"343 557 OFFCURVE",
"370 491 OFFCURVE",
"370 422 CURVE SMOOTH",
"370 367 OFFCURVE",
"343 310 OFFCURVE",
"288 310 CURVE SMOOTH"
);
},
{
closed = 1;
nodes = (
"247 253 LINE",
"282 253 OFFCURVE",
"286 248 OFFCURVE",
"296 220 CURVE SMOOTH",
"385 0 LINE",
"553 0 LINE",
"458 229 LINE SMOOTH",
"437 277 OFFCURVE",
"378 288 OFFCURVE",
"247 288 CURVE"
);
}
);
width = 570;
}
);
unicode = 0052;
},
{
glyphname = S;
lastChange = "2015-05-11 17:51:26 +0000";
layers = (
{
anchors = (
{
name = bottom;
position = "{257, 0}";
},
{
name = top;
position = "{263, 613}";
}
);
hints = (
{
place = "{41.000000, 100.000000}";
},
{
place = "{292.000000, 100.000000}";
},
{
horizontal = 1;
place = "{-10.000000, 78.000000}";
},
{
horizontal = 1;
place = "{443.000000, 78.000000}";
}
);
layerId = "E777F328-EA17-4AE7-9EBA-8002E537BA4F";
name = Regular;
paths = (
{
closed = 1;
nodes = (
"120 625 OFFCURVE",
"48 563 OFFCURVE",
"48 443 CURVE SMOOTH",
"48 338 OFFCURVE",
"91 287 OFFCURVE",
"208 259 CURVE SMOOTH",
"256 247 LINE SMOOTH",
"353 224 OFFCURVE",
"380 202 OFFCURVE",
"380 142 CURVE SMOOTH",
"380 74 OFFCURVE",
"337 37 OFFCURVE",
"258 37 CURVE SMOOTH",
"184 37 OFFCURVE",
"140 91 OFFCURVE",
"131 187 CURVE",
"35 173 LINE",
"50 47 OFFCURVE",
"121 -12 OFFCURVE",
"258 -12 CURVE SMOOTH",
"401 -12 OFFCURVE",
"479 52 OFFCURVE",
"479 169 CURVE SMOOTH",
"479 271 OFFCURVE",
"434 322 OFFCURVE",
"317 352 CURVE SMOOTH",
"263 366 LINE SMOOTH",
"174 389 OFFCURVE",
"145 412 OFFCURVE",
"145 472 CURVE SMOOTH",
"145 538 OFFCURVE",
"187 576 OFFCURVE",
"259 576 CURVE SMOOTH",
"329 576 OFFCURVE",
"371 522 OFFCURVE",
"378 427 CURVE",
"475 440 LINE",
"458 566 OFFCURVE",
"390 625 OFFCURVE",
"260 625 CURVE SMOOTH"
);
}
);
width = 515;
},
{
anchors = (
{
name = bottom;
position = "{262, 0}";
},
{
name = top;
position = "{268, 613}";
}
);
hints = (
{
place = "{33.000000, 130.000000}";
},
{
place = "{271.714286, 130.000000}";
},
{
horizontal = 1;
place = "{-10.000000, 99.142857}";
},
{
horizontal = 1;
place = "{421.857143, 99.142857}";
}
);
layerId = "39185045-6A8C-415A-8312-7B8F11386A4C";
name = Bold;
paths = (
{
closed = 1;
nodes = (
"115 625 OFFCURVE",
"40 562 OFFCURVE",
"40 434 CURVE SMOOTH",
"40 320 OFFCURVE",
"88 268 OFFCURVE",
"200 245 CURVE SMOOTH",
"242 235 LINE SMOOTH",
"344 214 OFFCURVE",
"371 197 OFFCURVE",
"371 144 CURVE SMOOTH",
"371 86 OFFCURVE",
"330 50 OFFCURVE",
"265 50 CURVE SMOOTH",
"196 50 OFFCURVE",
"158 104 OFFCURVE",
"151 199 CURVE",
"26 181 LINE",
"42 48 OFFCURVE",
"118 -12 OFFCURVE",
"264 -12 CURVE SMOOTH",
"415 -12 OFFCURVE",
"496 54 OFFCURVE",
"496 176 CURVE SMOOTH",
"496 288 OFFCURVE",
"449 340 OFFCURVE",
"335 365 CURVE SMOOTH",
"284 378 LINE SMOOTH",
"192 401 OFFCURVE",
"163 416 OFFCURVE",
"163 469 CURVE SMOOTH",
"163 526 OFFCURVE",
"202 563 OFFCURVE",
"262 563 CURVE SMOOTH",
"325 563 OFFCURVE",
"362 509 OFFCURVE",
"368 416 CURVE",
"493 432 LINE",
"475 564 OFFCURVE",
"403 625 OFFCURVE",
"264 625 CURVE SMOOTH"
);
}
);
width = 522;
}
);
unicode = 0053;
},
{
glyphname = T;
lastChange = "2015-05-11 17:51:26 +0000";
layers = (
{
anchors = (
{
name = bottom;
position = "{218, 0}";
},
{
name = center;
position = "{218, 306}";
},
{
name = top;
position = "{218, 613}";
}
);
hints = (
{
place = "{131.714286, 100.000000}";
},
{
horizontal = 1;
place = "{511.000000, -20.000000}";
},
{
horizontal = 1;
place = "{15.000000, 21.000000}";
}
);
layerId = "E777F328-EA17-4AE7-9EBA-8002E537BA4F";
name = Regular;
paths = (
{
closed = 1;
nodes = (
"-4 554 LINE",
"438 554 LINE",
"438 613 LINE",
"-4 613 LINE"
);
},
{
closed = 1;
nodes = (
"158 554 LINE",
"158 0 LINE",
"278 0 LINE",
"278 554 LINE"
);
}
);
width = 434;
},
{
anchors = (
{
name = bottom;
position = "{226, 0}";
},
{
name = center;
position = "{226, 306}";
},
{
name = top;
position = "{226, 613}";
}
);
hints = (
{
place = "{123.142857, 130.000000}";
},
{
horizontal = 1;
place = "{511.000000, -20.000000}";
},
{
horizontal = 1;
place = "{15.000000, 21.000000}";
}
);
layerId = "39185045-6A8C-415A-8312-7B8F11386A4C";
name = Bold;
paths = (
{
closed = 1;
nodes = (
"-10 538 LINE",
"461 538 LINE",
"461 613 LINE",
"-10 613 LINE"
);
},
{
closed = 1;
nodes = (
"148 538 LINE",
"148 0 LINE",
"304 0 LINE",
"304 538 LINE"
);
}
);
width = 450;
}
);
leftKerningGroup = T;
rightKerningGroup = T;
unicode = 0054;
},
{
glyphname = U;
lastChange = "2015-05-11 17:51:26 +0000";
layers = (
{
anchors = (
{
name = ogonek;
position = "{416, 8}";
},
{
name = top;
position = "{305, 613}";
}
);
hints = (
{
place = "{54.500000, 100.000000}";
},
{
place = "{338.750000, 100.000000}";
},
{
horizontal = 1;
place = "{-10.000000, 82.285714}";
},
{
horizontal = 1;
place = "{511.000000, -20.000000}";
}
);
layerId = "E777F328-EA17-4AE7-9EBA-8002E537BA4F";
name = Regular;
paths = (
{
closed = 1;
nodes = (
"455 613 LINE",
"455 203 LINE SMOOTH",
"455 88 OFFCURVE",
"384 47 OFFCURVE",
"310 47 CURVE SMOOTH",
"240 47 OFFCURVE",
"185 88 OFFCURVE",
"185 203 CURVE SMOOTH",
"185 613 LINE",
"65 613 LINE",
"65 203 LINE SMOOTH",
"65 34 OFFCURVE",
"184 -12 OFFCURVE",
"302 -12 CURVE SMOOTH",
"401 -12 OFFCURVE",
"526 35 OFFCURVE",
"526 203 CURVE SMOOTH",
"526 613 LINE"
);
}
);
width = 590;
},
{
anchors = (
{
name = ogonek;
position = "{444, 8}";
},
{
name = top;
position = "{306, 613}";
}
);
hints = (
{
place = "{47.000000, 130.000000}";
},
{
place = "{320.000000, 130.000000}";
},
{
horizontal = 1;
place = "{-10.000000, 105.857143}";
},
{
horizontal = 1;
place = "{511.000000, -20.000000}";
}
);
layerId = "39185045-6A8C-415A-8312-7B8F11386A4C";
name = Bold;
paths = (
{
closed = 1;
nodes = (
"446 613 LINE",
"446 203 LINE SMOOTH",
"446 101 OFFCURVE",
"388 65 OFFCURVE",
"317 65 CURVE SMOOTH",
"258 65 OFFCURVE",
"212 101 OFFCURVE",
"212 203 CURVE SMOOTH",
"212 613 LINE",
"56 613 LINE",
"56 203 LINE SMOOTH",
"56 34 OFFCURVE",
"180 -12 OFFCURVE",
"307 -12 CURVE SMOOTH",
"408 -12 OFFCURVE",
"540 30 OFFCURVE",
"540 203 CURVE SMOOTH",
"540 613 LINE"
);
}
);
width = 595;
}
);
unicode = 0055;
},
{
glyphname = V;
lastChange = "2015-05-11 17:51:26 +0000";
layers = (
{
hints = (
{
horizontal = 1;
place = "{15.000000, 21.000000}";
},
{
horizontal = 1;
place = "{511.000000, -20.000000}";
}
);
layerId = "E777F328-EA17-4AE7-9EBA-8002E537BA4F";
name = Regular;
paths = (
{
closed = 1;
nodes = (
"306 0 LINE",
"127 613 LINE",
"7 613 LINE",
"196 0 LINE"
);
},
{
closed = 1;
nodes = (
"336 0 LINE",
"524 613 LINE",
"452 613 LINE",
"274 0 LINE"
);
}
);
width = 530;
},
{
hints = (
{
horizontal = 1;
place = "{15.000000, 21.000000}";
},
{
horizontal = 1;
place = "{511.000000, -20.000000}";
}
);
layerId = "39185045-6A8C-415A-8312-7B8F11386A4C";
name = Bold;
paths = (
{
closed = 1;
nodes = (
"324 0 LINE",
"151 613 LINE",
"-5 613 LINE",
"180 0 LINE"
);
},
{
closed = 1;
nodes = (
"362 0 LINE",
"547 613 LINE",
"455 613 LINE",
"282 0 LINE"
);
}
);
width = 542;
}
);
unicode = 0056;
},
{
glyphname = W;
lastChange = "2015-05-11 17:51:26 +0000";
layers = (
{
anchors = (
{
name = top;
position = "{408, 613}";
}
);
hints = (
{
horizontal = 1;
place = "{15.000000, 21.000000}";
},
{
horizontal = 1;
place = "{511.000000, -20.000000}";
}
);
layerId = "E777F328-EA17-4AE7-9EBA-8002E537BA4F";
name = Regular;
paths = (
{
closed = 1;
nodes = (
"263 0 LINE",
"138 613 LINE",
"18 613 LINE",
"149 0 LINE"
);
},
{
closed = 1;
nodes = (
"263 0 LINE",
"421 613 LINE",
"353 613 LINE",
"197 0 LINE"
);
},
{
closed = 1;
nodes = (
"618 0 LINE",
"749 613 LINE",
"677 613 LINE",
"553 0 LINE"
);
},
{
closed = 1;
nodes = (
"618 0 LINE",
"463 613 LINE",
"353 613 LINE",
"511 0 LINE"
);
}
);
width = 767;
},
{
anchors = (
{
name = top;
position = "{432, 613}";
}
);
hints = (
{
horizontal = 1;
place = "{15.000000, 21.000000}";
},
{
horizontal = 1;
place = "{511.000000, -20.000000}";
}
);
layerId = "39185045-6A8C-415A-8312-7B8F11386A4C";
name = Bold;
paths = (
{
closed = 1;
nodes = (
"287 0 LINE",
"168 613 LINE",
"13 613 LINE",
"139 0 LINE"
);
},
{
closed = 1;
nodes = (
"287 0 LINE",
"450 613 LINE",
"360 613 LINE",
"203 0 LINE"
);
},
{
closed = 1;
nodes = (
"654 0 LINE",
"780 613 LINE",
"688 613 LINE",
"571 0 LINE"
);
},
{
closed = 1;
nodes = (
"654 0 LINE",
"503 613 LINE",
"360 613 LINE",
"515 0 LINE"
);
}
);
width = 793;
}
);
leftKerningGroup = W;
rightKerningGroup = W;
unicode = 0057;
},
{
glyphname = X;
lastChange = "2015-05-11 17:51:26 +0000";
layers = (
{
hints = (
{
horizontal = 1;
place = "{511.000000, -20.000000}";
},
{
horizontal = 1;
place = "{15.000000, 21.000000}";
}
);
layerId = "E777F328-EA17-4AE7-9EBA-8002E537BA4F";
name = Regular;
paths = (
{
closed = 1;
nodes = (
"451 613 LINE",
"253 329 LINE",
"296 287 LINE",
"523 613 LINE"
);
},
{
closed = 1;
nodes = (
"0 613 LINE",
"398 0 LINE",
"535 0 LINE",
"137 613 LINE"
);
},
{
closed = 1;
nodes = (
"76 0 LINE",
"278 299 LINE",
"235 337 LINE",
"4 0 LINE"
);
}
);
width = 522;
},
{
hints = (
{
horizontal = 1;
place = "{511.000000, -20.000000}";
},
{
horizontal = 1;
place = "{15.000000, 21.000000}";
}
);
layerId = "39185045-6A8C-415A-8312-7B8F11386A4C";
name = Bold;
paths = (
{
closed = 1;
nodes = (
"454 613 LINE",
"252 331 LINE",
"308 276 LINE",
"546 613 LINE"
);
},
{
closed = 1;
nodes = (
"-25 613 LINE",
"378 0 LINE",
"556 0 LINE",
"152 613 LINE"
);
},
{
closed = 1;
nodes = (
"79 0 LINE",
"280 287 LINE",
"221 337 LINE",
"-13 0 LINE"
);
}
);
width = 517;
}
);
unicode = 0058;
},
{
glyphname = Y;
lastChange = "2015-05-11 17:51:26 +0000";
layers = (
{
anchors = (
{
name = top;
position = "{244, 613}";
}
);
hints = (
{
place = "{152.500000, 100.000000}";
},
{
horizontal = 1;
place = "{176.321429, 30.178571}";
},
{
horizontal = 1;
place = "{15.000000, 21.000000}";
},
{
horizontal = 1;
place = "{511.000000, -20.000000}";
}
);
layerId = "E777F328-EA17-4AE7-9EBA-8002E537BA4F";
name = Regular;
paths = (
{
closed = 1;
nodes = (
"182 248 LINE",
"182 0 LINE",
"302 0 LINE",
"302 248 LINE"
);
},
{
closed = 1;
nodes = (
"294 211 LINE",
"113 613 LINE",
"-7 613 LINE",
"182 211 LINE"
);
},
{
closed = 1;
nodes = (
"302 211 LINE",
"491 613 LINE",
"421 613 LINE",
"233 211 LINE"
);
}
);
width = 485;
},
{
anchors = (
{
name = top;
position = "{252, 613}";
}
);
hints = (
{
place = "{145.000000, 130.000000}";
},
{
horizontal = 1;
place = "{174.714286, 39.285714}";
},
{
horizontal = 1;
place = "{15.000000, 21.000000}";
},
{
horizontal = 1;
place = "{511.000000, -20.000000}";
}
);
layerId = "39185045-6A8C-415A-8312-7B8F11386A4C";
name = Bold;
paths = (
{
closed = 1;
nodes = (
"174 257 LINE",
"174 0 LINE",
"330 0 LINE",
"330 257 LINE"
);
},
{
closed = 1;
nodes = (
"317 211 LINE",
"139 613 LINE",
"-16 613 LINE",
"174 210 LINE"
);
},
{
closed = 1;
nodes = (
"329 210 LINE",
"518 613 LINE",
"427 613 LINE",
"239 211 LINE"
);
}
);
width = 503;
}
);
leftKerningGroup = Y;
rightKerningGroup = Y;
unicode = 0059;
},
{
glyphname = Z;
lastChange = "2015-05-11 17:51:26 +0000";
layers = (
{
anchors = (
{
name = top;
position = "{236, 613}";
}
);
hints = (
{
horizontal = 1;
place = "{0.000000, 76.714286}";
},
{
horizontal = 1;
place = "{434.285714, 76.714286}";
}
);
layerId = "E777F328-EA17-4AE7-9EBA-8002E537BA4F";
name = Regular;
paths = (
{
closed = 1;
nodes = (
"35 554 LINE",
"356 554 LINE",
"332 566 LINE",
"18 76 LINE",
"18 0 LINE",
"456 0 LINE",
"456 59 LINE",
"109 59 LINE",
"133 47 LINE",
"448 538 LINE",
"448 613 LINE",
"35 613 LINE"
);
}
);
width = 474;
},
{
anchors = (
{
name = top;
position = "{241, 613}";
}
);
hints = (
{
horizontal = 1;
place = "{0.000000, 98.142857}";
},
{
horizontal = 1;
place = "{412.857143, 98.142857}";
}
);
layerId = "39185045-6A8C-415A-8312-7B8F11386A4C";
name = Bold;
paths = (
{
closed = 1;
nodes = (
"30 538 LINE",
"344 538 LINE",
"313 554 LINE",
"13 98 LINE",
"13 0 LINE",
"469 0 LINE",
"469 76 LINE",
"131 76 LINE",
"161 59 LINE",
"461 515 LINE",
"461 613 LINE",
"30 613 LINE"
);
}
);
width = 482;
}
);
unicode = 005A;
},
{
glyphname = a;
lastChange = "2015-05-11 17:51:26 +0000";
layers = (
{
anchors = (
{
name = ogonek;
position = "{491, 8}";
},
{
name = top;
position = "{264, 480}";
}
);
hints = (
{
horizontal = 1;
origin = "{0, 26}";
target = "{0, 2}";
},
{
horizontal = 1;
place = "{410.000000, -49.000000}";
},
{
origin = "{0, 11}";
target = "{0, 19}";
},
{
origin = "{0, 4}";
},
{
origin = "{0, 11}";
target = "{0, 18}";
}
);
layerId = "E777F328-EA17-4AE7-9EBA-8002E537BA4F";
name = Regular;
paths = (
{
closed = 1;
nodes = (
"238 -12 OFFCURVE",
"295 12 OFFCURVE",
"337 65 CURVE",
"372 0 LINE",
"449 0 LINE",
"449 325 LINE SMOOTH",
"449 436 OFFCURVE",
"383 492 OFFCURVE",
"256 492 CURVE",
"119 492 OFFCURVE",
"73 432 OFFCURVE",
"65 330 CURVE",
"164 319 LINE",
"168 396 OFFCURVE",
"193 433 OFFCURVE",
"254 433 CURVE",
"305 433 OFFCURVE",
"330 398 OFFCURVE",
"330 331 CURVE SMOOTH",
"330 282 LINE",
"230 265 LINE SMOOTH",
"109 244 OFFCURVE",
"44 202 OFFCURVE",
"44 115 CURVE SMOOTH",
"44 37 OFFCURVE",
"95 -12 OFFCURVE",
"178 -12 CURVE SMOOTH"
);
},
{
closed = 1;
nodes = (
"178 50 OFFCURVE",
"152 78 OFFCURVE",
"152 122 CURVE SMOOTH",
"152 175 OFFCURVE",
"184 205 OFFCURVE",
"246 218 CURVE SMOOTH",
"330 234 LINE",
"330 108 LINE",
"307 80 OFFCURVE",
"265 50 OFFCURVE",
"221 50 CURVE SMOOTH"
);
}
);
width = 517;
},
{
anchors = (
{
name = ogonek;
position = "{499, 8}";
},
{
name = top;
position = "{270, 480}";
}
);
hints = (
{
horizontal = 1;
origin = "{0, 26}";
target = "{1, 10}";
},
{
horizontal = 1;
place = "{410.000000, -64.000000}";
},
{
origin = "{0, 23}";
target = "{1, 10}";
},
{
origin = "{0, 3}";
target = "{0, 4}";
},
{
origin = "{0, 11}";
target = "{0, 20}";
}
);
layerId = "39185045-6A8C-415A-8312-7B8F11386A4C";
name = Bold;
paths = (
{
closed = 1;
nodes = (
"230 -12 OFFCURVE",
"282 6 OFFCURVE",
"324 55 CURVE",
"366 0 LINE",
"469 0 LINE",
"469 325 LINE SMOOTH",
"469 433 OFFCURVE",
"395 492 OFFCURVE",
"260 492 CURVE",
"118 492 OFFCURVE",
"70 433 OFFCURVE",
"60 324 CURVE",
"188 310 LINE",
"192 385 OFFCURVE",
"216 415 OFFCURVE",
"259 415 CURVE",
"295 415 OFFCURVE",
"314 386 OFFCURVE",
"314 336 CURVE SMOOTH",
"314 287 LINE",
"236 272 LINE SMOOTH",
"109 250 OFFCURVE",
"38 211 OFFCURVE",
"38 119 CURVE SMOOTH",
"38 40 OFFCURVE",
"92 -12 OFFCURVE",
"176 -12 CURVE SMOOTH"
);
},
{
closed = 1;
nodes = (
"198 68 OFFCURVE",
"178 91 OFFCURVE",
"178 127 CURVE SMOOTH",
"178 175 OFFCURVE",
"204 203 OFFCURVE",
"259 214 CURVE SMOOTH",
"314 224 LINE",
"314 108 LINE",
"298 89 OFFCURVE",
"268 68 OFFCURVE",
"234 68 CURVE SMOOTH"
);
}
);
width = 529;
}
);
leftKerningGroup = a;
unicode = 0061;
},
{
glyphname = ae;
lastChange = "2015-05-11 17:51:26 +0000";
layers = (
{
anchors = (
{
name = bottom;
position = "{520, 0}";
},
{
name = ogonek;
position = "{707, 8}";
},
{
name = top;
position = "{520, 480}";
}
);
hints = (
{
horizontal = 1;
origin = "{0, 25}";
target = "{0, 6}";
},
{
horizontal = 1;
place = "{48.964286, 52.642857}";
},
{
horizontal = 1;
origin = "{0, 19}";
},
{
horizontal = 1;
place = "{410.000000, -49.000000}";
},
{
horizontal = 1;
origin = "{0, 25}";
target = "{0, 6}";
},
{
origin = "{3, 12}";
target = "{0, 22}";
},
{
horizontal = 1;
place = "{3439.642857, 61.964286}";
},
{
place = "{513.000000, 95.000000}";
},
{
place = "{522.000000, 81.000000}";
},
{
origin = "{3, 12}";
target = "{0, 22}";
},
{
place = "{259.000000, 16.000000}";
},
{
origin = "{4, 0}";
},
{
origin = "{0, 3}";
}
);
layerId = "E777F328-EA17-4AE7-9EBA-8002E537BA4F";
name = Regular;
paths = (
{
closed = 1;
nodes = (
"671 -12 OFFCURVE",
"715 55 OFFCURVE",
"724 138 CURVE",
"626 142 LINE",
"624 90 OFFCURVE",
"601 47 OFFCURVE",
"532 47 CURVE SMOOTH",
"460 47 OFFCURVE",
"430 92 OFFCURVE",
"430 228 CURVE SMOOTH",
"430 374 OFFCURVE",
"451 433 OFFCURVE",
"523 433 CURVE SMOOTH",
"600 433 OFFCURVE",
"616 360 OFFCURVE",
"616 241 CURVE",
"730 241 LINE",
"730 367 OFFCURVE",
"695 492 OFFCURVE",
"524 492 CURVE SMOOTH",
"353 492 OFFCURVE",
"311 371 OFFCURVE",
"311 240 CURVE SMOOTH",
"311 77 OFFCURVE",
"367 -12 OFFCURVE",
"527 -12 CURVE SMOOTH"
);
},
{
closed = 1;
nodes = (
"178 50 OFFCURVE",
"152 78 OFFCURVE",
"152 122 CURVE SMOOTH",
"152 175 OFFCURVE",
"184 206 OFFCURVE",
"246 218 CURVE SMOOTH",
"330 233 LINE",
"330 108 LINE",
"307 80 OFFCURVE",
"265 50 OFFCURVE",
"221 50 CURVE SMOOTH"
);
},
{
closed = 1;
nodes = (
"242 -12 OFFCURVE",
"310 14 OFFCURVE",
"356 84 CURVE",
"424 84 LINE",
"424 325 LINE",
"330 324 LINE",
"330 282 LINE",
"230 265 LINE SMOOTH",
"109 244 OFFCURVE",
"44 202 OFFCURVE",
"44 115 CURVE SMOOTH",
"44 37 OFFCURVE",
"95 -12 OFFCURVE",
"178 -12 CURVE SMOOTH"
);
},
{
closed = 1;
nodes = (
"168 396 OFFCURVE",
"194 433 OFFCURVE",
"256 433 CURVE",
"301 433 OFFCURVE",
"326 400 OFFCURVE",
"330 338 CURVE",
"431 394 LINE",
"402 461 OFFCURVE",
"344 492 OFFCURVE",
"257 492 CURVE",
"119 492 OFFCURVE",
"73 432 OFFCURVE",
"65 330 CURVE",
"164 319 LINE"
);
},
{
closed = 1;
nodes = (
"730 228 LINE",
"730 241 LINE",
"725 287 LINE",
"356 287 LINE",
"356 228 LINE"
);
}
);
width = 773;
},
{
anchors = (
{
name = bottom;
position = "{510, 0}";
},
{
name = ogonek;
position = "{694, 8}";
},
{
name = top;
position = "{510, 480}";
}
);
hints = (
{
horizontal = 1;
origin = "{0, 25}";
target = "{2, 3}";
},
{
horizontal = 1;
place = "{29.142857, 79.428571}";
},
{
horizontal = 1;
origin = "{2, 7}";
target = "{3, 5}";
},
{
horizontal = 1;
place = "{410.000000, -64.000000}";
},
{
horizontal = 1;
origin = "{0, 25}";
target = "{2, 3}";
},
{
origin = "{3, 12}";
target = "{2, 7}";
},
{
horizontal = 1;
place = "{-12283.571429, 57.142857}";
},
{
origin = "{4, 2}";
target = "{0, 16}";
},
{
origin = "{0, 2}";
},
{
origin = "{3, 12}";
target = "{2, 7}";
},
{
origin = "{4, 3}";
},
{
origin = "{2, 4}";
target = "{0, 6}";
},
{
origin = "{4, 3}";
target = "{0, 6}";
}
);
layerId = "39185045-6A8C-415A-8312-7B8F11386A4C";
name = Bold;
paths = (
{
closed = 1;
nodes = (
"670 -12 OFFCURVE",
"715 53 OFFCURVE",
"724 137 CURVE",
"596 140 LINE",
"596 101 OFFCURVE",
"580 65 OFFCURVE",
"528 65 CURVE SMOOTH",
"478 65 OFFCURVE",
"449 94 OFFCURVE",
"449 221 CURVE SMOOTH",
"449 388 OFFCURVE",
"472 415 OFFCURVE",
"516 415 CURVE SMOOTH",
"566 415 OFFCURVE",
"581 358 OFFCURVE",
"581 235 CURVE",
"728 235 LINE",
"728 362 OFFCURVE",
"695 492 OFFCURVE",
"516 492 CURVE SMOOTH",
"337 492 OFFCURVE",
"294 371 OFFCURVE",
"294 240 CURVE SMOOTH",
"294 77 OFFCURVE",
"354 -12 OFFCURVE",
"520 -12 CURVE SMOOTH"
);
},
{
closed = 1;
nodes = (
"198 68 OFFCURVE",
"178 91 OFFCURVE",
"178 127 CURVE SMOOTH",
"178 175 OFFCURVE",
"204 203 OFFCURVE",
"259 214 CURVE SMOOTH",
"314 224 LINE",
"314 108 LINE",
"296 89 OFFCURVE",
"268 68 OFFCURVE",
"234 68 CURVE SMOOTH"
);
},
{
closed = 1;
nodes = (
"234 -12 OFFCURVE",
"298 5 OFFCURVE",
"346 76 CURVE",
"440 76 LINE",
"440 325 LINE",
"314 324 LINE",
"314 287 LINE",
"236 272 LINE SMOOTH",
"109 250 OFFCURVE",
"38 211 OFFCURVE",
"38 119 CURVE SMOOTH",
"38 40 OFFCURVE",
"92 -12 OFFCURVE",
"176 -12 CURVE SMOOTH"
);
},
{
closed = 1;
nodes = (
"192 385 OFFCURVE",
"216 415 OFFCURVE",
"259 415 CURVE",
"292 415 OFFCURVE",
"311 385 OFFCURVE",
"314 336 CURVE",
"446 397 LINE",
"415 461 OFFCURVE",
"353 492 OFFCURVE",
"260 492 CURVE",
"118 492 OFFCURVE",
"68 433 OFFCURVE",
"60 324 CURVE",
"188 310 LINE"
);
},
{
closed = 1;
nodes = (
"728 217 LINE",
"728 235 LINE",
"724 294 LINE",
"349 294 LINE",
"349 217 LINE"
);
}
);
width = 767;
}
);
leftKerningGroup = a;
leftMetricsKey = "=a";
rightMetricsKey = "=e";
unicode = 00E6;
},
{
glyphname = b;
lastChange = "2015-05-11 17:51:26 +0000";
layers = (
{
hints = (
{
horizontal = 1;
origin = "{1, 16}";
target = "{1, 13}";
},
{
horizontal = 1;
place = "{410.000000, -49.000000}";
},
{
origin = "{1, 12}";
target = "{1, 6}";
},
{
origin = "{1, 19}";
}
);
layerId = "E777F328-EA17-4AE7-9EBA-8002E537BA4F";
name = Regular;
paths = (
{
closed = 1;
nodes = (
"196 71 LINE",
"196 647 LINE",
"77 631 LINE",
"77 0 LINE",
"131 0 LINE"
);
},
{
closed = 1;
nodes = (
"134 374 LINE",
"176 414 OFFCURVE",
"222 433 OFFCURVE",
"270 433 CURVE SMOOTH",
"352 433 OFFCURVE",
"380 359 OFFCURVE",
"380 240 CURVE SMOOTH",
"380 131 OFFCURVE",
"353 55 OFFCURVE",
"270 55 CURVE SMOOTH",
"221 55 OFFCURVE",
"176 80 OFFCURVE",
"134 145 CURVE",
"120 89 LINE",
"152 43 OFFCURVE",
"214 -12 OFFCURVE",
"302 -12 CURVE SMOOTH",
"463 -12 OFFCURVE",
"499 110 OFFCURVE",
"499 240 CURVE SMOOTH",
"499 371 OFFCURVE",
"463 492 OFFCURVE",
"302 492 CURVE SMOOTH",
"232 492 OFFCURVE",
"166 457 OFFCURVE",
"120 421 CURVE"
);
}
);
width = 542;
},
{
hints = (
{
horizontal = 1;
origin = "{1, 16}";
target = "{1, 13}";
},
{
horizontal = 1;
origin = "{0, 2}";
target = "{1, 22}";
},
{
origin = "{0, 3}";
target = "{1, 9}";
},
{
origin = "{1, 6}";
target = "{1, 19}";
}
);
layerId = "39185045-6A8C-415A-8312-7B8F11386A4C";
name = Bold;
paths = (
{
closed = 1;
nodes = (
"223 71 LINE",
"223 647 LINE",
"68 626 LINE",
"68 0 LINE",
"140 0 LINE"
);
},
{
closed = 1;
nodes = (
"142 365 LINE",
"181 396 OFFCURVE",
"222 415 OFFCURVE",
"265 415 CURVE SMOOTH",
"337 415 OFFCURVE",
"360 353 OFFCURVE",
"360 240 CURVE SMOOTH",
"360 142 OFFCURVE",
"336 76 OFFCURVE",
"263 76 CURVE SMOOTH",
"218 76 OFFCURVE",
"178 106 OFFCURVE",
"139 169 CURVE",
"125 91 LINE",
"158 44 OFFCURVE",
"218 -12 OFFCURVE",
"311 -12 CURVE SMOOTH",
"478 -12 OFFCURVE",
"515 110 OFFCURVE",
"515 240 CURVE SMOOTH",
"515 371 OFFCURVE",
"478 492 OFFCURVE",
"311 492 CURVE SMOOTH",
"241 492 OFFCURVE",
"172 456 OFFCURVE",
"125 426 CURVE"
);
}
);
width = 553;
}
);
rightMetricsKey = "=o";
unicode = 0062;
},
{
glyphname = c;
lastChange = "2015-05-11 17:51:26 +0000";
layers = (
{
anchors = (
{
name = bottom;
position = "{239, 0}";
},
{
name = top;
position = "{240, 480}";
}
);
hints = (
{
horizontal = 1;
origin = "{0, 15}";
target = "{0, 22}";
},
{
horizontal = 1;
place = "{410.000000, -49.000000}";
},
{
origin = "{0, 12}";
target = "{0, 6}";
},
{
origin = "{0, 18}";
}
);
layerId = "E777F328-EA17-4AE7-9EBA-8002E537BA4F";
name = Regular;
paths = (
{
closed = 1;
nodes = (
"162 368 OFFCURVE",
"182 433 OFFCURVE",
"257 433 CURVE SMOOTH",
"316 433 OFFCURVE",
"341 394 OFFCURVE",
"343 311 CURVE",
"443 323 LINE",
"436 428 OFFCURVE",
"391 492 OFFCURVE",
"252 492 CURVE SMOOTH",
"77 492 OFFCURVE",
"43 374 OFFCURVE",
"43 240 CURVE SMOOTH",
"43 110 OFFCURVE",
"77 -12 OFFCURVE",
"252 -12 CURVE SMOOTH",
"392 -12 OFFCURVE",
"437 55 OFFCURVE",
"444 166 CURVE",
"343 170 LINE",
"341 88 OFFCURVE",
"316 47 OFFCURVE",
"257 47 CURVE SMOOTH",
"182 47 OFFCURVE",
"162 113 OFFCURVE",
"162 240 CURVE SMOOTH"
);
}
);
width = 487;
},
{
anchors = (
{
name = bottom;
position = "{244, 0}";
},
{
name = top;
position = "{241, 480}";
}
);
hints = (
{
horizontal = 1;
origin = "{0, 15}";
target = "{0, 22}";
},
{
horizontal = 1;
place = "{410.000000, -64.000000}";
},
{
origin = "{0, 12}";
target = "{0, 9}";
},
{
origin = "{0, 6}";
target = "{0, 18}";
}
);
layerId = "39185045-6A8C-415A-8312-7B8F11386A4C";
name = Bold;
paths = (
{
closed = 1;
nodes = (
"193 380 OFFCURVE",
"214 415 OFFCURVE",
"263 415 CURVE SMOOTH",
"301 415 OFFCURVE",
"324 383 OFFCURVE",
"326 298 CURVE",
"455 312 LINE",
"448 428 OFFCURVE",
"400 492 OFFCURVE",
"253 492 CURVE SMOOTH",
"71 492 OFFCURVE",
"38 376 OFFCURVE",
"38 240 CURVE SMOOTH",
"38 110 OFFCURVE",
"71 -12 OFFCURVE",
"253 -12 CURVE SMOOTH",
"402 -12 OFFCURVE",
"449 56 OFFCURVE",
"456 179 CURVE",
"326 184 LINE",
"324 100 OFFCURVE",
"301 65 OFFCURVE",
"263 65 CURVE SMOOTH",
"214 65 OFFCURVE",
"193 101 OFFCURVE",
"193 240 CURVE SMOOTH"
);
}
);
width = 494;
}
);
leftKerningGroup = c;
leftMetricsKey = "=o";
rightMetricsKey = "=o";
unicode = 0063;
},
{
glyphname = d;
lastChange = "2015-05-11 17:51:26 +0000";
layers = (
{
anchors = (
{
name = center;
position = "{278, 240}";
},
{
name = topright;
position = "{526, 480}";
}
);
hints = (
{
place = "{23.250000, 99.000000}";
},
{
place = "{276.285714, 99.000000}";
},
{
horizontal = 1;
place = "{-10.000000, 75.821429}";
},
{
horizontal = 1;
place = "{334.285714, 75.714286}";
},
{
horizontal = 1;
place = "{15.000000, 21.000000}";
},
{
horizontal = 1;
place = "{532.750000, -20.000000}";
}
);
layerId = "E777F328-EA17-4AE7-9EBA-8002E537BA4F";
name = Regular;
paths = (
{
closed = 1;
nodes = (
"390 0 LINE",
"466 0 LINE",
"466 647 LINE",
"347 631 LINE",
"347 72 LINE"
);
},
{
closed = 1;
nodes = (
"395 209 LINE",
"368 101 OFFCURVE",
"324 47 OFFCURVE",
"258 47 CURVE SMOOTH",
"194 47 OFFCURVE",
"162 109 OFFCURVE",
"162 233 CURVE SMOOTH",
"162 361 OFFCURVE",
"199 426 OFFCURVE",
"272 426 CURVE SMOOTH",
"326 426 OFFCURVE",
"370 396 OFFCURVE",
"409 335 CURVE",
"424 392 LINE",
"378 455 OFFCURVE",
"310 492 OFFCURVE",
"240 492 CURVE SMOOTH",
"109 492 OFFCURVE",
"43 406 OFFCURVE",
"43 233 CURVE SMOOTH",
"43 71 OFFCURVE",
"104 -12 OFFCURVE",
"224 -12 CURVE SMOOTH",
"306 -12 OFFCURVE",
"371 40 OFFCURVE",
"409 132 CURVE"
);
}
);
width = 542;
},
{
anchors = (
{
name = center;
position = "{288, 240}";
},
{
name = topright;
position = "{536, 480}";
}
);
hints = (
{
place = "{12.000000, 129.000000}";
},
{
place = "{254.857143, 129.000000}";
},
{
horizontal = 1;
place = "{-10.000000, 96.714286}";
},
{
horizontal = 1;
place = "{312.857143, 97.142857}";
},
{
horizontal = 1;
place = "{15.000000, 21.000000}";
},
{
horizontal = 1;
place = "{529.000000, -20.000000}";
}
);
layerId = "39185045-6A8C-415A-8312-7B8F11386A4C";
name = Bold;
paths = (
{
closed = 1;
nodes = (
"379 0 LINE",
"485 0 LINE",
"485 647 LINE",
"330 626 LINE",
"330 66 LINE"
);
},
{
closed = 1;
nodes = (
"389 250 LINE",
"366 125 OFFCURVE",
"326 65 OFFCURVE",
"264 65 CURVE SMOOTH",
"215 65 OFFCURVE",
"193 116 OFFCURVE",
"193 228 CURVE SMOOTH",
"193 348 OFFCURVE",
"224 404 OFFCURVE",
"290 404 CURVE SMOOTH",
"335 404 OFFCURVE",
"377 373 OFFCURVE",
"415 311 CURVE",
"430 391 LINE",
"379 455 OFFCURVE",
"312 492 OFFCURVE",
"242 492 CURVE SMOOTH",
"106 492 OFFCURVE",
"38 404 OFFCURVE",
"38 228 CURVE SMOOTH",
"38 70 OFFCURVE",
"100 -12 OFFCURVE",
"218 -12 CURVE SMOOTH",
"296 -12 OFFCURVE",
"364 43 OFFCURVE",
"406 139 CURVE"
);
}
);
width = 553;
}
);
leftKerningGroup = c;
leftMetricsKey = "=o";
unicode = 0064;
},
{
glyphname = eth;
lastChange = "2015-05-11 17:51:26 +0000";
layers = (
{
components = (
{
name = eslash;
transform = "{1, 0, 0, 1, 215, 227}";
}
);
hints = (
{
place = "{23.250000, 99.000000}";
},
{
place = "{294.142857, 96.107143}";
},
{
horizontal = 1;
place = "{-10.000000, 72.250000}";
},
{
horizontal = 1;
place = "{281.750000, 72.250000}";
},
{
horizontal = 1;
place = "{535.000000, -20.000000}";
}
);
layerId = "E777F328-EA17-4AE7-9EBA-8002E537BA4F";
name = Regular;
paths = (
{
closed = 1;
nodes = (
"433 -12 OFFCURVE",
"484 121 OFFCURVE",
"484 222 CURVE SMOOTH",
"484 469 OFFCURVE",
"362 600 OFFCURVE",
"288 667 CURVE",
"233 606 LINE",
"295 547 OFFCURVE",
"349 479 OFFCURVE",
"380 372 CURVE",
"354 412 OFFCURVE",
"305 425 OFFCURVE",
"264 425 CURVE SMOOTH",
"95 425 OFFCURVE",
"43 308 OFFCURVE",
"43 206 CURVE SMOOTH",
"43 104 OFFCURVE",
"94 -12 OFFCURVE",
"264 -12 CURVE SMOOTH"
);
},
{
closed = 1;
nodes = (
"187 36 OFFCURVE",
"162 118 OFFCURVE",
"162 206 CURVE SMOOTH",
"162 296 OFFCURVE",
"187 377 OFFCURVE",
"266 377 CURVE SMOOTH",
"356 377 OFFCURVE",
"373 288 OFFCURVE",
"373 206 CURVE SMOOTH",
"373 118 OFFCURVE",
"348 36 OFFCURVE",
"266 36 CURVE SMOOTH"
);
}
);
width = 535;
},
{
components = (
{
name = eslash;
transform = "{1, 0, 0, 1, 215, 227}";
}
);
hints = (
{
place = "{12.000000, 129.000000}";
},
{
place = "{268.428571, 125.571429}";
},
{
horizontal = 1;
place = "{-10.000000, 91.000000}";
},
{
horizontal = 1;
place = "{263.000000, 91.000000}";
},
{
horizontal = 1;
place = "{535.000000, -20.000000}";
}
);
layerId = "39185045-6A8C-415A-8312-7B8F11386A4C";
name = Bold;
paths = (
{
closed = 1;
nodes = (
"445 -12 OFFCURVE",
"497 128 OFFCURVE",
"497 227 CURVE SMOOTH",
"497 481 OFFCURVE",
"366 600 OFFCURVE",
"292 667 CURVE",
"218 587 LINE",
"280 533 OFFCURVE",
"331 478 OFFCURVE",
"365 394 CURVE",
"343 416 OFFCURVE",
"300 425 OFFCURVE",
"268 425 CURVE SMOOTH",
"94 425 OFFCURVE",
"38 308 OFFCURVE",
"38 206 CURVE SMOOTH",
"38 104 OFFCURVE",
"90 -12 OFFCURVE",
"268 -12 CURVE SMOOTH"
);
},
{
closed = 1;
nodes = (
"215 49 OFFCURVE",
"193 114 OFFCURVE",
"193 206 CURVE SMOOTH",
"193 299 OFFCURVE",
"216 364 OFFCURVE",
"271 364 CURVE SMOOTH",
"346 364 OFFCURVE",
"352 287 OFFCURVE",
"352 206 CURVE SMOOTH",
"352 114 OFFCURVE",
"331 49 OFFCURVE",
"271 49 CURVE SMOOTH"
);
}
);
width = 544;
}
);
leftMetricsKey = "=o";
rightMetricsKey = "=o+10";
unicode = 00F0;
},
{
glyphname = e;
lastChange = "2015-05-11 17:51:26 +0000";
layers = (
{
anchors = (
{
name = bottom;
position = "{250, 0}";
},
{
name = ogonek;
position = "{377, 8}";
},
{
name = top;
position = "{250, 480}";
}
);
hints = (
{
horizontal = 1;
origin = "{1, 25}";
target = "{1, 6}";
},
{
horizontal = 1;
origin = "{0, 4}";
},
{
horizontal = 1;
place = "{410.000000, -49.000000}";
},
{
origin = "{0, 4}";
target = "{0, 3}";
},
{
origin = "{0, 2}";
},
{
origin = "{0, 2}";
}
);
layerId = "E777F328-EA17-4AE7-9EBA-8002E537BA4F";
name = Regular;
paths = (
{
closed = 1;
nodes = (
"89 228 LINE",
"462 228 LINE",
"462 241 LINE",
"457 287 LINE",
"89 287 LINE"
);
},
{
closed = 1;
nodes = (
"403 -12 OFFCURVE",
"448 55 OFFCURVE",
"456 138 CURVE",
"358 142 LINE",
"355 90 OFFCURVE",
"334 47 OFFCURVE",
"264 47 CURVE SMOOTH",
"192 47 OFFCURVE",
"162 92 OFFCURVE",
"162 228 CURVE SMOOTH",
"162 374 OFFCURVE",
"184 433 OFFCURVE",
"256 433 CURVE SMOOTH",
"332 433 OFFCURVE",
"348 360 OFFCURVE",
"348 241 CURVE",
"462 241 LINE",
"462 367 OFFCURVE",
"427 492 OFFCURVE",
"257 492 CURVE SMOOTH",
"84 492 OFFCURVE",
"43 371 OFFCURVE",
"43 240 CURVE SMOOTH",
"43 77 OFFCURVE",
"100 -12 OFFCURVE",
"259 -12 CURVE SMOOTH"
);
}
);
width = 505;
},
{
anchors = (
{
name = bottom;
position = "{253, 0}";
},
{
name = ogonek;
position = "{386, 8}";
},
{
name = top;
position = "{253, 480}";
}
);
hints = (
{
horizontal = 1;
origin = "{1, 25}";
target = "{1, 6}";
},
{
horizontal = 1;
origin = "{1, 22}";
target = "{0, 4}";
},
{
horizontal = 1;
place = "{410.000000, -64.000000}";
},
{
origin = "{0, 4}";
target = "{1, 12}";
},
{
origin = "{1, 3}";
target = "{0, 2}";
},
{
origin = "{1, 2}";
target = "{0, 1}";
}
);
layerId = "39185045-6A8C-415A-8312-7B8F11386A4C";
name = Bold;
paths = (
{
closed = 1;
nodes = (
"94 217 LINE",
"473 217 LINE",
"473 235 LINE",
"469 294 LINE",
"94 294 LINE"
);
},
{
closed = 1;
nodes = (
"414 -12 OFFCURVE",
"460 53 OFFCURVE",
"468 137 CURVE",
"340 140 LINE",
"338 101 OFFCURVE",
"324 65 OFFCURVE",
"272 65 CURVE SMOOTH",
"222 65 OFFCURVE",
"193 94 OFFCURVE",
"193 221 CURVE SMOOTH",
"193 388 OFFCURVE",
"216 415 OFFCURVE",
"260 415 CURVE SMOOTH",
"311 415 OFFCURVE",
"325 358 OFFCURVE",
"325 235 CURVE",
"473 235 LINE",
"473 362 OFFCURVE",
"439 492 OFFCURVE",
"260 492 CURVE SMOOTH",
"80 492 OFFCURVE",
"38 371 OFFCURVE",
"38 240 CURVE SMOOTH",
"38 77 OFFCURVE",
"97 -12 OFFCURVE",
"264 -12 CURVE SMOOTH"
);
}
);
width = 511;
}
);
leftKerningGroup = c;
leftMetricsKey = "=o";
rightMetricsKey = "=o";
unicode = 0065;
},
{
glyphname = f;
lastChange = "2015-05-11 17:51:26 +0000";
layers = (
{
hints = (
{
place = "{72.142857, 99.000000}";
},
{
horizontal = 1;
place = "{336.428571, 63.571429}";
},
{
horizontal = 1;
place = "{464.714286, 78.285714}";
},
{
horizontal = 1;
place = "{15.000000, 21.000000}";
}
);
layerId = "E777F328-EA17-4AE7-9EBA-8002E537BA4F";
name = Regular;
paths = (
{
closed = 1;
nodes = (
"10 420 LINE",
"302 420 LINE",
"302 480 LINE",
"10 480 LINE"
);
},
{
closed = 1;
nodes = (
"374 625 LINE",
"334 647 OFFCURVE",
"294 660 OFFCURVE",
"251 660 CURVE SMOOTH",
"143 660 OFFCURVE",
"86 605 OFFCURVE",
"86 498 CURVE SMOOTH",
"86 0 LINE",
"205 0 LINE",
"205 527 LINE SMOOTH",
"205 563 OFFCURVE",
"224 590 OFFCURVE",
"260 590 CURVE SMOOTH",
"290 590 OFFCURVE",
"318 569 OFFCURVE",
"337 540 CURVE"
);
}
);
width = 296;
},
{
hints = (
{
place = "{61.428571, 129.000000}";
},
{
horizontal = 1;
place = "{319.285714, 80.714286}";
},
{
horizontal = 1;
place = "{441.142857, 101.857143}";
},
{
horizontal = 1;
place = "{15.000000, 21.000000}";
}
);
layerId = "39185045-6A8C-415A-8312-7B8F11386A4C";
name = Bold;
paths = (
{
closed = 1;
nodes = (
"1 402 LINE",
"317 402 LINE",
"317 480 LINE",
"1 480 LINE"
);
},
{
closed = 1;
nodes = (
"391 630 LINE",
"346 650 OFFCURVE",
"301 660 OFFCURVE",
"262 660 CURVE SMOOTH",
"131 660 OFFCURVE",
"73 598 OFFCURVE",
"73 482 CURVE SMOOTH",
"73 0 LINE",
"228 0 LINE",
"228 515 LINE SMOOTH",
"228 542 OFFCURVE",
"242 568 OFFCURVE",
"275 568 CURVE SMOOTH",
"302 568 OFFCURVE",
"328 550 OFFCURVE",
"347 520 CURVE"
);
}
);
width = 307;
}
);
unicode = 0066;
},
{
glyphname = g;
lastChange = "2015-05-11 17:51:26 +0000";
layers = (
{
anchors = (
{
name = top;
position = "{264, 480}";
}
);
hints = (
{
place = "{14.500000, 87.071429}";
},
{
place = "{42.500000, 94.428571}";
},
{
place = "{268.321429, 94.428571}";
},
{
place = "{292.535714, 97.464286}";
},
{
horizontal = 1;
place = "{-150.035714, 74.035714}";
},
{
horizontal = 1;
place = "{0.000000, 70.464286}";
},
{
horizontal = 1;
place = "{116.500000, 65.571429}";
},
{
horizontal = 1;
place = "{345.321429, 55.571429}";
},
{
horizontal = 1;
place = "{345.321429, 65.571429}";
}
);
layerId = "E777F328-EA17-4AE7-9EBA-8002E537BA4F";
name = Regular;
paths = (
{
closed = 1;
nodes = (
"365 -203 OFFCURVE",
"480 -176 OFFCURVE",
"480 -66 CURVE SMOOTH",
"480 2 OFFCURVE",
"427 56 OFFCURVE",
"334 56 CURVE SMOOTH",
"149 56 LINE SMOOTH",
"122 56 OFFCURVE",
"110 74 OFFCURVE",
"110 90 CURVE SMOOTH",
"110 102 OFFCURVE",
"116 118 OFFCURVE",
"133 133 CURVE SMOOTH",
"186 184 LINE",
"136 216 LINE",
"80 162 LINE SMOOTH",
"48 131 OFFCURVE",
"42 107 OFFCURVE",
"42 80 CURVE SMOOTH",
"42 42 OFFCURVE",
"66 16 OFFCURVE",
"100 5 CURVE",
"62 -10 OFFCURVE",
"34 -47 OFFCURVE",
"34 -83 CURVE SMOOTH",
"34 -175 OFFCURVE",
"125 -203 OFFCURVE",
"247 -203 CURVE SMOOTH"
);
},
{
closed = 1;
nodes = (
"137 -124 OFFCURVE",
"137 -78 CURVE SMOOTH",
"137 -47 OFFCURVE",
"152 -18 OFFCURVE",
"174 0 CURVE",
"296 0 LINE SMOOTH",
"344 0 OFFCURVE",
"378 -25 OFFCURVE",
"378 -66 CURVE SMOOTH",
"378 -122 OFFCURVE",
"342 -144 OFFCURVE",
"247 -144 CURVE SMOOTH",
"175 -144 OFFCURVE"
);
},
{
closed = 1;
nodes = (
"415 133 OFFCURVE",
"451 233 OFFCURVE",
"451 316 CURVE SMOOTH",
"451 397 OFFCURVE",
"415 492 OFFCURVE",
"258 492 CURVE SMOOTH",
"102 492 OFFCURVE",
"66 397 OFFCURVE",
"66 316 CURVE SMOOTH",
"66 233 OFFCURVE",
"102 142 OFFCURVE",
"258 138 CURVE SMOOTH"
);
},
{
closed = 1;
nodes = (
"180 238 OFFCURVE",
"180 316 CURVE SMOOTH",
"180 392 OFFCURVE",
"199 434 OFFCURVE",
"258 434 CURVE SMOOTH",
"319 434 OFFCURVE",
"338 392 OFFCURVE",
"338 316 CURVE SMOOTH",
"338 238 OFFCURVE",
"319 196 OFFCURVE",
"258 196 CURVE SMOOTH",
"199 196 OFFCURVE"
);
},
{
closed = 1;
nodes = (
"484 432 LINE",
"484 480 LINE",
"326 480 LINE",
"328 432 LINE"
);
}
);
width = 518;
},
{
anchors = (
{
name = top;
position = "{270, 480}";
}
);
hints = (
{
place = "{7.000000, 111.714286}";
},
{
place = "{35.000000, 122.285714}";
},
{
place = "{251.714286, 122.285714}";
},
{
place = "{274.857143, 130.142857}";
},
{
horizontal = 1;
place = "{-139.857143, 93.857143}";
},
{
horizontal = 1;
place = "{0.000000, 88.142857}";
},
{
horizontal = 1;
place = "{109.000000, 82.714286}";
},
{
horizontal = 1;
place = "{328.714286, 72.714286}";
},
{
horizontal = 1;
place = "{328.714286, 82.714286}";
}
);
layerId = "39185045-6A8C-415A-8312-7B8F11386A4C";
name = Bold;
paths = (
{
closed = 1;
nodes = (
"378 -203 OFFCURVE",
"498 -169 OFFCURVE",
"498 -61 CURVE SMOOTH",
"498 16 OFFCURVE",
"439 74 OFFCURVE",
"336 74 CURVE SMOOTH",
"155 74 LINE SMOOTH",
"136 74 OFFCURVE",
"127 85 OFFCURVE",
"127 96 CURVE SMOOTH",
"127 103 OFFCURVE",
"130 115 OFFCURVE",
"148 131 CURVE SMOOTH",
"206 188 LINE",
"140 224 LINE",
"80 167 LINE SMOOTH",
"44 132 OFFCURVE",
"40 112 OFFCURVE",
"40 82 CURVE SMOOTH",
"40 37 OFFCURVE",
"68 12 OFFCURVE",
"100 4 CURVE",
"62 -5 OFFCURVE",
"29 -44 OFFCURVE",
"29 -82 CURVE SMOOTH",
"29 -173 OFFCURVE",
"125 -203 OFFCURVE",
"253 -203 CURVE SMOOTH"
);
},
{
closed = 1;
nodes = (
"163 -103 OFFCURVE",
"163 -73 CURVE SMOOTH",
"163 -44 OFFCURVE",
"179 -18 OFFCURVE",
"198 0 CURVE",
"287 0 LINE SMOOTH",
"341 0 OFFCURVE",
"364 -30 OFFCURVE",
"364 -61 CURVE SMOOTH",
"364 -101 OFFCURVE",
"341 -126 OFFCURVE",
"253 -126 CURVE SMOOTH",
"187 -126 OFFCURVE"
);
},
{
closed = 1;
nodes = (
"431 131 OFFCURVE",
"468 233 OFFCURVE",
"468 316 CURVE SMOOTH",
"468 397 OFFCURVE",
"431 492 OFFCURVE",
"264 492 CURVE SMOOTH",
"100 492 OFFCURVE",
"64 397 OFFCURVE",
"64 316 CURVE SMOOTH",
"64 233 OFFCURVE",
"100 143 OFFCURVE",
"264 138 CURVE SMOOTH"
);
},
{
closed = 1;
nodes = (
"211 238 OFFCURVE",
"211 316 CURVE SMOOTH",
"211 392 OFFCURVE",
"227 416 OFFCURVE",
"265 416 CURVE SMOOTH",
"305 416 OFFCURVE",
"322 392 OFFCURVE",
"322 316 CURVE SMOOTH",
"322 238 OFFCURVE",
"305 214 OFFCURVE",
"265 214 CURVE SMOOTH",
"227 214 OFFCURVE"
);
},
{
closed = 1;
nodes = (
"506 421 LINE",
"506 480 LINE",
"332 480 LINE",
"329 421 LINE"
);
}
);
width = 532;
}
);
leftKerningGroup = c;
unicode = 0067;
},
{
glyphname = h;
lastChange = "2015-05-11 17:51:27 +0000";
layers = (
{
anchors = (
{
name = center;
position = "{278, 240}";
},
{
name = top;
position = "{138, 613}";
}
);
hints = (
{
place = "{64.500000, 99.000000}";
},
{
place = "{308.428571, 99.000000}";
},
{
horizontal = 1;
place = "{334.178571, 75.821429}";
},
{
horizontal = 1;
place = "{532.750000, -20.000000}";
},
{
horizontal = 1;
place = "{15.000000, 21.000000}";
}
);
layerId = "E777F328-EA17-4AE7-9EBA-8002E537BA4F";
name = Regular;
paths = (
{
closed = 1;
nodes = (
"196 647 LINE",
"77 631 LINE SMOOTH",
"77 0 LINE",
"196 0 LINE"
);
},
{
closed = 1;
nodes = (
"151 348 LINE",
"186 383 OFFCURVE",
"234 425 OFFCURVE",
"301 425 CURVE SMOOTH",
"353 425 OFFCURVE",
"371 392 OFFCURVE",
"371 326 CURVE SMOOTH",
"371 0 LINE",
"490 0 LINE",
"490 338 LINE SMOOTH",
"490 428 OFFCURVE",
"445 492 OFFCURVE",
"335 492 CURVE SMOOTH",
"251 492 OFFCURVE",
"169 437 OFFCURVE",
"134 396 CURVE"
);
}
);
width = 558;
},
{
anchors = (
{
name = center;
position = "{282, 240}";
},
{
name = top;
position = "{146, 613}";
}
);
hints = (
{
place = "{57.000000, 129.000000}";
},
{
place = "{291.285714, 129.000000}";
},
{
horizontal = 1;
place = "{313.285714, 96.714286}";
},
{
horizontal = 1;
place = "{529.000000, -20.000000}";
},
{
horizontal = 1;
place = "{15.000000, 21.000000}";
}
);
layerId = "39185045-6A8C-415A-8312-7B8F11386A4C";
name = Bold;
paths = (
{
closed = 1;
nodes = (
"223 647 LINE",
"68 626 LINE SMOOTH",
"68 0 LINE",
"223 0 LINE"
);
},
{
closed = 1;
nodes = (
"162 330 LINE",
"187 354 OFFCURVE",
"230 404 OFFCURVE",
"298 404 CURVE SMOOTH",
"342 404 OFFCURVE",
"350 376 OFFCURVE",
"350 316 CURVE SMOOTH",
"350 0 LINE",
"505 0 LINE",
"505 337 LINE SMOOTH",
"505 419 OFFCURVE",
"462 492 OFFCURVE",
"347 492 CURVE SMOOTH",
"263 492 OFFCURVE",
"174 434 OFFCURVE",
"143 396 CURVE"
);
}
);
width = 564;
}
);
unicode = 0068;
},
{
glyphname = i;
lastChange = "2015-05-11 17:51:26 +0000";
layers = (
{
hints = (
{
place = "{58.500000, 112.000000}";
},
{
horizontal = 1;
place = "{15.000000, 21.000000}";
},
{
horizontal = 1;
place = "{400.000000, -20.000000}";
},
{
horizontal = 1;
place = "{567.892857, -20.000000}";
}
);
layerId = "E777F328-EA17-4AE7-9EBA-8002E537BA4F";
name = Regular;
paths = (
{
closed = 1;
nodes = (
"76 480 LINE",
"76 0 LINE",
"194 0 LINE",
"194 480 LINE"
);
},
{
closed = 1;
nodes = (
"175 536 OFFCURVE",
"208 568 OFFCURVE",
"208 607 CURVE SMOOTH",
"208 648 OFFCURVE",
"175 680 OFFCURVE",
"136 680 CURVE SMOOTH",
"96 680 OFFCURVE",
"64 648 OFFCURVE",
"64 607 CURVE SMOOTH",
"64 569 OFFCURVE",
"96 536 OFFCURVE",
"136 536 CURVE SMOOTH"
);
}
);
width = 272;
},
{
hints = (
{
place = "{51.000000, 142.000000}";
},
{
horizontal = 1;
place = "{15.000000, 21.000000}";
},
{
horizontal = 1;
place = "{400.000000, -20.000000}";
},
{
horizontal = 1;
place = "{583.428571, -20.000000}";
}
);
layerId = "39185045-6A8C-415A-8312-7B8F11386A4C";
name = Bold;
paths = (
{
closed = 1;
nodes = (
"67 480 LINE",
"67 0 LINE",
"222 0 LINE",
"222 480 LINE"
);
},
{
closed = 1;
nodes = (
"194 522 OFFCURVE",
"235 560 OFFCURVE",
"235 612 CURVE SMOOTH",
"235 664 OFFCURVE",
"194 704 OFFCURVE",
"144 704 CURVE SMOOTH",
"94 704 OFFCURVE",
"53 664 OFFCURVE",
"53 612 CURVE SMOOTH",
"53 563 OFFCURVE",
"94 522 OFFCURVE",
"144 522 CURVE SMOOTH"
);
}
);
width = 290;
}
);
unicode = 0069;
},
{
glyphname = dotlessi;
lastChange = "2015-05-11 17:51:26 +0000";
layers = (
{
anchors = (
{
name = ogonek;
position = "{240, 8}";
},
{
name = top;
position = "{137, 480}";
}
);
hints = (
{
place = "{64.500000, 99.000000}";
},
{
horizontal = 1;
place = "{400.000000, -20.000000}";
},
{
horizontal = 1;
place = "{15.000000, 21.000000}";
}
);
layerId = "E777F328-EA17-4AE7-9EBA-8002E537BA4F";
name = Regular;
paths = (
{
closed = 1;
nodes = (
"77 480 LINE",
"77 0 LINE",
"196 0 LINE",
"196 480 LINE"
);
}
);
width = 274;
},
{
anchors = (
{
name = ogonek;
position = "{253, 8}";
},
{
name = top;
position = "{145, 480}";
}
);
hints = (
{
place = "{57.000000, 129.000000}";
},
{
horizontal = 1;
place = "{400.000000, -20.000000}";
},
{
horizontal = 1;
place = "{15.000000, 21.000000}";
}
);
layerId = "39185045-6A8C-415A-8312-7B8F11386A4C";
name = Bold;
paths = (
{
closed = 1;
nodes = (
"68 480 LINE",
"68 0 LINE",
"223 0 LINE",
"223 480 LINE"
);
}
);
width = 292;
}
);
unicode = 0131;
},
{
glyphname = j;
lastChange = "2015-05-11 17:51:26 +0000";
layers = (
{
hints = (
{
place = "{58.500000, 112.000000}";
},
{
horizontal = 1;
place = "{-145.035714, 78.285714}";
},
{
horizontal = 1;
place = "{400.000000, -20.000000}";
},
{
horizontal = 1;
place = "{558.071429, -20.000000}";
}
);
layerId = "E777F328-EA17-4AE7-9EBA-8002E537BA4F";
name = Regular;
paths = (
{
closed = 1;
nodes = (
"-92 -169 LINE",
"-52 -190 OFFCURVE",
"-12 -203 OFFCURVE",
"31 -203 CURVE SMOOTH",
"139 -203 OFFCURVE",
"196 -149 OFFCURVE",
"196 -42 CURVE SMOOTH",
"196 480 LINE",
"77 480 LINE",
"77 -62 LINE SMOOTH",
"77 -103 OFFCURVE",
"58 -134 OFFCURVE",
"23 -134 CURVE SMOOTH",
"-12 -134 OFFCURVE",
"-36 -113 OFFCURVE",
"-55 -84 CURVE"
);
},
{
closed = 1;
nodes = (
"175 536 OFFCURVE",
"208 568 OFFCURVE",
"208 607 CURVE SMOOTH",
"208 648 OFFCURVE",
"175 680 OFFCURVE",
"136 680 CURVE SMOOTH",
"96 680 OFFCURVE",
"64 648 OFFCURVE",
"64 607 CURVE SMOOTH",
"64 569 OFFCURVE",
"96 536 OFFCURVE",
"136 536 CURVE SMOOTH"
);
}
);
width = 274;
},
{
hints = (
{
place = "{51.000000, 142.000000}";
},
{
horizontal = 1;
place = "{-134.857143, 101.857143}";
},
{
horizontal = 1;
place = "{400.000000, -20.000000}";
},
{
horizontal = 1;
place = "{567.714286, -20.000000}";
}
);
layerId = "39185045-6A8C-415A-8312-7B8F11386A4C";
name = Bold;
paths = (
{
closed = 1;
nodes = (
"-95 -174 LINE",
"-48 -193 OFFCURVE",
"-4 -203 OFFCURVE",
"35 -203 CURVE SMOOTH",
"166 -203 OFFCURVE",
"223 -142 OFFCURVE",
"223 -26 CURVE SMOOTH",
"223 480 LINE",
"68 480 LINE",
"68 -46 LINE SMOOTH",
"68 -80 OFFCURVE",
"54 -112 OFFCURVE",
"24 -112 CURVE SMOOTH",
"-13 -112 OFFCURVE",
"-31 -94 OFFCURVE",
"-50 -62 CURVE"
);
},
{
closed = 1;
nodes = (
"194 522 OFFCURVE",
"235 560 OFFCURVE",
"235 612 CURVE SMOOTH",
"235 664 OFFCURVE",
"194 704 OFFCURVE",
"144 704 CURVE SMOOTH",
"94 704 OFFCURVE",
"53 664 OFFCURVE",
"53 612 CURVE SMOOTH",
"53 563 OFFCURVE",
"94 522 OFFCURVE",
"144 522 CURVE SMOOTH"
);
}
);
width = 292;
}
);
unicode = 006A;
},
{
glyphname = dotlessj;
lastChange = "2015-05-11 17:51:26 +0000";
layers = (
{
anchors = (
{
name = top;
position = "{137, 480}";
}
);
hints = (
{
place = "{58.500000, 112.000000}";
},
{
horizontal = 1;
place = "{-145.035714, 78.285714}";
},
{
horizontal = 1;
place = "{400.000000, -20.000000}";
},
{
horizontal = 1;
place = "{558.071429, -20.000000}";
},
{
place = "{58.500000, 112.000000}";
},
{
horizontal = 1;
place = "{-145.035714, 78.285714}";
},
{
horizontal = 1;
place = "{400.000000, -20.000000}";
},
{
horizontal = 1;
place = "{558.071429, -20.000000}";
}
);
layerId = "E777F328-EA17-4AE7-9EBA-8002E537BA4F";
name = Regular;
paths = (
{
closed = 1;
nodes = (
"-92 -169 LINE",
"-52 -190 OFFCURVE",
"-12 -203 OFFCURVE",
"31 -203 CURVE SMOOTH",
"139 -203 OFFCURVE",
"196 -149 OFFCURVE",
"196 -42 CURVE SMOOTH",
"196 480 LINE",
"77 480 LINE",
"77 -62 LINE SMOOTH",
"77 -103 OFFCURVE",
"58 -134 OFFCURVE",
"23 -134 CURVE SMOOTH",
"-12 -134 OFFCURVE",
"-36 -113 OFFCURVE",
"-55 -84 CURVE"
);
}
);
width = 274;
},
{
anchors = (
{
name = top;
position = "{145, 480}";
}
);
hints = (
{
place = "{51.000000, 142.000000}";
},
{
horizontal = 1;
place = "{-134.857143, 101.857143}";
},
{
horizontal = 1;
place = "{400.000000, -20.000000}";
},
{
horizontal = 1;
place = "{567.714286, -20.000000}";
},
{
place = "{51.000000, 142.000000}";
},
{
horizontal = 1;
place = "{-134.857143, 101.857143}";
},
{
horizontal = 1;
place = "{400.000000, -20.000000}";
},
{
horizontal = 1;
place = "{567.714286, -20.000000}";
}
);
layerId = "39185045-6A8C-415A-8312-7B8F11386A4C";
name = Bold;
paths = (
{
closed = 1;
nodes = (
"-95 -174 LINE",
"-48 -193 OFFCURVE",
"-4 -203 OFFCURVE",
"35 -203 CURVE SMOOTH",
"166 -203 OFFCURVE",
"223 -142 OFFCURVE",
"223 -26 CURVE SMOOTH",
"223 480 LINE",
"68 480 LINE",
"68 -46 LINE SMOOTH",
"68 -80 OFFCURVE",
"54 -112 OFFCURVE",
"24 -112 CURVE SMOOTH",
"-13 -112 OFFCURVE",
"-31 -94 OFFCURVE",
"-50 -62 CURVE"
);
}
);
width = 292;
}
);
unicode = 0237;
},
{
glyphname = k;
lastChange = "2015-05-11 17:51:26 +0000";
layers = (
{
anchors = (
{
name = bottom;
position = "{265, 0}";
}
);
hints = (
{
place = "{64.500000, 99.000000}";
},
{
horizontal = 1;
place = "{182.714286, 30.285714}";
},
{
horizontal = 1;
place = "{182.714286, 66.571429}";
},
{
horizontal = 1;
place = "{15.000000, 21.000000}";
},
{
horizontal = 1;
place = "{532.750000, -20.000000}";
},
{
horizontal = 1;
place = "{400.000000, -20.000000}";
}
);
layerId = "E777F328-EA17-4AE7-9EBA-8002E537BA4F";
name = Regular;
paths = (
{
closed = 1;
nodes = (
"196 0 LINE",
"196 647 LINE",
"77 631 LINE",
"77 0 LINE"
);
},
{
closed = 1;
nodes = (
"404 480 LINE",
"130 185 LINE",
"196 185 LINE",
"472 480 LINE"
);
},
{
closed = 1;
nodes = (
"487 0 LINE",
"282 305 LINE",
"210 228 LINE",
"359 0 LINE"
);
}
);
width = 493;
},
{
anchors = (
{
name = bottom;
position = "{276, 0}";
}
);
hints = (
{
place = "{57.000000, 129.000000}";
},
{
horizontal = 1;
place = "{174.142857, 38.857143}";
},
{
horizontal = 1;
place = "{174.142857, 83.714286}";
},
{
horizontal = 1;
place = "{15.000000, 21.000000}";
},
{
horizontal = 1;
place = "{529.000000, -20.000000}";
},
{
horizontal = 1;
place = "{400.000000, -20.000000}";
}
);
layerId = "39185045-6A8C-415A-8312-7B8F11386A4C";
name = Bold;
paths = (
{
closed = 1;
nodes = (
"223 0 LINE",
"223 647 LINE",
"68 626 LINE",
"68 0 LINE"
);
},
{
closed = 1;
nodes = (
"409 480 LINE",
"139 185 LINE",
"223 185 LINE",
"497 480 LINE"
);
},
{
closed = 1;
nodes = (
"511 0 LINE",
"307 305 LINE",
"216 205 LINE",
"346 0 LINE"
);
}
);
width = 511;
}
);
unicode = 006B;
},
{
glyphname = kgreenlandic;
lastChange = "2015-05-11 17:51:26 +0000";
layers = (
{
hints = (
{
place = "{64.500000, 99.000000}";
},
{
horizontal = 1;
place = "{182.714286, 30.285714}";
},
{
horizontal = 1;
place = "{182.714286, 66.571429}";
},
{
horizontal = 1;
place = "{15.000000, 21.000000}";
},
{
horizontal = 1;
place = "{532.750000, -20.000000}";
},
{
horizontal = 1;
place = "{400.000000, -20.000000}";
}
);
layerId = "E777F328-EA17-4AE7-9EBA-8002E537BA4F";
name = Regular;
paths = (
{
closed = 1;
nodes = (
"196 0 LINE",
"196 480 LINE",
"77 480 LINE",
"77 0 LINE"
);
},
{
closed = 1;
nodes = (
"120 220 LINE",
"268 220 LINE",
"268 299 LINE",
"120 299 LINE"
);
},
{
closed = 1;
nodes = (
"352 480 LINE",
"209 274 LINE",
"301 227 LINE",
"481 480 LINE"
);
},
{
closed = 1;
nodes = (
"494 0 LINE",
"314 257 LINE",
"190 257 LINE",
"366 0 LINE"
);
}
);
width = 487;
},
{
hints = (
{
place = "{57.000000, 129.000000}";
},
{
horizontal = 1;
place = "{174.142857, 38.857143}";
},
{
horizontal = 1;
place = "{174.142857, 83.714286}";
},
{
horizontal = 1;
place = "{15.000000, 21.000000}";
},
{
horizontal = 1;
place = "{529.000000, -20.000000}";
},
{
horizontal = 1;
place = "{400.000000, -20.000000}";
}
);
layerId = "39185045-6A8C-415A-8312-7B8F11386A4C";
name = Bold;
paths = (
{
closed = 1;
nodes = (
"223 0 LINE",
"223 480 LINE",
"68 480 LINE",
"68 0 LINE"
);
},
{
closed = 1;
nodes = (
"120 209 LINE",
"278 209 LINE",
"278 310 LINE",
"120 310 LINE"
);
},
{
closed = 1;
nodes = (
"342 480 LINE",
"204 278 LINE",
"323 217 LINE",
"509 480 LINE"
);
},
{
closed = 1;
nodes = (
"523 0 LINE",
"342 257 LINE",
"181 257 LINE",
"358 0 LINE"
);
}
);
width = 511;
}
);
unicode = 0138;
},
{
glyphname = l;
lastChange = "2015-05-11 17:51:26 +0000";
layers = (
{
anchors = (
{
name = bottom;
position = "{137, 0}";
},
{
name = top;
position = "{137, 613}";
},
{
name = topright;
position = "{257, 480}";
}
);
hints = (
{
place = "{64.500000, 99.000000}";
},
{
horizontal = 1;
place = "{15.000000, 21.000000}";
},
{
horizontal = 1;
place = "{539.000000, -20.000000}";
}
);
layerId = "E777F328-EA17-4AE7-9EBA-8002E537BA4F";
name = Regular;
paths = (
{
closed = 1;
nodes = (
"77 631 LINE",
"77 0 LINE",
"196 0 LINE",
"196 647 LINE"
);
}
);
width = 274;
},
{
anchors = (
{
name = bottom;
position = "{145, 0}";
},
{
name = top;
position = "{145, 613}";
},
{
name = topright;
position = "{275, 480}";
}
);
hints = (
{
place = "{57.000000, 129.000000}";
},
{
horizontal = 1;
place = "{15.000000, 21.000000}";
},
{
horizontal = 1;
place = "{539.000000, -20.000000}";
}
);
layerId = "39185045-6A8C-415A-8312-7B8F11386A4C";
name = Bold;
paths = (
{
closed = 1;
nodes = (
"68 626 LINE",
"68 0 LINE",
"223 0 LINE",
"223 647 LINE"
);
}
);
width = 292;
}
);
unicode = 006C;
},
{
glyphname = m;
lastChange = "2015-05-11 17:51:27 +0000";
layers = (
{
hints = (
{
place = "{64.500000, 99.000000}";
},
{
place = "{304.250000, 99.000000}";
},
{
place = "{543.000000, 99.000000}";
},
{
horizontal = 1;
place = "{334.178571, 75.821429}";
},
{
horizontal = 1;
place = "{15.000000, 21.000000}";
},
{
horizontal = 1;
place = "{400.000000, -20.000000}";
}
);
layerId = "E777F328-EA17-4AE7-9EBA-8002E537BA4F";
name = Regular;
paths = (
{
closed = 1;
nodes = (
"130 480 LINE",
"77 480 LINE",
"77 0 LINE",
"196 0 LINE",
"196 409 LINE"
);
},
{
closed = 1;
nodes = (
"151 350 LINE",
"184 385 OFFCURVE",
"222 425 OFFCURVE",
"289 425 CURVE SMOOTH",
"340 425 OFFCURVE",
"366 397 OFFCURVE",
"366 341 CURVE SMOOTH",
"366 0 LINE",
"485 0 LINE",
"485 338 LINE SMOOTH",
"485 428 OFFCURVE",
"439 492 OFFCURVE",
"329 492 CURVE SMOOTH",
"245 492 OFFCURVE",
"167 437 OFFCURVE",
"134 396 CURVE"
);
},
{
closed = 1;
nodes = (
"438 350 LINE",
"469 385 OFFCURVE",
"509 425 OFFCURVE",
"576 425 CURVE SMOOTH",
"626 425 OFFCURVE",
"652 397 OFFCURVE",
"652 341 CURVE SMOOTH",
"652 0 LINE",
"770 0 LINE",
"770 338 LINE SMOOTH",
"770 428 OFFCURVE",
"725 492 OFFCURVE",
"616 492 CURVE SMOOTH",
"532 492 OFFCURVE",
"454 437 OFFCURVE",
"421 396 CURVE"
);
}
);
width = 840;
},
{
hints = (
{
place = "{57.000000, 129.000000}";
},
{
place = "{293.000000, 129.000000}";
},
{
place = "{528.000000, 129.000000}";
},
{
horizontal = 1;
place = "{313.285714, 96.714286}";
},
{
horizontal = 1;
place = "{15.000000, 21.000000}";
},
{
horizontal = 1;
place = "{400.000000, -20.000000}";
}
);
layerId = "39185045-6A8C-415A-8312-7B8F11386A4C";
name = Bold;
paths = (
{
closed = 1;
nodes = (
"138 480 LINE",
"68 480 LINE",
"68 0 LINE",
"223 0 LINE",
"223 409 LINE"
);
},
{
closed = 1;
nodes = (
"162 334 LINE",
"186 358 OFFCURVE",
"221 404 OFFCURVE",
"289 404 CURVE SMOOTH",
"330 404 OFFCURVE",
"352 384 OFFCURVE",
"352 340 CURVE SMOOTH",
"352 0 LINE",
"506 0 LINE",
"506 337 LINE SMOOTH",
"506 419 OFFCURVE",
"463 492 OFFCURVE",
"347 492 CURVE SMOOTH",
"263 492 OFFCURVE",
"174 434 OFFCURVE",
"143 396 CURVE"
);
},
{
closed = 1;
nodes = (
"445 334 LINE",
"468 358 OFFCURVE",
"504 404 OFFCURVE",
"571 404 CURVE SMOOTH",
"614 404 OFFCURVE",
"634 384 OFFCURVE",
"634 340 CURVE SMOOTH",
"634 0 LINE",
"788 0 LINE",
"788 337 LINE SMOOTH",
"788 419 OFFCURVE",
"745 492 OFFCURVE",
"630 492 CURVE SMOOTH",
"546 492 OFFCURVE",
"457 434 OFFCURVE",
"426 396 CURVE"
);
}
);
width = 848;
}
);
unicode = 006D;
},
{
glyphname = n;
lastChange = "2015-05-11 17:51:26 +0000";
layers = (
{
anchors = (
{
name = bottom;
position = "{278, 0}";
},
{
name = top;
position = "{278, 480}";
}
);
hints = (
{
place = "{64.500000, 99.000000}";
},
{
place = "{308.428571, 99.000000}";
},
{
horizontal = 1;
place = "{334.178571, 75.821429}";
},
{
horizontal = 1;
place = "{400.000000, -20.000000}";
},
{
horizontal = 1;
place = "{15.000000, 21.000000}";
}
);
layerId = "E777F328-EA17-4AE7-9EBA-8002E537BA4F";
name = Regular;
paths = (
{
closed = 1;
nodes = (
"130 480 LINE",
"77 480 LINE",
"77 0 LINE",
"196 0 LINE",
"196 409 LINE"
);
},
{
closed = 1;
nodes = (
"151 348 LINE",
"205 402 OFFCURVE",
"251 425 OFFCURVE",
"301 425 CURVE SMOOTH",
"350 425 OFFCURVE",
"371 396 OFFCURVE",
"371 326 CURVE SMOOTH",
"371 0 LINE",
"490 0 LINE",
"490 338 LINE SMOOTH",
"490 438 OFFCURVE",
"436 492 OFFCURVE",
"335 492 CURVE SMOOTH",
"266 492 OFFCURVE",
"179 450 OFFCURVE",
"134 396 CURVE"
);
}
);
width = 558;
},
{
anchors = (
{
name = bottom;
position = "{282, 0}";
},
{
name = top;
position = "{282, 480}";
}
);
hints = (
{
place = "{57.000000, 129.000000}";
},
{
place = "{291.285714, 129.000000}";
},
{
horizontal = 1;
place = "{313.285714, 96.714286}";
},
{
horizontal = 1;
place = "{400.000000, -20.000000}";
},
{
horizontal = 1;
place = "{15.000000, 21.000000}";
}
);
layerId = "39185045-6A8C-415A-8312-7B8F11386A4C";
name = Bold;
paths = (
{
closed = 1;
nodes = (
"138 480 LINE",
"68 480 LINE",
"68 0 LINE",
"223 0 LINE",
"223 409 LINE"
);
},
{
closed = 1;
nodes = (
"162 330 LINE",
"215 384 OFFCURVE",
"254 404 OFFCURVE",
"298 404 CURVE SMOOTH",
"337 404 OFFCURVE",
"350 383 OFFCURVE",
"350 316 CURVE SMOOTH",
"350 0 LINE",
"505 0 LINE",
"505 337 LINE SMOOTH",
"505 433 OFFCURVE",
"446 492 OFFCURVE",
"347 492 CURVE SMOOTH",
"278 492 OFFCURVE",
"182 448 OFFCURVE",
"143 396 CURVE"
);
}
);
width = 564;
}
);
unicode = 006E;
},
{
glyphname = eng;
lastChange = "2015-05-11 17:51:26 +0000";
layers = (
{
components = (
{
name = n;
}
);
hints = (
{
place = "{308.428571, 99.000000}";
},
{
horizontal = 1;
place = "{-145.035714, 78.285714}";
},
{
horizontal = 1;
place = "{0.000000, -20.000000}";
}
);
layerId = "E777F328-EA17-4AE7-9EBA-8002E537BA4F";
name = Regular;
paths = (
{
closed = 1;
nodes = (
"200 -169 LINE",
"241 -190 OFFCURVE",
"281 -203 OFFCURVE",
"324 -203 CURVE SMOOTH",
"432 -203 OFFCURVE",
"488 -149 OFFCURVE",
"488 -42 CURVE SMOOTH",
"488 1 LINE",
"370 1 LINE",
"370 -70 LINE SMOOTH",
"370 -107 OFFCURVE",
"349 -134 OFFCURVE",
"312 -134 CURVE SMOOTH",
"282 -134 OFFCURVE",
"256 -113 OFFCURVE",
"238 -84 CURVE"
);
}
);
width = 558;
},
{
components = (
{
name = n;
}
);
hints = (
{
place = "{291.285714, 129.000000}";
},
{
horizontal = 1;
place = "{-134.857143, 101.857143}";
},
{
horizontal = 1;
place = "{0.000000, -20.000000}";
}
);
layerId = "39185045-6A8C-415A-8312-7B8F11386A4C";
name = Bold;
paths = (
{
closed = 1;
nodes = (
"186 -174 LINE",
"233 -193 OFFCURVE",
"277 -203 OFFCURVE",
"316 -203 CURVE SMOOTH",
"446 -203 OFFCURVE",
"504 -142 OFFCURVE",
"504 -26 CURVE SMOOTH",
"504 1 LINE",
"349 1 LINE",
"349 -58 LINE SMOOTH",
"349 -88 OFFCURVE",
"334 -112 OFFCURVE",
"299 -112 CURVE SMOOTH",
"272 -112 OFFCURVE",
"248 -94 OFFCURVE",
"232 -62 CURVE"
);
}
);
width = 564;
}
);
unicode = 014B;
},
{
glyphname = o;
lastChange = "2015-05-11 17:51:26 +0000";
layers = (
{
anchors = (
{
name = top;
position = "{263, 480}";
}
);
hints = (
{
place = "{23.250000, 99.000000}";
},
{
place = "{291.250000, 99.000000}";
},
{
horizontal = 1;
place = "{-10.000000, 75.821429}";
},
{
horizontal = 1;
place = "{334.178571, 75.821429}";
}
);
layerId = "E777F328-EA17-4AE7-9EBA-8002E537BA4F";
name = Regular;
paths = (
{
closed = 1;
nodes = (
"442 -12 OFFCURVE",
"484 110 OFFCURVE",
"484 240 CURVE SMOOTH",
"484 371 OFFCURVE",
"442 492 OFFCURVE",
"264 492 CURVE SMOOTH",
"85 492 OFFCURVE",
"43 371 OFFCURVE",
"43 240 CURVE SMOOTH",
"43 110 OFFCURVE",
"85 -12 OFFCURVE",
"264 -12 CURVE SMOOTH"
);
},
{
closed = 1;
nodes = (
"178 47 OFFCURVE",
"162 127 OFFCURVE",
"162 240 CURVE SMOOTH",
"162 354 OFFCURVE",
"178 433 OFFCURVE",
"264 433 CURVE SMOOTH",
"349 433 OFFCURVE",
"365 354 OFFCURVE",
"365 240 CURVE SMOOTH",
"365 127 OFFCURVE",
"349 47 OFFCURVE",
"264 47 CURVE SMOOTH"
);
}
);
width = 527;
},
{
anchors = (
{
name = top;
position = "{268, 480}";
}
);
hints = (
{
place = "{12.000000, 129.000000}";
},
{
place = "{265.000000, 129.000000}";
},
{
horizontal = 1;
place = "{-10.000000, 96.714286}";
},
{
horizontal = 1;
place = "{313.285714, 96.714286}";
}
);
layerId = "39185045-6A8C-415A-8312-7B8F11386A4C";
name = Bold;
paths = (
{
closed = 1;
nodes = (
"454 -12 OFFCURVE",
"497 110 OFFCURVE",
"497 240 CURVE SMOOTH",
"497 371 OFFCURVE",
"454 492 OFFCURVE",
"268 492 CURVE SMOOTH",
"82 492 OFFCURVE",
"38 371 OFFCURVE",
"38 240 CURVE SMOOTH",
"38 110 OFFCURVE",
"82 -12 OFFCURVE",
"268 -12 CURVE SMOOTH"
);
},
{
closed = 1;
nodes = (
"204 65 OFFCURVE",
"193 126 OFFCURVE",
"193 240 CURVE SMOOTH",
"193 355 OFFCURVE",
"204 415 OFFCURVE",
"268 415 CURVE SMOOTH",
"331 415 OFFCURVE",
"342 355 OFFCURVE",
"342 240 CURVE SMOOTH",
"342 126 OFFCURVE",
"331 65 OFFCURVE",
"268 65 CURVE SMOOTH"
);
}
);
width = 535;
}
);
leftKerningGroup = c;
unicode = 006F;
},
{
glyphname = p;
lastChange = "2015-05-11 17:51:26 +0000";
layers = (
{
hints = (
{
place = "{64.500000, 99.000000}";
},
{
place = "{317.535714, 99.000000}";
},
{
horizontal = 1;
place = "{-10.000000, 75.821429}";
},
{
horizontal = 1;
place = "{334.178571, 75.821429}";
},
{
horizontal = 1;
place = "{400.000000, -20.000000}";
},
{
horizontal = 1;
place = "{-140.285714, 21.000000}";
}
);
layerId = "E777F328-EA17-4AE7-9EBA-8002E537BA4F";
name = Regular;
paths = (
{
closed = 1;
nodes = (
"353 425 OFFCURVE",
"382 343 OFFCURVE",
"382 240 CURVE SMOOTH",
"382 121 OFFCURVE",
"353 47 OFFCURVE",
"271 47 CURVE SMOOTH",
"233 47 OFFCURVE",
"192 48 OFFCURVE",
"133 91 CURVE",
"118 46 LINE",
"166 4 OFFCURVE",
"245 -12 OFFCURVE",
"302 -12 CURVE SMOOTH",
"463 -12 OFFCURVE",
"500 110 OFFCURVE",
"500 240 CURVE SMOOTH",
"500 371 OFFCURVE",
"463 492 OFFCURVE",
"304 492 CURVE SMOOTH",
"228 492 OFFCURVE",
"152 438 OFFCURVE",
"120 395 CURVE",
"133 349 LINE",
"174 396 OFFCURVE",
"222 425 OFFCURVE",
"271 425 CURVE SMOOTH"
);
},
{
closed = 1;
nodes = (
"131 480 LINE",
"77 480 LINE",
"77 -203 LINE",
"196 -187 LINE",
"196 418 LINE"
);
}
);
width = 544;
},
{
hints = (
{
place = "{57.000000, 129.000000}";
},
{
place = "{299.857143, 129.000000}";
},
{
horizontal = 1;
place = "{-10.000000, 96.714286}";
},
{
horizontal = 1;
place = "{313.285714, 96.714286}";
},
{
horizontal = 1;
place = "{400.000000, -20.000000}";
},
{
horizontal = 1;
place = "{-133.857143, 21.000000}";
}
);
layerId = "39185045-6A8C-415A-8312-7B8F11386A4C";
name = Bold;
paths = (
{
closed = 1;
nodes = (
"332 404 OFFCURVE",
"360 341 OFFCURVE",
"360 240 CURVE SMOOTH",
"360 122 OFFCURVE",
"332 65 OFFCURVE",
"265 65 CURVE SMOOTH",
"227 65 OFFCURVE",
"192 61 OFFCURVE",
"138 102 CURVE",
"118 42 LINE",
"170 -5 OFFCURVE",
"258 -12 OFFCURVE",
"310 -12 CURVE SMOOTH",
"476 -12 OFFCURVE",
"515 110 OFFCURVE",
"515 240 CURVE SMOOTH",
"515 371 OFFCURVE",
"476 492 OFFCURVE",
"307 492 CURVE SMOOTH",
"228 492 OFFCURVE",
"152 434 OFFCURVE",
"126 400 CURVE",
"142 340 LINE",
"179 378 OFFCURVE",
"215 404 OFFCURVE",
"259 404 CURVE SMOOTH"
);
},
{
closed = 1;
nodes = (
"140 480 LINE",
"68 480 LINE",
"68 -203 LINE",
"223 -182 LINE",
"223 418 LINE"
);
}
);
width = 553;
}
);
rightMetricsKey = "=o";
unicode = 0070;
},
{
glyphname = thorn;
lastChange = "2015-05-11 17:51:26 +0000";
layers = (
{
background = {
paths = (
{
closed = 0;
nodes = (
"163 539 LINE",
"64 526 LINE"
);
}
);
};
hints = (
{
place = "{64.500000, 99.000000}";
},
{
place = "{322.107143, 99.000000}";
},
{
horizontal = 1;
place = "{-10.000000, 76.250000}";
},
{
horizontal = 1;
place = "{333.750000, 76.250000}";
},
{
horizontal = 1;
place = "{518.750000, -20.000000}";
},
{
horizontal = 1;
place = "{-127.035714, 21.000000}";
}
);
layerId = "E777F328-EA17-4AE7-9EBA-8002E537BA4F";
name = Regular;
paths = (
{
closed = 1;
nodes = (
"196 647 LINE",
"77 631 LINE",
"77 -203 LINE",
"196 -187 LINE"
);
},
{
closed = 1;
nodes = (
"353 425 OFFCURVE",
"382 343 OFFCURVE",
"382 240 CURVE SMOOTH",
"382 121 OFFCURVE",
"353 47 OFFCURVE",
"271 47 CURVE SMOOTH",
"233 47 OFFCURVE",
"192 48 OFFCURVE",
"133 91 CURVE",
"118 46 LINE",
"166 4 OFFCURVE",
"245 -12 OFFCURVE",
"302 -12 CURVE SMOOTH",
"463 -12 OFFCURVE",
"500 110 OFFCURVE",
"500 240 CURVE SMOOTH",
"500 371 OFFCURVE",
"463 492 OFFCURVE",
"304 492 CURVE SMOOTH",
"228 492 OFFCURVE",
"152 438 OFFCURVE",
"120 395 CURVE",
"133 349 LINE",
"174 396 OFFCURVE",
"222 425 OFFCURVE",
"271 425 CURVE SMOOTH"
);
}
);
width = 544;
},
{
background = {
paths = (
{
closed = 0;
nodes = (
"186 539 LINE",
"57 522 LINE"
);
}
);
};
hints = (
{
place = "{57.000000, 129.000000}";
},
{
place = "{306.571429, 129.000000}";
},
{
horizontal = 1;
place = "{-10.000000, 95.000000}";
},
{
horizontal = 1;
place = "{315.000000, 95.000000}";
},
{
horizontal = 1;
place = "{515.000000, -20.000000}";
},
{
horizontal = 1;
place = "{-116.857143, 21.000000}";
}
);
layerId = "39185045-6A8C-415A-8312-7B8F11386A4C";
name = Bold;
paths = (
{
closed = 1;
nodes = (
"223 647 LINE",
"68 626 LINE",
"68 -203 LINE",
"223 -182 LINE"
);
},
{
closed = 1;
nodes = (
"332 404 OFFCURVE",
"360 341 OFFCURVE",
"360 240 CURVE SMOOTH",
"360 122 OFFCURVE",
"332 65 OFFCURVE",
"265 65 CURVE SMOOTH",
"227 65 OFFCURVE",
"192 61 OFFCURVE",
"138 102 CURVE",
"118 42 LINE",
"170 -5 OFFCURVE",
"258 -12 OFFCURVE",
"310 -12 CURVE SMOOTH",
"476 -12 OFFCURVE",
"515 110 OFFCURVE",
"515 240 CURVE SMOOTH",
"515 371 OFFCURVE",
"476 492 OFFCURVE",
"307 492 CURVE SMOOTH",
"228 492 OFFCURVE",
"152 434 OFFCURVE",
"126 400 CURVE",
"142 340 LINE",
"179 378 OFFCURVE",
"215 404 OFFCURVE",
"259 404 CURVE SMOOTH"
);
}
);
width = 553;
}
);
rightMetricsKey = "=o";
unicode = 00FE;
},
{
glyphname = q;
lastChange = "2015-05-11 17:51:26 +0000";
layers = (
{
hints = (
{
place = "{23.250000, 99.000000}";
},
{
place = "{276.285714, 99.000000}";
},
{
horizontal = 1;
place = "{-10.000000, 75.821429}";
},
{
horizontal = 1;
place = "{334.178571, 75.821429}";
},
{
horizontal = 1;
place = "{-140.285714, 21.000000}";
},
{
horizontal = 1;
place = "{400.000000, -20.000000}";
}
);
layerId = "E777F328-EA17-4AE7-9EBA-8002E537BA4F";
name = Regular;
paths = (
{
closed = 1;
nodes = (
"410 107 LINE",
"367 66 OFFCURVE",
"322 47 OFFCURVE",
"274 47 CURVE SMOOTH",
"191 47 OFFCURVE",
"162 122 OFFCURVE",
"162 240 CURVE SMOOTH",
"162 349 OFFCURVE",
"192 426 OFFCURVE",
"272 426 CURVE SMOOTH",
"322 426 OFFCURVE",
"367 401 OFFCURVE",
"409 335 CURVE",
"424 392 LINE",
"391 437 OFFCURVE",
"330 492 OFFCURVE",
"240 492 CURVE SMOOTH",
"80 492 OFFCURVE",
"43 371 OFFCURVE",
"43 240 CURVE SMOOTH",
"43 110 OFFCURVE",
"80 -12 OFFCURVE",
"240 -12 CURVE SMOOTH",
"311 -12 OFFCURVE",
"378 24 OFFCURVE",
"424 59 CURVE"
);
},
{
closed = 1;
nodes = (
"347 409 LINE",
"347 -186 LINE",
"466 -170 LINE",
"466 480 LINE",
"413 480 LINE"
);
}
);
width = 542;
},
{
hints = (
{
place = "{12.000000, 129.000000}";
},
{
place = "{254.857143, 129.000000}";
},
{
horizontal = 1;
place = "{-10.000000, 96.714286}";
},
{
horizontal = 1;
place = "{313.285714, 96.714286}";
},
{
horizontal = 1;
place = "{-133.857143, 21.000000}";
},
{
horizontal = 1;
place = "{400.000000, -20.000000}";
}
);
layerId = "39185045-6A8C-415A-8312-7B8F11386A4C";
name = Bold;
paths = (
{
closed = 1;
nodes = (
"413 115 LINE",
"374 84 OFFCURVE",
"332 65 OFFCURVE",
"288 65 CURVE SMOOTH",
"216 65 OFFCURVE",
"193 128 OFFCURVE",
"193 240 CURVE SMOOTH",
"193 338 OFFCURVE",
"218 404 OFFCURVE",
"290 404 CURVE SMOOTH",
"335 404 OFFCURVE",
"376 377 OFFCURVE",
"415 311 CURVE",
"430 391 LINE",
"395 434 OFFCURVE",
"336 492 OFFCURVE",
"242 492 CURVE SMOOTH",
"77 492 OFFCURVE",
"38 371 OFFCURVE",
"38 240 CURVE SMOOTH",
"38 110 OFFCURVE",
"77 -12 OFFCURVE",
"242 -12 CURVE SMOOTH",
"311 -12 OFFCURVE",
"382 25 OFFCURVE",
"430 53 CURVE"
);
},
{
closed = 1;
nodes = (
"330 409 LINE",
"330 -179 LINE",
"485 -158 LINE",
"485 480 LINE",
"415 480 LINE"
);
}
);
width = 553;
}
);
leftKerningGroup = c;
leftMetricsKey = "=o";
unicode = 0071;
},
{
glyphname = r;
lastChange = "2015-05-11 17:51:26 +0000";
layers = (
{
anchors = (
{
name = bottom;
position = "{137, 0}";
},
{
name = top;
position = "{198, 480}";
}
);
hints = (
{
place = "{64.500000, 99.000000}";
},
{
horizontal = 1;
place = "{325.500000, 84.500000}";
},
{
horizontal = 1;
place = "{400.000000, -20.000000}";
},
{
horizontal = 1;
place = "{15.000000, 21.000000}";
}
);
layerId = "E777F328-EA17-4AE7-9EBA-8002E537BA4F";
name = Regular;
paths = (
{
closed = 1;
nodes = (
"197 281 LINE",
"197 354 OFFCURVE",
"234 398 OFFCURVE",
"342 398 CURVE",
"342 484 LINE",
"215 484 OFFCURVE",
"154 368 OFFCURVE",
"154 281 CURVE"
);
},
{
closed = 1;
nodes = (
"130 480 LINE",
"77 480 LINE",
"77 0 LINE",
"196 0 LINE",
"196 367 LINE"
);
}
);
width = 342;
},
{
anchors = (
{
name = bottom;
position = "{145, 0}";
},
{
name = top;
position = "{197, 480}";
}
);
hints = (
{
place = "{57.000000, 129.000000}";
},
{
horizontal = 1;
place = "{303.000000, 107.000000}";
},
{
horizontal = 1;
place = "{400.000000, -20.000000}";
},
{
horizontal = 1;
place = "{15.000000, 21.000000}";
}
);
layerId = "39185045-6A8C-415A-8312-7B8F11386A4C";
name = Bold;
paths = (
{
closed = 1;
nodes = (
"223 263 LINE",
"223 340 OFFCURVE",
"252 374 OFFCURVE",
"350 374 CURVE",
"350 484 LINE",
"228 484 OFFCURVE",
"167 353 OFFCURVE",
"167 263 CURVE"
);
},
{
closed = 1;
nodes = (
"138 480 LINE",
"68 480 LINE",
"68 0 LINE",
"223 0 LINE",
"223 356 LINE"
);
}
);
width = 347;
}
);
unicode = 0072;
},
{
glyphname = s;
lastChange = "2015-05-11 17:51:26 +0000";
layers = (
{
anchors = (
{
name = bottom;
position = "{239, 0}";
},
{
name = top;
position = "{230, 480}";
}
);
hints = (
{
place = "{37.285714, 94.642857}";
},
{
place = "{260.464286, 93.750000}";
},
{
horizontal = 1;
place = "{-8.000000, 72.250000}";
},
{
horizontal = 1;
place = "{338.750000, 72.250000}";
}
);
layerId = "E777F328-EA17-4AE7-9EBA-8002E537BA4F";
name = Regular;
paths = (
{
closed = 1;
nodes = (
"241 295 LINE SMOOTH",
"182 312 OFFCURVE",
"145 330 OFFCURVE",
"145 374 CURVE SMOOTH",
"145 409 OFFCURVE",
"173 433 OFFCURVE",
"227 433 CURVE SMOOTH",
"284 433 OFFCURVE",
"316 396 OFFCURVE",
"322 335 CURVE",
"421 342 LINE",
"408 436 OFFCURVE",
"356 492 OFFCURVE",
"227 492 CURVE SMOOTH",
"116 492 OFFCURVE",
"44 439 OFFCURVE",
"44 348 CURVE SMOOTH",
"44 263 OFFCURVE",
"95 224 OFFCURVE",
"176 202 CURVE SMOOTH",
"222 188 LINE SMOOTH",
"295 169 OFFCURVE",
"324 148 OFFCURVE",
"324 113 CURVE SMOOTH",
"324 78 OFFCURVE",
"290 47 OFFCURVE",
"240 47 CURVE SMOOTH",
"174 47 OFFCURVE",
"139 86 OFFCURVE",
"133 150 CURVE",
"35 140 LINE",
"49 47 OFFCURVE",
"102 -12 OFFCURVE",
"240 -12 CURVE SMOOTH",
"352 -12 OFFCURVE",
"425 43 OFFCURVE",
"425 138 CURVE SMOOTH",
"425 222 OFFCURVE",
"373 257 OFFCURVE",
"284 282 CURVE SMOOTH"
);
}
);
width = 460;
},
{
anchors = (
{
name = bottom;
position = "{245, 0}";
},
{
name = top;
position = "{234, 480}";
}
);
hints = (
{
place = "{30.857143, 121.428571}";
},
{
place = "{248.142857, 120.000000}";
},
{
horizontal = 1;
place = "{-8.000000, 91.000000}";
},
{
horizontal = 1;
place = "{320.000000, 91.000000}";
}
);
layerId = "39185045-6A8C-415A-8312-7B8F11386A4C";
name = Bold;
paths = (
{
closed = 1;
nodes = (
"260 308 LINE SMOOTH",
"206 325 OFFCURVE",
"167 341 OFFCURVE",
"167 376 CURVE SMOOTH",
"167 403 OFFCURVE",
"192 415 OFFCURVE",
"223 415 CURVE SMOOTH",
"271 415 OFFCURVE",
"301 386 OFFCURVE",
"307 330 CURVE",
"437 337 LINE",
"421 436 OFFCURVE",
"364 492 OFFCURVE",
"223 492 CURVE SMOOTH",
"121 492 OFFCURVE",
"36 445 OFFCURVE",
"36 343 CURVE SMOOTH",
"36 256 OFFCURVE",
"83 214 OFFCURVE",
"168 190 CURVE SMOOTH",
"210 176 LINE SMOOTH",
"286 156 OFFCURVE",
"311 137 OFFCURVE",
"311 112 CURVE SMOOTH",
"311 83 OFFCURVE",
"282 65 OFFCURVE",
"251 65 CURVE SMOOTH",
"194 65 OFFCURVE",
"161 97 OFFCURVE",
"156 155 CURVE",
"28 145 LINE",
"43 47 OFFCURVE",
"100 -12 OFFCURVE",
"251 -12 CURVE SMOOTH",
"353 -12 OFFCURVE",
"442 38 OFFCURVE",
"442 144 CURVE SMOOTH",
"442 230 OFFCURVE",
"384 269 OFFCURVE",
"300 294 CURVE SMOOTH"
);
}
);
width = 469;
}
);
leftKerningGroup = s;
unicode = 0073;
},
{
glyphname = germandbls;
lastChange = "2015-05-11 17:51:26 +0000";
layers = (
{
hints = (
{
place = "{71.500000, 99.000000}";
},
{
place = "{193.642857, 80.285714}";
},
{
place = "{309.107143, 99.000000}";
},
{
place = "{356.250000, 99.000000}";
},
{
horizontal = 1;
place = "{-10.000000, 78.500000}";
},
{
horizontal = 1;
place = "{218.642857, 54.214286}";
},
{
horizontal = 1;
place = "{443.250000, 78.500000}";
},
{
horizontal = 1;
place = "{15.000000, 21.000000}";
}
);
layerId = "E777F328-EA17-4AE7-9EBA-8002E537BA4F";
name = Regular;
paths = (
{
closed = 1;
nodes = (
"204 440 LINE",
"204 533 OFFCURVE",
"226 578 OFFCURVE",
"286 578 CURVE SMOOTH",
"347 578 OFFCURVE",
"371 533 OFFCURVE",
"371 440 CURVE SMOOTH",
"371 388 OFFCURVE",
"347 342 OFFCURVE",
"294 342 CURVE SMOOTH",
"256 342 LINE",
"256 313 LINE",
"307 313 LINE SMOOTH",
"415 313 OFFCURVE",
"490 376 OFFCURVE",
"490 456 CURVE SMOOTH",
"490 556 OFFCURVE",
"420 626 OFFCURVE",
"286 626 CURVE SMOOTH",
"157 626 OFFCURVE",
"85 570 OFFCURVE",
"85 440 CURVE SMOOTH",
"85 0 LINE",
"204 0 LINE"
);
},
{
closed = 1;
nodes = (
"546 263 OFFCURVE",
"478 329 OFFCURVE",
"359 329 CURVE SMOOTH",
"256 329 LINE",
"256 299 LINE",
"326 299 LINE SMOOTH",
"390 299 OFFCURVE",
"427 265 OFFCURVE",
"427 160 CURVE SMOOTH",
"427 91 OFFCURVE",
"421 36 OFFCURVE",
"378 36 CURVE SMOOTH",
"340 36 OFFCURVE",
"329 77 OFFCURVE",
"328 166 CURVE",
"232 166 LINE",
"232 44 OFFCURVE",
"290 -12 OFFCURVE",
"383 -12 CURVE SMOOTH",
"496 -12 OFFCURVE",
"546 64 OFFCURVE",
"546 151 CURVE SMOOTH"
);
}
);
width = 557;
},
{
hints = (
{
place = "{64.000000, 129.000000}";
},
{
place = "{205.428571, 103.857143}";
},
{
place = "{293.571429, 129.000000}";
},
{
place = "{345.000000, 129.000000}";
},
{
horizontal = 1;
place = "{-10.000000, 101.000000}";
},
{
horizontal = 1;
place = "{200.428571, 68.142857}";
},
{
horizontal = 1;
place = "{417.000000, 101.000000}";
},
{
horizontal = 1;
place = "{15.000000, 21.000000}";
}
);
layerId = "39185045-6A8C-415A-8312-7B8F11386A4C";
name = Bold;
paths = (
{
closed = 1;
nodes = (
"232 422 LINE",
"232 521 OFFCURVE",
"241 560 OFFCURVE",
"290 560 CURVE SMOOTH",
"337 560 OFFCURVE",
"353 521 OFFCURVE",
"353 422 CURVE SMOOTH",
"353 377 OFFCURVE",
"338 347 OFFCURVE",
"294 347 CURVE SMOOTH",
"266 347 LINE",
"266 311 LINE",
"316 311 LINE SMOOTH",
"436 311 OFFCURVE",
"508 368 OFFCURVE",
"508 446 CURVE SMOOTH",
"508 546 OFFCURVE",
"431 622 OFFCURVE",
"290 622 CURVE SMOOTH",
"151 622 OFFCURVE",
"77 570 OFFCURVE",
"77 422 CURVE SMOOTH",
"77 0 LINE",
"232 0 LINE"
);
},
{
closed = 1;
nodes = (
"569 258 OFFCURVE",
"503 330 OFFCURVE",
"366 330 CURVE SMOOTH",
"266 330 LINE",
"266 293 LINE",
"326 293 LINE SMOOTH",
"372 293 OFFCURVE",
"414 278 OFFCURVE",
"414 157 CURVE SMOOTH",
"414 92 OFFCURVE",
"420 49 OFFCURVE",
"397 49 CURVE SMOOTH",
"379 49 OFFCURVE",
"372 82 OFFCURVE",
"373 170 CURVE",
"248 170 LINE",
"248 38 OFFCURVE",
"316 -12 OFFCURVE",
"402 -12 CURVE SMOOTH",
"520 -12 OFFCURVE",
"569 61 OFFCURVE",
"569 142 CURVE SMOOTH"
);
}
);
width = 570;
}
);
unicode = 00DF;
},
{
glyphname = t;
lastChange = "2015-05-11 17:51:27 +0000";
layers = (
{
anchors = (
{
name = bottom;
position = "{160, 0}";
},
{
name = center;
position = "{160, 240}";
},
{
name = topright;
position = "{294, 480}";
}
);
hints = (
{
place = "{69.250000, 99.000000}";
},
{
horizontal = 1;
place = "{-10.000000, 72.035714}";
},
{
horizontal = 1;
place = "{336.428571, 63.571429}";
},
{
horizontal = 1;
place = "{497.000000, -20.000000}";
}
);
layerId = "E777F328-EA17-4AE7-9EBA-8002E537BA4F";
name = Regular;
paths = (
{
closed = 1;
nodes = (
"14 420 LINE",
"307 420 LINE",
"307 480 LINE",
"14 480 LINE"
);
},
{
closed = 1;
nodes = (
"304 71 LINE",
"284 60 OFFCURVE",
"265 54 OFFCURVE",
"245 54 CURVE SMOOTH",
"222 54 OFFCURVE",
"209 65 OFFCURVE",
"209 108 CURVE SMOOTH",
"209 596 LINE",
"90 553 LINE",
"90 126 LINE SMOOTH",
"90 67 OFFCURVE",
"92 -12 OFFCURVE",
"212 -12 CURVE SMOOTH",
"238 -12 OFFCURVE",
"278 -5 OFFCURVE",
"319 17 CURVE"
);
}
);
width = 312;
},
{
anchors = (
{
name = bottom;
position = "{170, 0}";
},
{
name = center;
position = "{170, 240}";
},
{
name = topright;
position = "{310, 480}";
}
);
hints = (
{
place = "{58.000000, 129.000000}";
},
{
horizontal = 1;
place = "{-10.000000, 91.857143}";
},
{
horizontal = 1;
place = "{319.285714, 80.714286}";
},
{
horizontal = 1;
place = "{497.000000, -20.000000}";
}
);
layerId = "39185045-6A8C-415A-8312-7B8F11386A4C";
name = Bold;
paths = (
{
closed = 1;
nodes = (
"10 402 LINE",
"325 402 LINE",
"325 480 LINE",
"10 480 LINE"
);
},
{
closed = 1;
nodes = (
"324 88 LINE",
"308 79 OFFCURVE",
"290 73 OFFCURVE",
"270 73 CURVE SMOOTH",
"251 73 OFFCURVE",
"236 82 OFFCURVE",
"236 119 CURVE SMOOTH",
"236 596 LINE",
"82 544 LINE",
"82 149 LINE SMOOTH",
"82 85 OFFCURVE",
"83 -12 OFFCURVE",
"227 -12 CURVE SMOOTH",
"253 -12 OFFCURVE",
"301 -5 OFFCURVE",
"343 17 CURVE"
);
}
);
width = 331;
}
);
unicode = 0074;
},
{
glyphname = u;
lastChange = "2015-05-11 17:51:26 +0000";
layers = (
{
anchors = (
{
name = ogonek;
position = "{524, 8}";
},
{
name = top;
position = "{280, 480}";
}
);
hints = (
{
place = "{57.500000, 99.000000}";
},
{
place = "{301.964286, 99.000000}";
},
{
horizontal = 1;
place = "{-10.000000, 75.821429}";
},
{
horizontal = 1;
place = "{0.000000, 65.821429}";
},
{
horizontal = 1;
place = "{400.000000, -20.000000}";
}
);
layerId = "E777F328-EA17-4AE7-9EBA-8002E537BA4F";
name = Regular;
paths = (
{
closed = 1;
nodes = (
"414 197 LINE",
"372 98 OFFCURVE",
"329 50 OFFCURVE",
"265 50 CURVE SMOOTH",
"210 50 OFFCURVE",
"187 88 OFFCURVE",
"187 155 CURVE SMOOTH",
"187 480 LINE",
"68 480 LINE",
"68 142 LINE SMOOTH",
"68 53 OFFCURVE",
"108 -12 OFFCURVE",
"222 -12 CURVE SMOOTH",
"329 -12 OFFCURVE",
"385 62 OFFCURVE",
"421 126 CURVE"
);
},
{
closed = 1;
nodes = (
"404 0 LINE",
"481 0 LINE",
"481 480 LINE",
"362 480 LINE",
"362 72 LINE"
);
}
);
width = 558;
},
{
anchors = (
{
name = ogonek;
position = "{526, 8}";
},
{
name = top;
position = "{281, 480}";
}
);
hints = (
{
place = "{50.000000, 129.000000}";
},
{
place = "{282.142857, 129.000000}";
},
{
horizontal = 1;
place = "{-10.000000, 96.714286}";
},
{
horizontal = 1;
place = "{0.000000, 86.714286}";
},
{
horizontal = 1;
place = "{400.000000, -20.000000}";
}
);
layerId = "39185045-6A8C-415A-8312-7B8F11386A4C";
name = Bold;
paths = (
{
closed = 1;
nodes = (
"409 228 LINE",
"362 115 OFFCURVE",
"326 68 OFFCURVE",
"274 68 CURVE SMOOTH",
"224 68 OFFCURVE",
"215 107 OFFCURVE",
"215 160 CURVE SMOOTH",
"215 480 LINE",
"60 480 LINE",
"60 140 LINE SMOOTH",
"60 62 OFFCURVE",
"92 -12 OFFCURVE",
"218 -12 CURVE SMOOTH",
"336 -12 OFFCURVE",
"377 71 OFFCURVE",
"414 133 CURVE"
);
},
{
closed = 1;
nodes = (
"394 0 LINE",
"493 0 LINE",
"493 480 LINE",
"338 480 LINE",
"338 67 LINE"
);
}
);
width = 562;
}
);
unicode = 0075;
},
{
glyphname = v;
lastChange = "2015-05-11 17:51:26 +0000";
layers = (
{
hints = (
{
horizontal = 1;
place = "{15.000000, 21.000000}";
},
{
horizontal = 1;
place = "{400.000000, -20.000000}";
}
);
layerId = "E777F328-EA17-4AE7-9EBA-8002E537BA4F";
name = Regular;
paths = (
{
closed = 1;
nodes = (
"299 0 LINE",
"462 480 LINE",
"394 480 LINE",
"240 0 LINE"
);
},
{
closed = 1;
nodes = (
"278 0 LINE",
"125 480 LINE",
"6 480 LINE",
"167 0 LINE"
);
}
);
width = 467;
},
{
hints = (
{
horizontal = 1;
place = "{15.000000, 21.000000}";
},
{
horizontal = 1;
place = "{400.000000, -20.000000}";
}
);
layerId = "39185045-6A8C-415A-8312-7B8F11386A4C";
name = Bold;
paths = (
{
closed = 1;
nodes = (
"328 0 LINE",
"482 480 LINE",
"395 480 LINE",
"252 0 LINE"
);
},
{
closed = 1;
nodes = (
"298 0 LINE",
"154 480 LINE",
"-1 480 LINE",
"154 0 LINE"
);
}
);
width = 480;
}
);
unicode = 0076;
},
{
glyphname = w;
lastChange = "2015-05-11 17:51:26 +0000";
layers = (
{
anchors = (
{
name = top;
position = "{328, 480}";
}
);
hints = (
{
horizontal = 1;
place = "{15.000000, 21.000000}";
},
{
horizontal = 1;
place = "{400.000000, -20.000000}";
}
);
layerId = "E777F328-EA17-4AE7-9EBA-8002E537BA4F";
name = Regular;
paths = (
{
closed = 1;
nodes = (
"245 0 LINE",
"364 480 LINE",
"296 480 LINE",
"185 0 LINE"
);
},
{
closed = 1;
nodes = (
"224 0 LINE",
"130 480 LINE",
"10 480 LINE",
"113 0 LINE"
);
},
{
closed = 1;
nodes = (
"520 0 LINE",
"641 480 LINE",
"572 480 LINE",
"461 0 LINE"
);
},
{
closed = 1;
nodes = (
"499 0 LINE",
"404 480 LINE",
"365 480 LINE",
"300 409 LINE",
"388 0 LINE"
);
}
);
width = 649;
},
{
anchors = (
{
name = top;
position = "{336, 480}";
}
);
hints = (
{
horizontal = 1;
place = "{15.000000, 21.000000}";
},
{
horizontal = 1;
place = "{400.000000, -20.000000}";
}
);
layerId = "39185045-6A8C-415A-8312-7B8F11386A4C";
name = Bold;
paths = (
{
closed = 1;
nodes = (
"272 0 LINE",
"384 480 LINE",
"298 480 LINE",
"196 0 LINE"
);
},
{
closed = 1;
nodes = (
"244 0 LINE",
"158 480 LINE",
"2 480 LINE",
"100 0 LINE"
);
},
{
closed = 1;
nodes = (
"548 0 LINE",
"662 480 LINE",
"575 480 LINE",
"474 0 LINE"
);
},
{
closed = 1;
nodes = (
"520 0 LINE",
"434 480 LINE",
"384 480 LINE",
"300 382 LINE",
"374 0 LINE"
);
}
);
width = 666;
}
);
unicode = 0077;
},
{
glyphname = x;
lastChange = "2015-05-11 17:51:26 +0000";
layers = (
{
hints = (
{
horizontal = 1;
place = "{400.000000, -20.000000}";
},
{
horizontal = 1;
place = "{15.000000, 21.000000}";
}
);
layerId = "E777F328-EA17-4AE7-9EBA-8002E537BA4F";
name = Regular;
paths = (
{
closed = 1;
nodes = (
"443 0 LINE",
"133 480 LINE",
"2 480 LINE",
"312 0 LINE"
);
},
{
closed = 1;
nodes = (
"65 0 LINE",
"220 209 LINE",
"192 256 LINE",
"-4 0 LINE"
);
},
{
closed = 1;
nodes = (
"437 480 LINE",
"368 480 LINE",
"215 274 LINE",
"242 226 LINE"
);
}
);
width = 446;
},
{
hints = (
{
horizontal = 1;
place = "{400.000000, -20.000000}";
},
{
horizontal = 1;
place = "{15.000000, 21.000000}";
}
);
layerId = "39185045-6A8C-415A-8312-7B8F11386A4C";
name = Bold;
paths = (
{
closed = 1;
nodes = (
"468 0 LINE",
"170 480 LINE",
"1 480 LINE",
"299 0 LINE"
);
},
{
closed = 1;
nodes = (
"82 0 LINE",
"229 198 LINE",
"194 259 LINE",
"-6 0 LINE"
);
},
{
closed = 1;
nodes = (
"462 480 LINE",
"374 480 LINE",
"223 281 LINE",
"258 220 LINE"
);
}
);
width = 474;
}
);
unicode = 0078;
},
{
glyphname = y;
lastChange = "2015-05-11 17:51:26 +0000";
layers = (
{
anchors = (
{
name = top;
position = "{254, 480}";
}
);
hints = (
{
horizontal = 1;
place = "{400.000000, -20.000000}";
},
{
horizontal = 1;
place = "{-150.071429, 21.000000}";
}
);
layerId = "E777F328-EA17-4AE7-9EBA-8002E537BA4F";
name = Regular;
paths = (
{
closed = 1;
nodes = (
"288 79 LINE",
"125 480 LINE",
"6 480 LINE",
"223 -34 LINE"
);
},
{
closed = 1;
nodes = (
"218 -203 LINE",
"457 480 LINE",
"389 480 LINE",
"233 8 LINE",
"125 -191 LINE"
);
}
);
width = 461;
},
{
anchors = (
{
name = top;
position = "{265, 480}";
}
);
hints = (
{
horizontal = 1;
place = "{400.000000, -20.000000}";
},
{
horizontal = 1;
place = "{-144.714286, 21.000000}";
}
);
layerId = "39185045-6A8C-415A-8312-7B8F11386A4C";
name = Bold;
paths = (
{
closed = 1;
nodes = (
"306 107 LINE",
"154 480 LINE",
"-1 480 LINE",
"222 -36 LINE"
);
},
{
closed = 1;
nodes = (
"240 -203 LINE",
"467 480 LINE",
"379 480 LINE",
"233 5 LINE",
"126 -191 LINE"
);
}
);
width = 464;
}
);
unicode = 0079;
},
{
glyphname = z;
lastChange = "2015-05-11 17:51:26 +0000";
layers = (
{
anchors = (
{
name = top;
position = "{214, 480}";
}
);
hints = (
{
horizontal = 1;
place = "{0.000000, 69.357143}";
},
{
horizontal = 1;
place = "{331.535714, 69.357143}";
}
);
layerId = "E777F328-EA17-4AE7-9EBA-8002E537BA4F";
name = Regular;
paths = (
{
closed = 1;
nodes = (
"34 420 LINE",
"307 420 LINE",
"284 442 LINE",
"26 72 LINE",
"26 0 LINE",
"400 0 LINE",
"400 60 LINE",
"115 60 LINE",
"138 40 LINE",
"392 408 LINE",
"392 480 LINE",
"34 480 LINE"
);
}
);
width = 426;
},
{
anchors = (
{
name = top;
position = "{209, 480}";
}
);
hints = (
{
horizontal = 1;
place = "{0.000000, 87.571429}";
},
{
horizontal = 1;
place = "{313.857143, 87.571429}";
}
);
layerId = "39185045-6A8C-415A-8312-7B8F11386A4C";
name = Bold;
paths = (
{
closed = 1;
nodes = (
"25 402 LINE",
"284 402 LINE",
"254 434 LINE",
"20 90 LINE",
"20 0 LINE",
"398 0 LINE",
"398 78 LINE",
"134 78 LINE",
"164 48 LINE",
"394 390 LINE",
"394 480 LINE",
"25 480 LINE"
);
}
);
width = 419;
}
);
unicode = 007A;
},
{
glyphname = f.alt;
lastChange = "2015-05-11 17:51:26 +0000";
layers = (
{
hints = (
{
place = "{72.142857, 99.000000}";
},
{
horizontal = 1;
place = "{336.428571, 63.571429}";
},
{
horizontal = 1;
place = "{464.714286, 78.285714}";
},
{
horizontal = 1;
place = "{15.000000, 15.000000}";
}
);
layerId = "E777F328-EA17-4AE7-9EBA-8002E537BA4F";
name = Regular;
paths = (
{
closed = 1;
nodes = (
"464 606 LINE",
"422 634 OFFCURVE",
"359 660 OFFCURVE",
"289 660 CURVE SMOOTH",
"161 660 OFFCURVE",
"86 602 OFFCURVE",
"86 480 CURVE SMOOTH",
"86 0 LINE",
"205 0 LINE",
"205 493 LINE SMOOTH",
"205 553 OFFCURVE",
"239 590 OFFCURVE",
"289 590 CURVE SMOOTH",
"349 590 OFFCURVE",
"391 563 OFFCURVE",
"422 523 CURVE"
);
},
{
closed = 1;
nodes = (
"10 420 LINE",
"308 420 LINE",
"308 480 LINE",
"10 480 LINE"
);
}
);
width = 296;
},
{
hints = (
{
place = "{61.428571, 129.000000}";
},
{
horizontal = 1;
place = "{319.285714, 80.714286}";
},
{
horizontal = 1;
place = "{441.142857, 101.857143}";
},
{
horizontal = 1;
place = "{15.000000, 15.000000}";
}
);
layerId = "39185045-6A8C-415A-8312-7B8F11386A4C";
name = Bold;
paths = (
{
closed = 1;
nodes = (
"490 608 LINE",
"438 640 OFFCURVE",
"368 660 OFFCURVE",
"302 660 CURVE SMOOTH",
"146 660 OFFCURVE",
"73 592 OFFCURVE",
"73 469 CURVE SMOOTH",
"73 0 LINE",
"228 0 LINE",
"228 484 LINE SMOOTH",
"228 523 OFFCURVE",
"248 568 OFFCURVE",
"302 568 CURVE SMOOTH",
"356 568 OFFCURVE",
"397 550 OFFCURVE",
"436 503 CURVE"
);
},
{
closed = 1;
nodes = (
"1 402 LINE",
"317 402 LINE",
"317 480 LINE",
"1 480 LINE"
);
}
);
width = 307;
}
);
},
{
glyphname = fi;
lastChange = "2015-05-11 17:51:26 +0000";
layers = (
{
components = (
{
name = f.alt;
},
{
name = dotlessi;
transform = "{1, 0, 0, 1, 296, 0}";
}
);
layerId = "E777F328-EA17-4AE7-9EBA-8002E537BA4F";
name = Regular;
paths = (
{
closed = 1;
nodes = (
"283 420 LINE",
"390 420 LINE",
"390 480 LINE",
"283 480 LINE"
);
}
);
width = 570;
},
{
components = (
{
name = f.alt;
},
{
name = dotlessi;
transform = "{1, 0, 0, 1, 307, 0}";
}
);
layerId = "39185045-6A8C-415A-8312-7B8F11386A4C";
name = Bold;
paths = (
{
closed = 1;
nodes = (
"293 402 LINE",
"391 402 LINE",
"391 480 LINE",
"293 480 LINE"
);
}
);
width = 599;
}
);
unicode = FB01;
},
{
glyphname = ordfeminine;
lastChange = "2015-05-11 17:51:26 +0000";
layers = (
{
hints = (
{
place = "{21.642857, 91.071429}";
},
{
place = "{179.892857, 89.535714}";
},
{
horizontal = 1;
place = "{140.000000, 55.892857}";
},
{
horizontal = 1;
place = "{245.000000, 56.464286}";
},
{
horizontal = 1;
place = "{464.750000, 67.250000}";
}
);
layerId = "E777F328-EA17-4AE7-9EBA-8002E537BA4F";
name = Regular;
paths = (
{
closed = 1;
nodes = (
"131 516 LINE",
"136 583 OFFCURVE",
"155 598 OFFCURVE",
"184 598 CURVE SMOOTH",
"209 598 OFFCURVE",
"224 580 OFFCURVE",
"224 521 CURVE SMOOTH",
"224 488 LINE",
"152 480 LINE SMOOTH",
"67 468 OFFCURVE",
"34 428 OFFCURVE",
"34 378 CURVE SMOOTH",
"34 324 OFFCURVE",
"61 286 OFFCURVE",
"128 286 CURVE SMOOTH",
"184 286 OFFCURVE",
"216 308 OFFCURVE",
"241 331 CURVE",
"272 294 LINE",
"325 294 LINE",
"325 522 LINE SMOOTH",
"325 618 OFFCURVE",
"252 638 OFFCURVE",
"184 638 CURVE SMOOTH",
"110 638 OFFCURVE",
"59 604 OFFCURVE",
"50 536 CURVE"
);
},
{
closed = 1;
nodes = (
"142 334 OFFCURVE",
"125 353 OFFCURVE",
"125 380 CURVE SMOOTH",
"125 403 OFFCURVE",
"133 444 OFFCURVE",
"191 452 CURVE SMOOTH",
"224 456 LINE",
"224 354 LINE",
"215 344 OFFCURVE",
"198 334 OFFCURVE",
"172 334 CURVE SMOOTH"
);
},
{
closed = 1;
nodes = (
"26 168 LINE",
"330 168 LINE",
"330 236 LINE",
"26 236 LINE"
);
}
);
width = 367;
},
{
hints = (
{
place = "{18.428571, 115.714286}";
},
{
place = "{165.428571, 116.857143}";
},
{
horizontal = 1;
place = "{125.000000, 71.428571}";
},
{
horizontal = 1;
place = "{245.000000, 74.142857}";
},
{
horizontal = 1;
place = "{446.000000, 86.000000}";
}
);
layerId = "39185045-6A8C-415A-8312-7B8F11386A4C";
name = Bold;
paths = (
{
closed = 1;
nodes = (
"144 508 LINE",
"148 583 OFFCURVE",
"162 587 OFFCURVE",
"181 587 CURVE SMOOTH",
"199 587 OFFCURVE",
"206 569 OFFCURVE",
"206 521 CURVE SMOOTH",
"206 488 LINE",
"143 482 LINE SMOOTH",
"61 473 OFFCURVE",
"24 433 OFFCURVE",
"24 382 CURVE SMOOTH",
"24 324 OFFCURVE",
"55 286 OFFCURVE",
"124 286 CURVE SMOOTH",
"174 286 OFFCURVE",
"202 302 OFFCURVE",
"228 323 CURVE",
"265 294 LINE",
"335 294 LINE",
"335 522 LINE SMOOTH",
"335 618 OFFCURVE",
"251 638 OFFCURVE",
"181 638 CURVE SMOOTH",
"106 638 OFFCURVE",
"48 604 OFFCURVE",
"41 533 CURVE"
);
},
{
closed = 1;
nodes = (
"157 347 OFFCURVE",
"140 360 OFFCURVE",
"140 385 CURVE SMOOTH",
"140 398 OFFCURVE",
"144 444 OFFCURVE",
"193 449 CURVE SMOOTH",
"206 449 LINE",
"206 347 LINE",
"208 349 OFFCURVE",
"198 347 OFFCURVE",
"181 347 CURVE SMOOTH"
);
},
{
closed = 1;
nodes = (
"18 150 LINE",
"338 150 LINE",
"338 238 LINE",
"18 238 LINE"
);
}
);
width = 361;
}
);
unicode = 00AA;
},
{
glyphname = ordmasculine;
lastChange = "2015-05-11 17:51:26 +0000";
layers = (
{
hints = (
{
place = "{9.142857, 89.642857}";
},
{
place = "{185.821429, 89.642857}";
},
{
horizontal = 1;
place = "{140.000000, 55.892857}";
},
{
horizontal = 1;
place = "{238.000000, 67.250000}";
},
{
horizontal = 1;
place = "{464.750000, 67.250000}";
}
);
layerId = "E777F328-EA17-4AE7-9EBA-8002E537BA4F";
name = Regular;
paths = (
{
closed = 1;
nodes = (
"35 168 LINE",
"338 168 LINE",
"338 236 LINE",
"35 236 LINE"
);
},
{
closed = 1;
nodes = (
"137 328 OFFCURVE",
"127 372 OFFCURVE",
"127 462 CURVE SMOOTH",
"127 552 OFFCURVE",
"137 598 OFFCURVE",
"186 598 CURVE SMOOTH",
"238 598 OFFCURVE",
"247 552 OFFCURVE",
"247 462 CURVE SMOOTH",
"247 372 OFFCURVE",
"238 328 OFFCURVE",
"186 328 CURVE SMOOTH"
);
},
{
closed = 1;
nodes = (
"317 286 OFFCURVE",
"347 371 OFFCURVE",
"347 462 CURVE SMOOTH",
"347 553 OFFCURVE",
"317 638 OFFCURVE",
"186 638 CURVE SMOOTH",
"58 638 OFFCURVE",
"26 553 OFFCURVE",
"26 462 CURVE SMOOTH",
"26 371 OFFCURVE",
"58 286 OFFCURVE",
"186 286 CURVE SMOOTH"
);
}
);
width = 374;
},
{
hints = (
{
place = "{-1.571429, 116.428571}";
},
{
place = "{161.714286, 116.428571}";
},
{
horizontal = 1;
place = "{125.000000, 71.428571}";
},
{
horizontal = 1;
place = "{238.000000, 86.000000}";
},
{
horizontal = 1;
place = "{446.000000, 86.000000}";
}
);
layerId = "39185045-6A8C-415A-8312-7B8F11386A4C";
name = Bold;
paths = (
{
closed = 1;
nodes = (
"26 150 LINE",
"347 150 LINE",
"347 238 LINE",
"26 238 LINE"
);
},
{
closed = 1;
nodes = (
"154 336 OFFCURVE",
"145 365 OFFCURVE",
"145 462 CURVE SMOOTH",
"145 559 OFFCURVE",
"154 588 OFFCURVE",
"185 588 CURVE SMOOTH",
"220 588 OFFCURVE",
"226 559 OFFCURVE",
"226 462 CURVE SMOOTH",
"226 365 OFFCURVE",
"220 336 OFFCURVE",
"185 336 CURVE SMOOTH"
);
},
{
closed = 1;
nodes = (
"323 286 OFFCURVE",
"355 371 OFFCURVE",
"355 462 CURVE SMOOTH",
"355 553 OFFCURVE",
"323 638 OFFCURVE",
"185 638 CURVE SMOOTH",
"50 638 OFFCURVE",
"18 553 OFFCURVE",
"18 462 CURVE SMOOTH",
"18 371 OFFCURVE",
"50 286 OFFCURVE",
"185 286 CURVE SMOOTH"
);
}
);
width = 373;
}
);
unicode = 00BA;
},
{
glyphname = Omega;
lastChange = "2015-05-11 17:51:27 +0000";
layers = (
{
anchors = (
{
name = topleft;
position = "{17, 613}";
}
);
hints = (
{
place = "{36.250000, 100.000000}";
},
{
place = "{137.750000, 85.857143}";
},
{
place = "{333.000000, 85.750000}";
},
{
place = "{420.250000, 100.000000}";
},
{
horizontal = 1;
place = "{0.000000, 64.571429}";
},
{
horizontal = 1;
place = "{440.714286, 80.285714}";
}
);
layerId = "E777F328-EA17-4AE7-9EBA-8002E537BA4F";
name = Regular;
paths = (
{
closed = 1;
nodes = (
"181 166 LINE",
"181 0 LINE",
"269 0 LINE",
"269 151 LINE"
);
},
{
closed = 1;
nodes = (
"68 0 LINE",
"181 0 LINE",
"181 78 LINE",
"68 78 LINE"
);
},
{
closed = 1;
nodes = (
"464 577 OFFCURVE",
"511 482 OFFCURVE",
"511 364 CURVE SMOOTH",
"511 264 OFFCURVE",
"478 192 OFFCURVE",
"400 155 CURVE",
"400 110 LINE",
"566 142 OFFCURVE",
"625 271 OFFCURVE",
"625 367 CURVE SMOOTH",
"625 494 OFFCURVE",
"550 626 OFFCURVE",
"334 626 CURVE SMOOTH",
"118 626 OFFCURVE",
"43 494 OFFCURVE",
"43 367 CURVE SMOOTH",
"43 271 OFFCURVE",
"101 142 OFFCURVE",
"268 110 CURVE",
"268 155 LINE",
"190 192 OFFCURVE",
"156 264 OFFCURVE",
"156 364 CURVE SMOOTH",
"156 482 OFFCURVE",
"203 577 OFFCURVE",
"334 577 CURVE SMOOTH"
);
},
{
closed = 1;
nodes = (
"400 151 LINE",
"400 0 LINE",
"487 0 LINE",
"487 166 LINE"
);
},
{
closed = 1;
nodes = (
"599 78 LINE",
"486 78 LINE",
"486 0 LINE",
"599 0 LINE"
);
}
);
width = 668;
},
{
anchors = (
{
name = topleft;
position = "{17, 613}";
}
);
hints = (
{
place = "{25.000000, 130.000000}";
},
{
place = "{119.000000, 111.571429}";
},
{
place = "{318.000000, 112.000000}";
},
{
place = "{394.000000, 130.000000}";
},
{
horizontal = 1;
place = "{0.000000, 81.714286}";
},
{
horizontal = 1;
place = "{417.142857, 103.857143}";
}
);
layerId = "39185045-6A8C-415A-8312-7B8F11386A4C";
name = Bold;
paths = (
{
closed = 1;
nodes = (
"163 184 LINE",
"163 0 LINE",
"277 0 LINE",
"277 157 LINE"
);
},
{
closed = 1;
nodes = (
"55 0 LINE",
"163 0 LINE",
"163 98 LINE",
"55 98 LINE"
);
},
{
closed = 1;
nodes = (
"445 564 OFFCURVE",
"485 478 OFFCURVE",
"485 365 CURVE SMOOTH",
"485 263 OFFCURVE",
"446 203 OFFCURVE",
"382 162 CURVE",
"382 106 LINE",
"568 133 OFFCURVE",
"630 276 OFFCURVE",
"630 367 CURVE SMOOTH",
"630 494 OFFCURVE",
"559 626 OFFCURVE",
"329 626 CURVE SMOOTH",
"100 626 OFFCURVE",
"30 494 OFFCURVE",
"30 367 CURVE SMOOTH",
"30 276 OFFCURVE",
"91 133 OFFCURVE",
"277 106 CURVE",
"277 162 LINE",
"212 203 OFFCURVE",
"174 263 OFFCURVE",
"174 365 CURVE SMOOTH",
"174 478 OFFCURVE",
"214 564 OFFCURVE",
"329 564 CURVE SMOOTH"
);
},
{
closed = 1;
nodes = (
"382 157 LINE",
"382 0 LINE",
"496 0 LINE",
"496 184 LINE"
);
},
{
closed = 1;
nodes = (
"604 98 LINE",
"496 98 LINE",
"496 0 LINE",
"604 0 LINE"
);
}
);
width = 659;
}
);
unicode = 2126;
},
{
glyphname = mu;
lastChange = "2015-05-11 17:51:26 +0000";
layers = (
{
hints = (
{
place = "{65.250000, 99.000000}";
},
{
place = "{310.250000, 99.000000}";
},
{
horizontal = 1;
place = "{-10.000000, 76.000000}";
},
{
horizontal = 1;
place = "{400.000000, -20.000000}";
},
{
horizontal = 1;
place = "{-144.000000, 21.000000}";
},
{
place = "{407.500000, 99.000000}";
},
{
place = "{163.035714, 99.000000}";
},
{
horizontal = 1;
place = "{-10.000000, 75.821429}";
},
{
horizontal = 1;
place = "{0.000000, 65.821429}";
},
{
horizontal = 1;
place = "{400.000000, 21.000000}";
}
);
layerId = "E777F328-EA17-4AE7-9EBA-8002E537BA4F";
name = Regular;
paths = (
{
closed = 1;
nodes = (
"173 62 OFFCURVE",
"229 -12 OFFCURVE",
"336 -12 CURVE SMOOTH",
"450 -12 OFFCURVE",
"490 53 OFFCURVE",
"490 142 CURVE SMOOTH",
"490 480 LINE",
"371 480 LINE",
"371 155 LINE SMOOTH",
"371 88 OFFCURVE",
"348 50 OFFCURVE",
"293 50 CURVE SMOOTH",
"229 50 OFFCURVE",
"186 98 OFFCURVE",
"144 197 CURVE",
"137 126 LINE"
);
},
{
closed = 1;
nodes = (
"196 480 LINE",
"77 480 LINE",
"77 -203 LINE",
"154 -203 LINE",
"196 72 LINE"
);
}
);
width = 558;
},
{
hints = (
{
place = "{54.000000, 129.000000}";
},
{
place = "{284.000000, 129.000000}";
},
{
horizontal = 1;
place = "{-10.000000, 96.714286}";
},
{
horizontal = 1;
place = "{400.000000, -20.000000}";
},
{
horizontal = 1;
place = "{-144.000000, 21.000000}";
},
{
place = "{418.000000, 129.000000}";
},
{
place = "{185.857143, 129.000000}";
},
{
horizontal = 1;
place = "{-10.000000, 96.714286}";
},
{
horizontal = 1;
place = "{0.000000, 86.714286}";
},
{
horizontal = 1;
place = "{400.000000, 21.000000}";
}
);
layerId = "39185045-6A8C-415A-8312-7B8F11386A4C";
name = Bold;
paths = (
{
closed = 1;
nodes = (
"185 71 OFFCURVE",
"226 -12 OFFCURVE",
"343 -12 CURVE SMOOTH",
"469 -12 OFFCURVE",
"502 62 OFFCURVE",
"502 140 CURVE SMOOTH",
"502 480 LINE",
"347 480 LINE",
"347 160 LINE SMOOTH",
"347 107 OFFCURVE",
"337 68 OFFCURVE",
"288 68 CURVE SMOOTH",
"235 68 OFFCURVE",
"199 115 OFFCURVE",
"152 228 CURVE",
"148 133 LINE"
);
},
{
closed = 1;
nodes = (
"223 480 LINE",
"68 480 LINE",
"68 -203 LINE",
"168 -203 LINE",
"223 67 LINE"
);
}
);
width = 562;
}
);
unicode = 00B5;
},
{
glyphname = pi;
lastChange = "2015-05-11 17:51:26 +0000";
layers = (
{
hints = (
{
place = "{72.250000, 99.000000}";
},
{
place = "{286.250000, 99.000000}";
},
{
horizontal = 1;
place = "{336.428571, 63.571429}";
},
{
horizontal = 1;
place = "{15.000000, 21.000000}";
}
);
layerId = "E777F328-EA17-4AE7-9EBA-8002E537BA4F";
name = Regular;
paths = (
{
closed = 1;
nodes = (
"343 480 LINE",
"343 0 LINE",
"462 0 LINE",
"462 480 LINE"
);
},
{
closed = 1;
nodes = (
"86 480 LINE",
"86 0 LINE",
"205 0 LINE",
"205 480 LINE"
);
},
{
closed = 1;
nodes = (
"36 420 LINE",
"512 420 LINE",
"512 480 LINE",
"36 480 LINE"
);
}
);
width = 550;
},
{
hints = (
{
place = "{61.000000, 129.000000}";
},
{
place = "{275.000000, 129.000000}";
},
{
horizontal = 1;
place = "{319.285714, 80.714286}";
},
{
horizontal = 1;
place = "{15.000000, 21.000000}";
}
);
layerId = "39185045-6A8C-415A-8312-7B8F11386A4C";
name = Bold;
paths = (
{
closed = 1;
nodes = (
"330 480 LINE",
"330 0 LINE",
"485 0 LINE",
"485 480 LINE"
);
},
{
closed = 1;
nodes = (
"73 480 LINE",
"73 0 LINE",
"228 0 LINE",
"228 480 LINE"
);
},
{
closed = 1;
nodes = (
"23 402 LINE",
"535 402 LINE",
"535 480 LINE",
"23 480 LINE"
);
}
);
width = 558;
}
);
unicode = 03C0;
},
{
color = 6;
glyphname = "aShort-deva";
lastChange = "2015-05-11 17:51:26 +0000";
layers = (
{
background = {
paths = (
{
closed = 1;
nodes = (
"175 937 OFFCURVE",
"165 907 OFFCURVE",
"165 878 CURVE SMOOTH",
"165 835 OFFCURVE",
"221 775 OFFCURVE",
"332 775 CURVE SMOOTH",
"391 775 OFFCURVE",
"443 786 OFFCURVE",
"478 786 CURVE SMOOTH",
"573 786 OFFCURVE",
"583 716 OFFCURVE",
"583 694 CURVE SMOOTH",
"583 664 OFFCURVE",
"576 639 OFFCURVE",
"569 625 CURVE",
"616 622 LINE",
"620 642 OFFCURVE",
"627 665 OFFCURVE",
"627 706 CURVE SMOOTH",
"627 735 OFFCURVE",
"613 762 OFFCURVE",
"592 786 CURVE SMOOTH",
"567 815 OFFCURVE",
"520 836 OFFCURVE",
"468 836 CURVE SMOOTH",
"436 836 OFFCURVE",
"321 824 OFFCURVE",
"284 824 CURVE SMOOTH",
"243 824 OFFCURVE",
"209 850 OFFCURVE",
"209 893 CURVE SMOOTH",
"209 908 OFFCURVE",
"214 927 OFFCURVE",
"220 948 CURVE",
"181 955 LINE"
);
}
);
};
components = (
{
name = "a-deva";
},
{
name = "eShortMatra-deva";
transform = "{1, 0, 0, 1, 828, 0}";
}
);
layerId = "E777F328-EA17-4AE7-9EBA-8002E537BA4F";
name = Regular;
width = 828;
},
{
components = (
{
name = "a-deva";
},
{
name = "eShortMatra-deva";
transform = "{1, 0, 0, 1, 899, 0}";
}
);
layerId = "39185045-6A8C-415A-8312-7B8F11386A4C";
name = Bold;
width = 899;
}
);
unicode = 0904;
},
{
color = 6;
glyphname = "aCandra-deva";
lastChange = "2015-05-11 17:51:26 +0000";
layers = (
{
anchors = (
{
name = bottom;
position = "{683, 0}";
},
{
name = nukta;
position = "{269, -120}";
},
{
name = top;
position = "{683, 600}";
}
);
background = {
paths = (
{
closed = 1;
nodes = (
"262 323 LINE",
"301 296 OFFCURVE",
"315 249 OFFCURVE",
"315 210 CURVE SMOOTH",
"315 150 OFFCURVE",
"266 98 OFFCURVE",
"196 98 CURVE SMOOTH",
"102 98 OFFCURVE",
"9 199 OFFCURVE",
"-42 284 CURVE",
"-76 262 LINE",
"-27 173 OFFCURVE",
"69 18 OFFCURVE",
"233 18 CURVE SMOOTH",
"330 18 OFFCURVE",
"394 77 OFFCURVE",
"394 173 CURVE SMOOTH",
"394 251 OFFCURVE",
"357 300 OFFCURVE",
"297 351 CURVE"
);
},
{
closed = 1;
nodes = (
"135 667 OFFCURVE",
"49 630 OFFCURVE",
"12 603 CURVE",
"58 516 LINE",
"99 553 OFFCURVE",
"150 586 OFFCURVE",
"206 586 CURVE SMOOTH",
"258 586 OFFCURVE",
"304 544 OFFCURVE",
"304 497 CURVE SMOOTH",
"304 450 OFFCURVE",
"276 425 OFFCURVE",
"244 407 CURVE SMOOTH",
"208 388 OFFCURVE",
"149 382 OFFCURVE",
"113 380 CURVE",
"102 353 LINE",
"137 289 LINE",
"190 296 OFFCURVE",
"232 303 OFFCURVE",
"296 324 CURVE",
"349 365 OFFCURVE",
"367 422 OFFCURVE",
"367 461 CURVE SMOOTH",
"367 557 OFFCURVE",
"252 665 OFFCURVE",
"172 667 CURVE SMOOTH"
);
},
{
closed = 1;
nodes = (
"304 301 LINE",
"361 261 LINE",
"376 270 LINE",
"414 240 OFFCURVE",
"453 220 OFFCURVE",
"501 220 CURVE SMOOTH",
"537 220 OFFCURVE",
"560 230 OFFCURVE",
"577 243 CURVE",
"571 334 LINE",
"541 313 OFFCURVE",
"509 296 OFFCURVE",
"461 296 CURVE SMOOTH",
"404 296 OFFCURVE",
"337 324 OFFCURVE",
"301 346 CURVE"
);
},
{
closed = 1;
nodes = (
"561 605 LINE",
"561 287 LINE",
"499 232 LINE",
"561 232 LINE",
"561 -1 LINE",
"633 -42 LINE",
"649 -42 LINE",
"649 605 LINE"
);
},
{
closed = 1;
nodes = (
"383 650 LINE",
"383 634 LINE",
"415 575 LINE",
"759 575 LINE",
"759 590 LINE",
"727 650 LINE"
);
},
{
closed = 1;
nodes = (
"736 918 LINE",
"708 874 OFFCURVE",
"647 818 OFFCURVE",
"560 818 CURVE SMOOTH",
"494 818 OFFCURVE",
"441 867 OFFCURVE",
"400 925 CURVE",
"368 911 LINE",
"408 843 OFFCURVE",
"486 752 OFFCURVE",
"598 752 CURVE SMOOTH",
"696 752 OFFCURVE",
"753 798 OFFCURVE",
"800 857 CURVE"
);
}
);
};
components = (
{
name = "a-deva";
},
{
name = "eCandraMatra-deva";
transform = "{1, 0, 0, 1, 828, 0}";
}
);
layerId = "E777F328-EA17-4AE7-9EBA-8002E537BA4F";
name = Regular;
width = 828;
},
{
anchors = (
{
name = bottom;
position = "{700, 0}";
},
{
name = nukta;
position = "{292, -132}";
},
{
name = top;
position = "{700, 600}";
}
);
components = (
{
name = "a-deva";
},
{
name = "eCandraMatra-deva";
transform = "{1, 0, 0, 1, 899, 0}";
}
);
layerId = "39185045-6A8C-415A-8312-7B8F11386A4C";
name = Bold;
width = 899;
}
);
unicode = 0972;
},
{
color = 3;
glyphname = "a-deva";
lastChange = "2015-05-11 17:51:26 +0000";
layers = (
{
anchors = (
{
name = bottom;
position = "{684, 0}";
},
{
name = nukta;
position = "{306, -120}";
},
{
name = top;
position = "{684, 600}";
}
);
background = {
paths = (
{
closed = 1;
nodes = (
"150 510 OFFCURVE",
"70 462 OFFCURVE",
"70 405 CURVE SMOOTH",
"70 377 OFFCURVE",
"94 355 OFFCURVE",
"125 355 CURVE SMOOTH",
"146 355 OFFCURVE",
"172 365 OFFCURVE",
"200 385 CURVE",
"187 396 OFFCURVE",
"180 408 OFFCURVE",
"180 420 CURVE SMOOTH",
"180 453 OFFCURVE",
"209 480 OFFCURVE",
"245 480 CURVE SMOOTH",
"286 480 OFFCURVE",
"320 449 OFFCURVE",
"320 410 CURVE SMOOTH",
"320 342 OFFCURVE",
"284 305 OFFCURVE",
"185 305 CURVE",
"150 253 LINE",
"168 260 OFFCURVE",
"190 263 OFFCURVE",
"215 263 CURVE SMOOTH",
"292 263 OFFCURVE",
"355 209 OFFCURVE",
"355 140 CURVE SMOOTH",
"355 76 OFFCURVE",
"310 25 OFFCURVE",
"255 25 CURVE SMOOTH",
"208 25 OFFCURVE",
"170 73 OFFCURVE",
"170 130 CURVE SMOOTH",
"170 146 OFFCURVE",
"172 165 OFFCURVE",
"175 180 CURVE",
"111 180 OFFCURVE",
"60 149 OFFCURVE",
"60 110 CURVE SMOOTH",
"60 43 OFFCURVE",
"147 -10 OFFCURVE",
"255 -10 CURVE SMOOTH",
"371 -10 OFFCURVE",
"465 57 OFFCURVE",
"465 140 CURVE SMOOTH",
"465 210 OFFCURVE",
"426 280 OFFCURVE",
"305 294 CURVE",
"388 316 OFFCURVE",
"430 363 OFFCURVE",
"430 410 CURVE SMOOTH",
"430 465 OFFCURVE",
"360 510 OFFCURVE",
"250 510 CURVE SMOOTH"
);
},
{
closed = 1;
nodes = (
"470 500 LINE",
"470 470 LINE",
"520 470 LINE",
"520 285 LINE",
"467 285 OFFCURVE",
"407 261 OFFCURVE",
"400 229 CURVE",
"394 200 LINE",
"422 227 OFFCURVE",
"467 240 OFFCURVE",
"490 240 CURVE SMOOTH",
"501 240 OFFCURVE",
"511 237 OFFCURVE",
"520 230 CURVE",
"520 0 LINE",
"620 0 LINE",
"620 470 LINE",
"700 470 LINE",
"700 500 LINE"
);
}
);
};
components = (
{
name = "connect-deva";
transform = "{1, 0, 0, 1, 458, -62}";
}
);
layerId = "E777F328-EA17-4AE7-9EBA-8002E537BA4F";
name = Regular;
paths = (
{
closed = 1;
nodes = (
"154 612 OFFCURVE",
"60 550 OFFCURVE",
"60 474 CURVE SMOOTH",
"60 428 OFFCURVE",
"89 406 OFFCURVE",
"120 406 CURVE SMOOTH",
"149 406 OFFCURVE",
"180 419 OFFCURVE",
"204 450 CURVE",
"188 463 OFFCURVE",
"180 482 OFFCURVE",
"180 504 CURVE SMOOTH",
"180 544 OFFCURVE",
"218 576 OFFCURVE",
"270 576 CURVE SMOOTH",
"314 576 OFFCURVE",
"348 539 OFFCURVE",
"348 492 CURVE SMOOTH",
"348 407 OFFCURVE",
"293 360 OFFCURVE",
"186 360 CURVE",
"156 304 LINE",
"179 312 OFFCURVE",
"204 316 OFFCURVE",
"234 316 CURVE SMOOTH",
"320 316 OFFCURVE",
"390 251 OFFCURVE",
"390 168 CURVE SMOOTH",
"390 91 OFFCURVE",
"350 30 OFFCURVE",
"270 30 CURVE SMOOTH",
"211 30 OFFCURVE",
"168 88 OFFCURVE",
"168 156 CURVE SMOOTH",
"168 175 OFFCURVE",
"170 198 OFFCURVE",
"174 216 CURVE",
"94 216 OFFCURVE",
"48 179 OFFCURVE",
"48 132 CURVE SMOOTH",
"48 52 OFFCURVE",
"136 -12 OFFCURVE",
"270 -12 CURVE SMOOTH",
"410 -12 OFFCURVE",
"522 68 OFFCURVE",
"522 168 CURVE SMOOTH",
"522 251 OFFCURVE",
"463 334 OFFCURVE",
"330 352 CURVE",
"430 380 OFFCURVE",
"480 436 OFFCURVE",
"480 492 CURVE SMOOTH",
"480 558 OFFCURVE",
"400 612 OFFCURVE",
"270 612 CURVE SMOOTH"
);
},
{
closed = 1;
nodes = (
"564 600 LINE",
"564 564 LINE",
"624 564 LINE",
"624 0 LINE",
"744 0 LINE",
"744 564 LINE",
"840 564 LINE",
"840 600 LINE"
);
}
);
width = 828;
},
{
anchors = (
{
name = bottom;
position = "{737, 0}";
},
{
name = nukta;
position = "{329, -132}";
},
{
name = top;
position = "{737, 600}";
}
);
components = (
{
name = "connect-deva";
transform = "{1, 0, 0, 1, 497, -62}";
}
);
layerId = "39185045-6A8C-415A-8312-7B8F11386A4C";
name = Bold;
paths = (
{
closed = 1;
nodes = (
"156 612 OFFCURVE",
"54 553 OFFCURVE",
"54 480 CURVE SMOOTH",
"54 426 OFFCURVE",
"90 396 OFFCURVE",
"134 396 CURVE SMOOTH",
"169 396 OFFCURVE",
"208 412 OFFCURVE",
"239 444 CURVE",
"221 460 OFFCURVE",
"210 479 OFFCURVE",
"210 498 CURVE SMOOTH",
"210 541 OFFCURVE",
"245 564 OFFCURVE",
"281 564 CURVE SMOOTH",
"319 564 OFFCURVE",
"350 532 OFFCURVE",
"350 492 CURVE SMOOTH",
"350 413 OFFCURVE",
"292 372 OFFCURVE",
"209 372 CURVE",
"167 300 LINE",
"188 308 OFFCURVE",
"215 312 OFFCURVE",
"245 312 CURVE SMOOTH",
"326 312 OFFCURVE",
"392 248 OFFCURVE",
"392 168 CURVE SMOOTH",
"392 100 OFFCURVE",
"359 42 OFFCURVE",
"293 42 CURVE SMOOTH",
"232 42 OFFCURVE",
"198 94 OFFCURVE",
"198 156 CURVE SMOOTH",
"198 182 OFFCURVE",
"202 200 OFFCURVE",
"209 228 CURVE",
"94 228 OFFCURVE",
"42 179 OFFCURVE",
"42 132 CURVE SMOOTH",
"42 40 OFFCURVE",
"155 -12 OFFCURVE",
"293 -12 CURVE SMOOTH",
"443 -12 OFFCURVE",
"564 68 OFFCURVE",
"564 168 CURVE SMOOTH",
"564 274 OFFCURVE",
"492 330 OFFCURVE",
"377 360 CURVE",
"463 383 OFFCURVE",
"522 438 OFFCURVE",
"522 492 CURVE SMOOTH",
"522 558 OFFCURVE",
"414 612 OFFCURVE",
"281 612 CURVE SMOOTH"
);
},
{
closed = 1;
nodes = (
"599 600 LINE",
"599 564 LINE",
"659 564 LINE",
"659 0 LINE",
"815 0 LINE",
"815 564 LINE",
"911 564 LINE",
"911 600 LINE"
);
}
);
width = 899;
},
{
anchors = (
{
name = bottom;
position = "{539, 0}";
},
{
name = nukta;
position = "{224, -100}";
},
{
name = top;
position = "{539, 500}";
}
);
associatedMasterId = "E777F328-EA17-4AE7-9EBA-8002E537BA4F";
background = {
paths = (
{
closed = 1;
nodes = (
"119 510 OFFCURVE",
"39 462 OFFCURVE",
"39 405 CURVE SMOOTH",
"39 377 OFFCURVE",
"63 355 OFFCURVE",
"94 355 CURVE SMOOTH",
"115 355 OFFCURVE",
"141 365 OFFCURVE",
"169 385 CURVE",
"156 396 OFFCURVE",
"149 408 OFFCURVE",
"149 420 CURVE SMOOTH",
"149 453 OFFCURVE",
"178 480 OFFCURVE",
"214 480 CURVE SMOOTH",
"255 480 OFFCURVE",
"289 449 OFFCURVE",
"289 410 CURVE SMOOTH",
"289 342 OFFCURVE",
"253 305 OFFCURVE",
"154 305 CURVE",
"119 253 LINE",
"137 260 OFFCURVE",
"159 263 OFFCURVE",
"184 263 CURVE SMOOTH",
"261 263 OFFCURVE",
"324 209 OFFCURVE",
"324 140 CURVE SMOOTH",
"324 76 OFFCURVE",
"279 25 OFFCURVE",
"224 25 CURVE SMOOTH",
"177 25 OFFCURVE",
"139 73 OFFCURVE",
"139 130 CURVE SMOOTH",
"139 146 OFFCURVE",
"141 165 OFFCURVE",
"144 180 CURVE",
"80 180 OFFCURVE",
"29 149 OFFCURVE",
"29 110 CURVE SMOOTH",
"29 43 OFFCURVE",
"116 -10 OFFCURVE",
"224 -10 CURVE SMOOTH",
"340 -10 OFFCURVE",
"434 57 OFFCURVE",
"434 140 CURVE SMOOTH",
"434 210 OFFCURVE",
"395 280 OFFCURVE",
"274 294 CURVE",
"357 316 OFFCURVE",
"399 363 OFFCURVE",
"399 410 CURVE SMOOTH",
"399 465 OFFCURVE",
"329 510 OFFCURVE",
"219 510 CURVE SMOOTH"
);
},
{
closed = 1;
nodes = (
"439 500 LINE",
"439 470 LINE",
"489 470 LINE",
"489 285 LINE",
"436 285 OFFCURVE",
"376 261 OFFCURVE",
"369 229 CURVE",
"363 200 LINE",
"391 227 OFFCURVE",
"436 240 OFFCURVE",
"459 240 CURVE SMOOTH",
"470 240 OFFCURVE",
"480 237 OFFCURVE",
"489 230 CURVE",
"489 0 LINE",
"589 0 LINE",
"589 470 LINE",
"669 470 LINE",
"669 500 LINE"
);
}
);
};
layerId = "6E756E2E-D470-44DE-BAD6-A89DF6FCE0D8";
name = "Regular Nov 12 14, 16:23";
paths = (
{
closed = 1;
nodes = (
"127 510 OFFCURVE",
"49 458 OFFCURVE",
"49 395 CURVE SMOOTH",
"49 357 OFFCURVE",
"73 338 OFFCURVE",
"99 338 CURVE SMOOTH",
"123 338 OFFCURVE",
"149 349 OFFCURVE",
"169 375 CURVE",
"156 386 OFFCURVE",
"149 402 OFFCURVE",
"149 420 CURVE SMOOTH",
"149 453 OFFCURVE",
"181 480 OFFCURVE",
"224 480 CURVE SMOOTH",
"261 480 OFFCURVE",
"289 449 OFFCURVE",
"289 410 CURVE SMOOTH",
"289 339 OFFCURVE",
"243 300 OFFCURVE",
"154 300 CURVE",
"129 253 LINE",
"148 260 OFFCURVE",
"169 263 OFFCURVE",
"194 263 CURVE SMOOTH",
"266 263 OFFCURVE",
"324 209 OFFCURVE",
"324 140 CURVE SMOOTH",
"324 76 OFFCURVE",
"291 25 OFFCURVE",
"224 25 CURVE SMOOTH",
"175 25 OFFCURVE",
"139 73 OFFCURVE",
"139 130 CURVE SMOOTH",
"139 146 OFFCURVE",
"141 165 OFFCURVE",
"144 180 CURVE",
"77 180 OFFCURVE",
"39 149 OFFCURVE",
"39 110 CURVE SMOOTH",
"39 43 OFFCURVE",
"112 -10 OFFCURVE",
"224 -10 CURVE SMOOTH",
"341 -10 OFFCURVE",
"434 57 OFFCURVE",
"434 140 CURVE SMOOTH",
"434 209 OFFCURVE",
"385 278 OFFCURVE",
"274 293 CURVE",
"357 317 OFFCURVE",
"399 363 OFFCURVE",
"399 410 CURVE SMOOTH",
"399 465 OFFCURVE",
"332 510 OFFCURVE",
"224 510 CURVE SMOOTH"
);
},
{
closed = 1;
nodes = (
"439 500 LINE",
"439 470 LINE",
"489 470 LINE",
"489 285 LINE",
"436 285 OFFCURVE",
"389 265 OFFCURVE",
"363 229 CURVE",
"363 205 LINE",
"388 227 OFFCURVE",
"428 245 OFFCURVE",
"449 245 CURVE SMOOTH",
"465 245 OFFCURVE",
"478 242 OFFCURVE",
"489 235 CURVE",
"489 0 LINE",
"589 0 LINE",
"589 470 LINE",
"669 470 LINE",
"669 500 LINE"
);
}
);
width = 659;
},
{
anchors = (
{
name = bottom;
position = "{583, 0}";
},
{
name = nukta;
position = "{243, -110}";
},
{
name = top;
position = "{583, 500}";
}
);
associatedMasterId = "39185045-6A8C-415A-8312-7B8F11386A4C";
layerId = "AC5E5C0E-A4F5-429B-A884-7A336EAB9CBA";
name = "Bold Nov 12 14, 16:23";
paths = (
{
closed = 1;
nodes = (
"129 510 OFFCURVE",
"44 461 OFFCURVE",
"44 400 CURVE SMOOTH",
"44 355 OFFCURVE",
"74 330 OFFCURVE",
"111 330 CURVE SMOOTH",
"140 330 OFFCURVE",
"172 343 OFFCURVE",
"198 370 CURVE",
"183 383 OFFCURVE",
"174 399 OFFCURVE",
"174 415 CURVE SMOOTH",
"174 451 OFFCURVE",
"203 470 OFFCURVE",
"233 470 CURVE SMOOTH",
"265 470 OFFCURVE",
"291 443 OFFCURVE",
"291 410 CURVE SMOOTH",
"291 344 OFFCURVE",
"242 310 OFFCURVE",
"173 310 CURVE",
"138 250 LINE",
"156 257 OFFCURVE",
"178 260 OFFCURVE",
"203 260 CURVE SMOOTH",
"271 260 OFFCURVE",
"326 207 OFFCURVE",
"326 140 CURVE SMOOTH",
"326 83 OFFCURVE",
"298 35 OFFCURVE",
"243 35 CURVE SMOOTH",
"192 35 OFFCURVE",
"164 78 OFFCURVE",
"164 130 CURVE SMOOTH",
"164 152 OFFCURVE",
"167 167 OFFCURVE",
"173 190 CURVE",
"77 190 OFFCURVE",
"34 149 OFFCURVE",
"34 110 CURVE SMOOTH",
"34 33 OFFCURVE",
"128 -10 OFFCURVE",
"243 -10 CURVE SMOOTH",
"368 -10 OFFCURVE",
"469 57 OFFCURVE",
"469 140 CURVE SMOOTH",
"469 228 OFFCURVE",
"409 275 OFFCURVE",
"313 300 CURVE",
"385 319 OFFCURVE",
"434 365 OFFCURVE",
"434 410 CURVE SMOOTH",
"434 465 OFFCURVE",
"344 510 OFFCURVE",
"233 510 CURVE SMOOTH"
);
},
{
closed = 1;
nodes = (
"468 500 LINE",
"468 470 LINE",
"518 470 LINE",
"518 290 LINE",
"471 290 OFFCURVE",
"419 273 OFFCURVE",
"398 238 CURVE",
"398 200 LINE",
"422 224 OFFCURVE",
"454 238 OFFCURVE",
"476 238 CURVE SMOOTH",
"492 238 OFFCURVE",
"504 236 OFFCURVE",
"518 230 CURVE",
"518 0 LINE",
"648 0 LINE",
"648 470 LINE",
"728 470 LINE",
"728 500 LINE"
);
}
);
width = 718;
}
);
unicode = 0905;
},
{
color = 6;
glyphname = "i-deva";
lastChange = "2015-05-11 17:51:26 +0000";
layers = (
{
anchors = (
{
name = top;
position = "{460, 600}";
}
);
background = {
paths = (
{
closed = 1;
nodes = (
"383 56 OFFCURVE",
"308 20 OFFCURVE",
"235 20 CURVE SMOOTH",
"174 20 OFFCURVE",
"113 52 OFFCURVE",
"113 114 CURVE SMOOTH",
"113 133 OFFCURVE",
"122 148 OFFCURVE",
"133 148 CURVE SMOOTH",
"154 148 OFFCURVE",
"169 125 OFFCURVE",
"233 4 CURVE SMOOTH",
"263 -53 OFFCURVE",
"301 -89 OFFCURVE",
"355 -89 CURVE SMOOTH",
"395 -89 OFFCURVE",
"429 -75 OFFCURVE",
"446 -51 CURVE",
"384 -51 OFFCURVE",
"356 -34 OFFCURVE",
"330 15 CURVE SMOOTH",
"262 142 OFFCURVE",
"218 178 OFFCURVE",
"133 178 CURVE SMOOTH",
"78 178 OFFCURVE",
"34 146 OFFCURVE",
"34 104 CURVE SMOOTH",
"34 38 OFFCURVE",
"119 -10 OFFCURVE",
"228 -10 CURVE SMOOTH",
"352 -10 OFFCURVE",
"483 35 OFFCURVE",
"483 140 CURVE",
"483 309 OFFCURVE",
"183 277 OFFCURVE",
"183 360 CURVE SMOOTH",
"183 389 OFFCURVE",
"213 400 OFFCURVE",
"238 400 CURVE SMOOTH",
"281 400 OFFCURVE",
"323 381 OFFCURVE",
"353 350 CURVE",
"433 375 LINE",
"433 470 LINE",
"514 470 LINE",
"514 500 LINE",
"-10 500 LINE",
"-10 470 LINE",
"333 470 LINE",
"333 407 LINE",
"288 426 OFFCURVE",
"253 430 OFFCURVE",
"218 430 CURVE SMOOTH",
"145 430 OFFCURVE",
"83 402 OFFCURVE",
"83 337 CURVE SMOOTH",
"83 201 OFFCURVE",
"383 240 OFFCURVE",
"383 123 CURVE"
);
}
);
};
layerId = "E777F328-EA17-4AE7-9EBA-8002E537BA4F";
name = Regular;
paths = (
{
closed = 1;
nodes = (
"460 67 OFFCURVE",
"370 24 OFFCURVE",
"282 24 CURVE SMOOTH",
"215 24 OFFCURVE",
"145 62 OFFCURVE",
"145 137 CURVE SMOOTH",
"145 158 OFFCURVE",
"155 184 OFFCURVE",
"181 184 CURVE SMOOTH",
"266 184 OFFCURVE",
"274 -107 OFFCURVE",
"444 -107 CURVE SMOOTH",
"488 -107 OFFCURVE",
"520 -90 OFFCURVE",
"535 -61 CURVE",
"336 -61 OFFCURVE",
"389 220 OFFCURVE",
"181 220 CURVE SMOOTH",
"107 220 OFFCURVE",
"49 188 OFFCURVE",
"49 125 CURVE SMOOTH",
"49 46 OFFCURVE",
"149 -12 OFFCURVE",
"274 -12 CURVE SMOOTH",
"422 -12 OFFCURVE",
"580 42 OFFCURVE",
"580 168 CURVE",
"580 371 OFFCURVE",
"220 332 OFFCURVE",
"220 432 CURVE SMOOTH",
"220 467 OFFCURVE",
"256 480 OFFCURVE",
"286 480 CURVE SMOOTH",
"337 480 OFFCURVE",
"388 457 OFFCURVE",
"424 420 CURVE",
"520 450 LINE",
"520 564 LINE",
"616 564 LINE",
"616 600 LINE",
"-12 600 LINE",
"-12 564 LINE",
"400 564 LINE",
"400 488 LINE",
"346 511 OFFCURVE",
"304 516 OFFCURVE",
"262 516 CURVE SMOOTH",
"174 516 OFFCURVE",
"100 482 OFFCURVE",
"100 404 CURVE SMOOTH",
"100 241 OFFCURVE",
"460 288 OFFCURVE",
"460 148 CURVE"
);
}
);
width = 604;
},
{
anchors = (
{
name = top;
position = "{479, 600}";
}
);
background = {
paths = (
{
closed = 1;
nodes = (
"377 63 OFFCURVE",
"309 30 OFFCURVE",
"241 30 CURVE SMOOTH",
"177 30 OFFCURVE",
"116 57 OFFCURVE",
"116 112 CURVE SMOOTH",
"116 132 OFFCURVE",
"126 142 OFFCURVE",
"135 142 CURVE SMOOTH",
"145 142 OFFCURVE",
"166 133 OFFCURVE",
"220 15 CURVE SMOOTH",
"250 -51 OFFCURVE",
"300 -95.943 OFFCURVE",
"365 -96 CURVE SMOOTH",
"422 -96 OFFCURVE",
"466 -78 OFFCURVE",
"486 -47 CURVE",
"415 -47 OFFCURVE",
"376 -37 OFFCURVE",
"342 29 CURVE SMOOTH",
"290 129 OFFCURVE",
"242 182 OFFCURVE",
"135 182 CURVE SMOOTH",
"70 182 OFFCURVE",
"19 149 OFFCURVE",
"19 108 CURVE SMOOTH",
"19 30 OFFCURVE",
"115 -10 OFFCURVE",
"231 -10 CURVE SMOOTH",
"355 -10 OFFCURVE",
"520 28 OFFCURVE",
"520 150 CURVE",
"520 314 OFFCURVE",
"222 295 OFFCURVE",
"222 363 CURVE SMOOTH",
"222 380 OFFCURVE",
"236 390 OFFCURVE",
"264 390 CURVE SMOOTH",
"297 390 OFFCURVE",
"328 375 OFFCURVE",
"353 350 CURVE",
"464 384 LINE",
"464 470 LINE",
"556 470 LINE",
"556 500 LINE",
"-10 500 LINE",
"-10 470 LINE",
"334 470 LINE",
"334 413 LINE",
"303 424 OFFCURVE",
"278 430 OFFCURVE",
"219 430 CURVE SMOOTH",
"140 430 OFFCURVE",
"79 399 OFFCURVE",
"79 335 CURVE SMOOTH",
"79 195 OFFCURVE",
"377 242 OFFCURVE",
"377 125 CURVE"
);
}
);
};
layerId = "39185045-6A8C-415A-8312-7B8F11386A4C";
name = Bold;
paths = (
{
closed = 1;
nodes = (
"452 76 OFFCURVE",
"371 36 OFFCURVE",
"289 36 CURVE SMOOTH",
"230 36 OFFCURVE",
"172 58 OFFCURVE",
"172 124 CURVE SMOOTH",
"172 148 OFFCURVE",
"187 172 OFFCURVE",
"206 172 CURVE SMOOTH",
"294 172 OFFCURVE",
"269 -115 OFFCURVE",
"474 -115 CURVE SMOOTH",
"527 -115 OFFCURVE",
"565 -94 OFFCURVE",
"583 -56 CURVE",
"349 -56 OFFCURVE",
"448 220 OFFCURVE",
"206 220 CURVE SMOOTH",
"97 220 OFFCURVE",
"47 172 OFFCURVE",
"47 119 CURVE SMOOTH",
"47 25 OFFCURVE",
"151 -12 OFFCURVE",
"277 -12 CURVE SMOOTH",
"426 -12 OFFCURVE",
"624 34 OFFCURVE",
"624 180 CURVE",
"624 377 OFFCURVE",
"266 354 OFFCURVE",
"266 436 CURVE SMOOTH",
"266 456 OFFCURVE",
"283 468 OFFCURVE",
"317 468 CURVE SMOOTH",
"356 468 OFFCURVE",
"394 450 OFFCURVE",
"424 420 CURVE",
"557 461 LINE",
"557 564 LINE",
"667 564 LINE",
"667 600 LINE",
"-12 600 LINE",
"-12 564 LINE",
"401 564 LINE",
"401 496 LINE",
"364 509 OFFCURVE",
"334 516 OFFCURVE",
"263 516 CURVE SMOOTH",
"168 516 OFFCURVE",
"95 479 OFFCURVE",
"95 402 CURVE SMOOTH",
"95 234 OFFCURVE",
"452 290 OFFCURVE",
"452 150 CURVE"
);
}
);
width = 655;
}
);
unicode = 0907;
},
{
color = 6;
glyphname = "ii-deva";
lastChange = "2015-05-11 17:51:26 +0000";
layers = (
{
anchors = (
{
name = top;
position = "{460, 600}";
}
);
background = {
paths = (
{
closed = 1;
nodes = (
"268 964 OFFCURVE",
"186 909 OFFCURVE",
"186 822 CURVE SMOOTH",
"186 755 OFFCURVE",
"239 684 OFFCURVE",
"304 633 CURVE",
"304 572 LINE",
"369 631 LINE",
"329 668 OFFCURVE",
"281 735 OFFCURVE",
"281 795 CURVE SMOOTH",
"281 859 OFFCURVE",
"321 890 OFFCURVE",
"370 890 CURVE SMOOTH",
"414 890 OFFCURVE",
"467 864 OFFCURVE",
"489 847 CURVE",
"515 889 LINE",
"472 934 OFFCURVE",
"414 964 OFFCURVE",
"355 964 CURVE SMOOTH"
);
},
{
closed = 0;
nodes = (
"183 826 LINE",
"288 796 LINE"
);
},
{
closed = 0;
nodes = (
"347 979 LINE",
"368 876 LINE"
);
}
);
};
components = (
{
name = "i-deva";
},
{
name = "reph-deva";
transform = "{1, 0, 0, 1, 620, 0}";
}
);
layerId = "E777F328-EA17-4AE7-9EBA-8002E537BA4F";
name = Regular;
width = 604;
},
{
anchors = (
{
name = top;
position = "{479, 600}";
}
);
components = (
{
name = "i-deva";
},
{
name = "reph-deva";
transform = "{1, 0, 0, 1, 657, 0}";
}
);
layerId = "39185045-6A8C-415A-8312-7B8F11386A4C";
name = Bold;
width = 655;
}
);
unicode = 0908;
},
{
color = 6;
glyphname = "u-deva";
lastChange = "2015-05-11 17:51:26 +0000";
layers = (
{
anchors = (
{
name = bottom;
position = "{300, 0}";
},
{
name = top;
position = "{330, 600}";
}
);
background = {
paths = (
{
closed = 1;
nodes = (
"119 253 LINE",
"137 260 OFFCURVE",
"159 263 OFFCURVE",
"184 263 CURVE SMOOTH",
"261 263 OFFCURVE",
"324 209 OFFCURVE",
"324 140 CURVE SMOOTH",
"324 76 OFFCURVE",
"279 25 OFFCURVE",
"224 25 CURVE SMOOTH",
"177 25 OFFCURVE",
"139 73 OFFCURVE",
"139 130 CURVE SMOOTH",
"139 146 OFFCURVE",
"141 165 OFFCURVE",
"144 180 CURVE",
"70 180 OFFCURVE",
"29 149 OFFCURVE",
"29 110 CURVE SMOOTH",
"29 43 OFFCURVE",
"106 -10 OFFCURVE",
"224 -10 CURVE SMOOTH",
"340 -10 OFFCURVE",
"434 57 OFFCURVE",
"434 140 CURVE SMOOTH",
"434 210 OFFCURVE",
"395 280 OFFCURVE",
"274 294 CURVE",
"357 314 OFFCURVE",
"399 351 OFFCURVE",
"399 398 CURVE SMOOTH",
"399 444 OFFCURVE",
"318 495 OFFCURVE",
"189 495 CURVE",
"184 470 LINE",
"253 470 OFFCURVE",
"289 427 OFFCURVE",
"289 388 CURVE SMOOTH",
"289 328 OFFCURVE",
"250 305 OFFCURVE",
"154 305 CURVE"
);
}
);
};
layerId = "E777F328-EA17-4AE7-9EBA-8002E537BA4F";
name = Regular;
paths = (
{
closed = 1;
nodes = (
"-12 600 LINE",
"-12 564 LINE",
"568 564 LINE",
"568 600 LINE"
);
},
{
closed = 1;
nodes = (
"269 564 LINE",
"313 564 OFFCURVE",
"347 528 OFFCURVE",
"347 480 CURVE SMOOTH",
"347 402 OFFCURVE",
"292 360 OFFCURVE",
"185 360 CURVE",
"155 304 LINE",
"178 312 OFFCURVE",
"203 316 OFFCURVE",
"233 316 CURVE SMOOTH",
"319 316 OFFCURVE",
"389 251 OFFCURVE",
"389 168 CURVE SMOOTH",
"389 91 OFFCURVE",
"349 30 OFFCURVE",
"269 30 CURVE SMOOTH",
"210 30 OFFCURVE",
"167 88 OFFCURVE",
"167 156 CURVE SMOOTH",
"167 175 OFFCURVE",
"169 198 OFFCURVE",
"173 216 CURVE",
"92 216 OFFCURVE",
"47 179 OFFCURVE",
"47 132 CURVE SMOOTH",
"47 52 OFFCURVE",
"134 -12 OFFCURVE",
"269 -12 CURVE SMOOTH",
"409 -12 OFFCURVE",
"521 68 OFFCURVE",
"521 168 CURVE SMOOTH",
"521 251 OFFCURVE",
"462 334 OFFCURVE",
"329 352 CURVE",
"428 378 OFFCURVE",
"479 427 OFFCURVE",
"479 480 CURVE SMOOTH",
"479 539 OFFCURVE",
"398 588 OFFCURVE",
"269 588 CURVE"
);
}
);
width = 556;
},
{
anchors = (
{
name = bottom;
position = "{318, 0}";
},
{
name = top;
position = "{366, 600}";
}
);
background = {
paths = (
{
closed = 1;
nodes = (
"148 250 LINE",
"166 257 OFFCURVE",
"188 260 OFFCURVE",
"213 260 CURVE SMOOTH",
"285 260 OFFCURVE",
"343 207 OFFCURVE",
"343 140 CURVE SMOOTH",
"343 83 OFFCURVE",
"302 35 OFFCURVE",
"253 35 CURVE SMOOTH",
"212 35 OFFCURVE",
"174 78 OFFCURVE",
"174 130 CURVE SMOOTH",
"174 152 OFFCURVE",
"177 167 OFFCURVE",
"183 190 CURVE",
"83 190 OFFCURVE",
"38 149 OFFCURVE",
"38 110 CURVE SMOOTH",
"38 33 OFFCURVE",
"135 -10 OFFCURVE",
"253 -10 CURVE SMOOTH",
"378 -10 OFFCURVE",
"479 57 OFFCURVE",
"479 140 CURVE SMOOTH",
"479 228 OFFCURVE",
"419 275 OFFCURVE",
"323 300 CURVE",
"395 317 OFFCURVE",
"444 359 OFFCURVE",
"444 400 CURVE SMOOTH",
"444 456 OFFCURVE",
"339 492 OFFCURVE",
"208 492 CURVE",
"203 470 LINE",
"284 470 OFFCURVE",
"308 435 OFFCURVE",
"308 390 CURVE SMOOTH",
"308 336 OFFCURVE",
"275 310 OFFCURVE",
"183 310 CURVE"
);
}
);
};
layerId = "39185045-6A8C-415A-8312-7B8F11386A4C";
name = Bold;
paths = (
{
closed = 1;
nodes = (
"-12 600 LINE",
"-12 564 LINE",
"611 564 LINE",
"611 600 LINE"
);
},
{
closed = 1;
nodes = (
"292 564 LINE",
"330 564 OFFCURVE",
"361 527 OFFCURVE",
"361 480 CURVE SMOOTH",
"361 408 OFFCURVE",
"302 372 OFFCURVE",
"220 372 CURVE",
"178 300 LINE",
"199 308 OFFCURVE",
"226 312 OFFCURVE",
"256 312 CURVE SMOOTH",
"337 312 OFFCURVE",
"403 248 OFFCURVE",
"403 168 CURVE SMOOTH",
"403 100 OFFCURVE",
"370 42 OFFCURVE",
"304 42 CURVE SMOOTH",
"242 42 OFFCURVE",
"209 94 OFFCURVE",
"209 156 CURVE SMOOTH",
"209 182 OFFCURVE",
"212 200 OFFCURVE",
"220 228 CURVE",
"104 228 OFFCURVE",
"53 179 OFFCURVE",
"53 132 CURVE SMOOTH",
"53 40 OFFCURVE",
"166 -12 OFFCURVE",
"304 -12 CURVE SMOOTH",
"454 -12 OFFCURVE",
"575 68 OFFCURVE",
"575 168 CURVE SMOOTH",
"575 274 OFFCURVE",
"503 330 OFFCURVE",
"388 360 CURVE",
"474 380 OFFCURVE",
"533 431 OFFCURVE",
"533 480 CURVE SMOOTH",
"533 539 OFFCURVE",
"425 588 OFFCURVE",
"292 588 CURVE"
);
}
);
width = 599;
}
);
unicode = 0909;
},
{
color = 6;
glyphname = "uu-deva";
lastChange = "2015-05-11 17:51:26 +0000";
layers = (
{
anchors = (
{
name = bottom;
position = "{324, 0}";
},
{
name = top;
position = "{330, 600}";
}
);
background = {
paths = (
{
closed = 1;
nodes = (
"399 225 LINE",
"418 270 OFFCURVE",
"454 300 OFFCURVE",
"494 300 CURVE SMOOTH",
"535 300 OFFCURVE",
"574 252 OFFCURVE",
"574 180 CURVE SMOOTH",
"574 111 OFFCURVE",
"535 40 OFFCURVE",
"474 10 CURVE",
"544 0 LINE",
"628 31 OFFCURVE",
"684 111 OFFCURVE",
"684 200 CURVE SMOOTH",
"684 283 OFFCURVE",
"615 350 OFFCURVE",
"536 350 CURVE SMOOTH",
"471 350 OFFCURVE",
"410 314 OFFCURVE",
"374 255 CURVE"
);
}
);
};
layerId = "E777F328-EA17-4AE7-9EBA-8002E537BA4F";
name = Regular;
paths = (
{
closed = 1;
nodes = (
"-12 600 LINE",
"-12 564 LINE",
"845 564 LINE",
"845 600 LINE"
);
},
{
closed = 1;
nodes = (
"269 564 LINE",
"313 564 OFFCURVE",
"347 528 OFFCURVE",
"347 480 CURVE SMOOTH",
"347 402 OFFCURVE",
"292 360 OFFCURVE",
"185 360 CURVE",
"155 304 LINE",
"178 312 OFFCURVE",
"203 316 OFFCURVE",
"233 316 CURVE SMOOTH",
"319 316 OFFCURVE",
"389 251 OFFCURVE",
"389 168 CURVE SMOOTH",
"389 91 OFFCURVE",
"349 30 OFFCURVE",
"269 30 CURVE SMOOTH",
"210 30 OFFCURVE",
"167 88 OFFCURVE",
"167 156 CURVE SMOOTH",
"167 175 OFFCURVE",
"169 198 OFFCURVE",
"173 216 CURVE",
"92 216 OFFCURVE",
"47 179 OFFCURVE",
"47 132 CURVE SMOOTH",
"47 52 OFFCURVE",
"134 -12 OFFCURVE",
"269 -12 CURVE SMOOTH",
"409 -12 OFFCURVE",
"521 68 OFFCURVE",
"521 168 CURVE SMOOTH",
"521 251 OFFCURVE",
"462 334 OFFCURVE",
"329 352 CURVE",
"428 378 OFFCURVE",
"479 427 OFFCURVE",
"479 480 CURVE SMOOTH",
"479 539 OFFCURVE",
"398 588 OFFCURVE",
"269 588 CURVE"
);
},
{
closed = 1;
nodes = (
"480 192 LINE",
"482 295 OFFCURVE",
"534 378 OFFCURVE",
"599 378 CURVE SMOOTH",
"661 378 OFFCURVE",
"689 296 OFFCURVE",
"689 240 CURVE",
"689 120 OFFCURVE",
"636 47 OFFCURVE",
"534 47 CURVE",
"534 13 OFFCURVE",
"570 -12 OFFCURVE",
"619 -12 CURVE",
"731 -12 OFFCURVE",
"809 76 OFFCURVE",
"809 204 CURVE",
"809 323 OFFCURVE",
"722 414 OFFCURVE",
"611 414 CURVE SMOOTH",
"546 414 OFFCURVE",
"485 385 OFFCURVE",
"449 282 CURVE"
);
}
);
width = 833;
},
{
anchors = (
{
name = bottom;
position = "{342, 0}";
},
{
name = top;
position = "{366, 600}";
}
);
background = {
paths = (
{
closed = 1;
nodes = (
"444 220 LINE",
"464 263 OFFCURVE",
"495 290 OFFCURVE",
"524 290 CURVE SMOOTH",
"568 290 OFFCURVE",
"604 237 OFFCURVE",
"604 170 CURVE SMOOTH",
"604 99 OFFCURVE",
"566 37 OFFCURVE",
"509 10 CURVE",
"614 0 LINE",
"694 27 OFFCURVE",
"747 102 OFFCURVE",
"747 191 CURVE SMOOTH",
"747 280 OFFCURVE",
"673 350 OFFCURVE",
"581 350 CURVE SMOOTH",
"514 350 OFFCURVE",
"450 314 OFFCURVE",
"414 255 CURVE"
);
}
);
};
layerId = "39185045-6A8C-415A-8312-7B8F11386A4C";
name = Bold;
paths = (
{
closed = 1;
nodes = (
"-12 600 LINE",
"-12 564 LINE",
"912 564 LINE",
"912 600 LINE"
);
},
{
closed = 1;
nodes = (
"292 564 LINE",
"330 564 OFFCURVE",
"361 527 OFFCURVE",
"361 480 CURVE SMOOTH",
"361 408 OFFCURVE",
"302 372 OFFCURVE",
"220 372 CURVE",
"178 300 LINE",
"199 308 OFFCURVE",
"226 312 OFFCURVE",
"256 312 CURVE SMOOTH",
"337 312 OFFCURVE",
"403 248 OFFCURVE",
"403 168 CURVE SMOOTH",
"403 100 OFFCURVE",
"370 42 OFFCURVE",
"304 42 CURVE SMOOTH",
"242 42 OFFCURVE",
"209 94 OFFCURVE",
"209 156 CURVE SMOOTH",
"209 182 OFFCURVE",
"212 200 OFFCURVE",
"220 228 CURVE",
"104 228 OFFCURVE",
"53 179 OFFCURVE",
"53 132 CURVE SMOOTH",
"53 40 OFFCURVE",
"166 -12 OFFCURVE",
"304 -12 CURVE SMOOTH",
"454 -12 OFFCURVE",
"575 68 OFFCURVE",
"575 168 CURVE SMOOTH",
"575 274 OFFCURVE",
"503 330 OFFCURVE",
"388 360 CURVE",
"474 380 OFFCURVE",
"533 431 OFFCURVE",
"533 480 CURVE SMOOTH",
"533 539 OFFCURVE",
"425 588 OFFCURVE",
"292 588 CURVE"
);
},
{
closed = 1;
nodes = (
"538 204 LINE",
"538 294 OFFCURVE",
"588 366 OFFCURVE",
"647 366 CURVE SMOOTH",
"695 366 OFFCURVE",
"725 312 OFFCURVE",
"725 240 CURVE SMOOTH",
"725 148 OFFCURVE",
"684 64 OFFCURVE",
"587 64 CURVE",
"587 19 OFFCURVE",
"630 -12 OFFCURVE",
"689 -12 CURVE",
"805 -12 OFFCURVE",
"881 65 OFFCURVE",
"881 198 CURVE SMOOTH",
"881 318 OFFCURVE",
"776 414 OFFCURVE",
"659 414 CURVE SMOOTH",
"582 414 OFFCURVE",
"527 371 OFFCURVE",
"497 294 CURVE"
);
}
);
width = 900;
}
);
unicode = 090A;
},
{
color = 6;
glyphname = "rVocalic-deva";
lastChange = "2015-05-11 17:51:26 +0000";
layers = (
{
anchors = (
{
name = bottom;
position = "{518, 0}";
},
{
name = top;
position = "{518, 600}";
}
);
background = {
paths = (
{
closed = 1;
nodes = (
"-10 500 LINE",
"-10 470 LINE",
"382 470 LINE",
"382 194 LINE",
"282 137 LINE",
"328 182 OFFCURVE",
"342 222 OFFCURVE",
"342 261 CURVE SMOOTH",
"342 348 OFFCURVE",
"271 405 OFFCURVE",
"162 405 CURVE SMOOTH",
"93 405 OFFCURVE",
"12 381 OFFCURVE",
"12 315 CURVE SMOOTH",
"12 279 OFFCURVE",
"42 250 OFFCURVE",
"82 250 CURVE",
"82 320 OFFCURVE",
"110 375 OFFCURVE",
"167 375 CURVE SMOOTH",
"218 375 OFFCURVE",
"242 315 OFFCURVE",
"242 240 CURVE SMOOTH",
"242 162 OFFCURVE",
"218 103 OFFCURVE",
"152 65 CURVE SMOOTH",
"82 25 LINE",
"97 -10 LINE",
"382 150 LINE",
"382 0 LINE",
"482 0 LINE",
"482 206 LINE",
"572 251 LINE",
"649 207 OFFCURVE",
"697 156 OFFCURVE",
"697 120 CURVE SMOOTH",
"697 51 OFFCURVE",
"642 30 OFFCURVE",
"572 30 CURVE",
"572 13 OFFCURVE",
"590 0 OFFCURVE",
"622 0 CURVE",
"719 0 OFFCURVE",
"797 57 OFFCURVE",
"797 130 CURVE SMOOTH",
"797 178 OFFCURVE",
"744 238 OFFCURVE",
"662 290 CURVE",
"693 307 OFFCURVE",
"712 331 OFFCURVE",
"712 350 CURVE SMOOTH",
"712 383 OFFCURVE",
"683 410 OFFCURVE",
"647 410 CURVE SMOOTH",
"590 410 OFFCURVE",
"542 372 OFFCURVE",
"542 325 CURVE SMOOTH",
"542 310 OFFCURVE",
"545 295 OFFCURVE",
"552 284 CURVE",
"482 250 LINE",
"482 470 LINE",
"828 470 LINE",
"828 500 LINE"
);
},
{
closed = 0;
nodes = (
"482 250 LINE",
"767 410 LINE"
);
},
{
closed = 0;
nodes = (
"482 206 LINE",
"767 366 LINE"
);
}
);
};
guideLines = (
{
position = "{566, 405}";
}
);
layerId = "E777F328-EA17-4AE7-9EBA-8002E537BA4F";
name = Regular;
paths = (
{
closed = 1;
nodes = (
"-12 600 LINE",
"-12 564 LINE",
"458 564 LINE",
"458 233 LINE",
"338 164 LINE",
"394 218 OFFCURVE",
"410 266 OFFCURVE",
"410 313 CURVE SMOOTH",
"410 418 OFFCURVE",
"325 486 OFFCURVE",
"194 486 CURVE SMOOTH",
"112 486 OFFCURVE",
"14 454 OFFCURVE",
"14 366 CURVE SMOOTH",
"14 323 OFFCURVE",
"50 288 OFFCURVE",
"98 288 CURVE",
"97 299 OFFCURVE",
"96 310 OFFCURVE",
"96 319 CURVE SMOOTH",
"96 398 OFFCURVE",
"137 450 OFFCURVE",
"194 450 CURVE SMOOTH",
"264 450 OFFCURVE",
"290 378 OFFCURVE",
"290 288 CURVE SMOOTH",
"290 194 OFFCURVE",
"262 124 OFFCURVE",
"182 78 CURVE SMOOTH",
"98 30 LINE",
"116 -6 LINE",
"458 186 LINE",
"458 0 LINE",
"578 0 LINE",
"578 253 LINE",
"706 324 LINE",
"803 259 OFFCURVE",
"836 184 OFFCURVE",
"836 132 CURVE SMOOTH",
"836 69 OFFCURVE",
"770 48 OFFCURVE",
"686 48 CURVE",
"686 19 OFFCURVE",
"709 0 OFFCURVE",
"746 0 CURVE",
"863 0 OFFCURVE",
"956 68 OFFCURVE",
"956 156 CURVE SMOOTH",
"956 252 OFFCURVE",
"857 313 OFFCURVE",
"758 354 CURVE",
"854 408 LINE",
"854 460 OFFCURVE",
"806 486 OFFCURVE",
"758 486 CURVE SMOOTH",
"709 486 OFFCURVE",
"661 460 OFFCURVE",
"661 404 CURVE SMOOTH",
"661 388 OFFCURVE",
"666 371 OFFCURVE",
"677 355 CURVE",
"578 300 LINE",
"578 564 LINE",
"994 564 LINE",
"994 600 LINE"
);
}
);
width = 982;
},
{
anchors = (
{
name = bottom;
position = "{583, 0}";
},
{
name = top;
position = "{583, 600}";
}
);
background = {
paths = (
{
closed = 1;
nodes = (
"-10 500 LINE",
"-10 470 LINE",
"431 470 LINE",
"431 205 LINE",
"340 157 LINE",
"376 195 OFFCURVE",
"387 232 OFFCURVE",
"387 260 CURVE SMOOTH",
"387 354 OFFCURVE",
"305 415 OFFCURVE",
"181 415 CURVE SMOOTH",
"102 415 OFFCURVE",
"11 390 OFFCURVE",
"11 315 CURVE SMOOTH",
"11 280 OFFCURVE",
"40 240 OFFCURVE",
"101 240 CURVE",
"101 310 OFFCURVE",
"127 375 OFFCURVE",
"181 375 CURVE SMOOTH",
"223 375 OFFCURVE",
"257 310 OFFCURVE",
"257 230 CURVE SMOOTH",
"257 157 OFFCURVE",
"227 98 OFFCURVE",
"174 70 CURVE SMOOTH",
"99 30 LINE",
"116 -10 LINE",
"431 155 LINE",
"431 0 LINE",
"561 0 LINE",
"561 223 LINE",
"651 264 LINE",
"722 218 OFFCURVE",
"766 160 OFFCURVE",
"766 120 CURVE SMOOTH",
"766 68 OFFCURVE",
"710 52 OFFCURVE",
"641 52 CURVE",
"641 22 OFFCURVE",
"674 0 OFFCURVE",
"721 0 CURVE",
"820 0 OFFCURVE",
"896 58 OFFCURVE",
"896 130 CURVE SMOOTH",
"896 185 OFFCURVE",
"848 248 OFFCURVE",
"771 295 CURVE",
"796 310 OFFCURVE",
"811 330 OFFCURVE",
"811 350 CURVE SMOOTH",
"811 386 OFFCURVE",
"773 415 OFFCURVE",
"726 415 CURVE SMOOTH",
"664 415 OFFCURVE",
"609 382 OFFCURVE",
"609 337 CURVE SMOOTH",
"609 325 OFFCURVE",
"613 313 OFFCURVE",
"621 300 CURVE",
"561 273 LINE",
"561 470 LINE",
"924 470 LINE",
"924 500 LINE"
);
},
{
closed = 0;
nodes = (
"561 223 LINE",
"876 388 LINE"
);
},
{
closed = 0;
nodes = (
"561 273 LINE",
"876 438 LINE"
);
}
);
};
guideLines = (
{
position = "{315, 415}";
}
);
layerId = "39185045-6A8C-415A-8312-7B8F11386A4C";
name = Bold;
paths = (
{
closed = 1;
nodes = (
"-12 600 LINE",
"-12 564 LINE",
"505 564 LINE",
"505 240 LINE",
"408 188 LINE",
"451 234 OFFCURVE",
"464 278 OFFCURVE",
"464 312 CURVE SMOOTH",
"464 428 OFFCURVE",
"366 486 OFFCURVE",
"217 486 CURVE SMOOTH",
"110 486 OFFCURVE",
"13 449 OFFCURVE",
"13 360 CURVE SMOOTH",
"13 318 OFFCURVE",
"48 270 OFFCURVE",
"121 270 CURVE",
"120 281 OFFCURVE",
"119 293 OFFCURVE",
"119 302 CURVE SMOOTH",
"119 385 OFFCURVE",
"160 438 OFFCURVE",
"217 438 CURVE SMOOTH",
"280 438 OFFCURVE",
"308 365 OFFCURVE",
"308 276 CURVE SMOOTH",
"308 188 OFFCURVE",
"273 118 OFFCURVE",
"209 84 CURVE SMOOTH",
"119 36 LINE",
"139 -12 LINE",
"505 180 LINE",
"505 0 LINE",
"661 0 LINE",
"661 262 LINE",
"781 324 LINE",
"866 266 OFFCURVE",
"919 194 OFFCURVE",
"919 144 CURVE SMOOTH",
"919 82 OFFCURVE",
"852 62 OFFCURVE",
"769 62 CURVE",
"769 26 OFFCURVE",
"809 0 OFFCURVE",
"865 0 CURVE",
"984 0 OFFCURVE",
"1075 70 OFFCURVE",
"1075 156 CURVE SMOOTH",
"1075 270 OFFCURVE",
"950 332 OFFCURVE",
"858 365 CURVE",
"943 408 LINE",
"943 458 OFFCURVE",
"889 486 OFFCURVE",
"836 486 CURVE SMOOTH",
"784 486 OFFCURVE",
"731 460 OFFCURVE",
"731 409 CURVE SMOOTH",
"731 395 OFFCURVE",
"736 380 OFFCURVE",
"745 365 CURVE",
"661 322 LINE",
"661 564 LINE",
"1109 564 LINE",
"1109 600 LINE"
);
}
);
width = 1097;
}
);
unicode = 090B;
},
{
color = 6;
glyphname = "rrVocalic-deva";
lastChange = "2015-05-11 17:51:26 +0000";
layers = (
{
anchors = (
{
name = bottom;
position = "{518, 0}";
},
{
name = top;
position = "{518, 600}";
}
);
background = {
paths = (
{
closed = 0;
nodes = (
"703 205 LINE",
"632 295 LINE"
);
}
);
};
layerId = "E777F328-EA17-4AE7-9EBA-8002E537BA4F";
name = Regular;
paths = (
{
closed = 1;
nodes = (
"-12 600 LINE",
"-12 564 LINE",
"458 564 LINE",
"458 233 LINE",
"338 164 LINE",
"394 218 OFFCURVE",
"410 266 OFFCURVE",
"410 313 CURVE SMOOTH",
"410 418 OFFCURVE",
"325 486 OFFCURVE",
"194 486 CURVE SMOOTH",
"112 486 OFFCURVE",
"14 454 OFFCURVE",
"14 366 CURVE SMOOTH",
"14 323 OFFCURVE",
"50 288 OFFCURVE",
"98 288 CURVE",
"97 299 OFFCURVE",
"96 310 OFFCURVE",
"96 319 CURVE SMOOTH",
"96 398 OFFCURVE",
"137 450 OFFCURVE",
"194 450 CURVE SMOOTH",
"264 450 OFFCURVE",
"290 378 OFFCURVE",
"290 288 CURVE SMOOTH",
"290 194 OFFCURVE",
"262 124 OFFCURVE",
"182 78 CURVE SMOOTH",
"98 30 LINE",
"116 -6 LINE",
"458 186 LINE",
"458 0 LINE",
"578 0 LINE",
"578 253 LINE",
"854 408 LINE",
"854 460 OFFCURVE",
"806 486 OFFCURVE",
"758 486 CURVE SMOOTH",
"710 486 OFFCURVE",
"665 460 OFFCURVE",
"665 407 CURVE SMOOTH",
"665 390 OFFCURVE",
"670 373 OFFCURVE",
"680 358 CURVE",
"578 300 LINE",
"578 564 LINE",
"994 564 LINE",
"994 600 LINE"
);
},
{
closed = 1;
nodes = (
"829 263 LINE",
"798 235 OFFCURVE",
"775 199 OFFCURVE",
"775 142 CURVE SMOOTH",
"775 92 OFFCURVE",
"805 66 OFFCURVE",
"844 66 CURVE SMOOTH",
"884 66 OFFCURVE",
"920 88 OFFCURVE",
"941 120 CURVE",
"965 78 LINE",
"925 20 OFFCURVE",
"870 0 OFFCURVE",
"812 0 CURVE SMOOTH",
"733 0 OFFCURVE",
"671 49 OFFCURVE",
"671 126 CURVE SMOOTH",
"671 174 OFFCURVE",
"704 227 OFFCURVE",
"755 262 CURVE",
"706 324 LINE",
"758 354 LINE"
);
}
);
width = 982;
},
{
anchors = (
{
name = bottom;
position = "{583, 0}";
},
{
name = top;
position = "{583, 600}";
}
);
background = {
paths = (
{
closed = 0;
nodes = (
"770 225 LINE",
"715 304 LINE"
);
}
);
};
layerId = "39185045-6A8C-415A-8312-7B8F11386A4C";
name = Bold;
paths = (
{
closed = 1;
nodes = (
"-12 600 LINE",
"-12 564 LINE",
"505 564 LINE",
"505 240 LINE",
"408 188 LINE",
"451 234 OFFCURVE",
"464 278 OFFCURVE",
"464 312 CURVE SMOOTH",
"464 428 OFFCURVE",
"366 486 OFFCURVE",
"217 486 CURVE SMOOTH",
"110 486 OFFCURVE",
"13 449 OFFCURVE",
"13 360 CURVE SMOOTH",
"13 318 OFFCURVE",
"48 270 OFFCURVE",
"121 270 CURVE",
"120 281 OFFCURVE",
"119 293 OFFCURVE",
"119 302 CURVE SMOOTH",
"119 385 OFFCURVE",
"160 438 OFFCURVE",
"217 438 CURVE SMOOTH",
"280 438 OFFCURVE",
"308 365 OFFCURVE",
"308 276 CURVE SMOOTH",
"308 188 OFFCURVE",
"273 118 OFFCURVE",
"209 84 CURVE SMOOTH",
"119 36 LINE",
"139 -12 LINE",
"505 180 LINE",
"505 0 LINE",
"661 0 LINE",
"661 262 LINE",
"943 408 LINE",
"943 458 OFFCURVE",
"889 486 OFFCURVE",
"836 486 CURVE SMOOTH",
"785 486 OFFCURVE",
"734 462 OFFCURVE",
"734 412 CURVE SMOOTH",
"734 397 OFFCURVE",
"739 383 OFFCURVE",
"749 367 CURVE",
"661 322 LINE",
"661 564 LINE",
"1109 564 LINE",
"1109 600 LINE"
);
},
{
closed = 1;
nodes = (
"918 278 LINE",
"895 253 OFFCURVE",
"870 215 OFFCURVE",
"870 158 CURVE SMOOTH",
"870 109 OFFCURVE",
"900 85 OFFCURVE",
"938 85 CURVE SMOOTH",
"973 85 OFFCURVE",
"1010 101 OFFCURVE",
"1033 128 CURVE",
"1063 72 LINE",
"1025 25 OFFCURVE",
"965 0 OFFCURVE",
"901 0 CURVE SMOOTH",
"815 0 OFFCURVE",
"745 59 OFFCURVE",
"745 132 CURVE SMOOTH",
"745 180 OFFCURVE",
"774 230 OFFCURVE",
"823 264 CURVE",
"781 324 LINE",
"858 365 LINE"
);
}
);
width = 1097;
}
);
unicode = 0960;
},
{
color = 6;
glyphname = "lVocalic-deva";
lastChange = "2015-05-11 17:51:26 +0000";
layers = (
{
anchors = (
{
name = bottom;
position = "{556, 0}";
},
{
name = nukta;
position = "{108, -120}";
},
{
name = top;
position = "{556, 600}";
}
);
background = {
paths = (
{
closed = 1;
nodes = (
"513 375 LINE",
"513 470 LINE",
"656 470 LINE",
"656 500 LINE",
"-10 500 LINE",
"-10 470 LINE",
"413 470 LINE",
"413 375 LINE"
);
},
{
closed = 0;
nodes = (
"445 -5 LINE",
"538 -5 OFFCURVE",
"613 77 OFFCURVE",
"613 200 CURVE",
"613 308 OFFCURVE",
"541 395 OFFCURVE",
"448 395 CURVE SMOOTH",
"398 395 OFFCURVE",
"350 375 OFFCURVE",
"323 305 CURVE",
"296 375 OFFCURVE",
"248 395 OFFCURVE",
"198 395 CURVE SMOOTH",
"105 395 OFFCURVE",
"33 308 OFFCURVE",
"33 200 CURVE",
"33 77 OFFCURVE",
"108 -5 OFFCURVE",
"201 -5 CURVE",
"252 -5 OFFCURVE",
"280 26 OFFCURVE",
"282 54 CURVE",
"187 54 OFFCURVE",
"133 118 OFFCURVE",
"133 230 CURVE",
"133 281 OFFCURVE",
"156 365 OFFCURVE",
"208 365 CURVE SMOOTH",
"257 365 OFFCURVE",
"296 305 OFFCURVE",
"297 230 CURVE",
"349 230 LINE",
"350 305 OFFCURVE",
"389 365 OFFCURVE",
"438 365 CURVE SMOOTH",
"490 365 OFFCURVE",
"513 281 OFFCURVE",
"513 230 CURVE",
"513 118 OFFCURVE",
"459 54 OFFCURVE",
"364 54 CURVE"
);
},
{
closed = 0;
nodes = (
"310 -61 LINE",
"310 -131 OFFCURVE",
"390 -186 OFFCURVE",
"493 -186 CURVE SMOOTH",
"563 -186 OFFCURVE",
"646 -155 OFFCURVE",
"646 -96 CURVE",
"646 -75 OFFCURVE",
"620 -56 OFFCURVE",
"586 -56 CURVE",
"586 -117 OFFCURVE",
"550 -156 OFFCURVE",
"500 -156 CURVE SMOOTH",
"449 -156 OFFCURVE",
"410 -123 OFFCURVE",
"410 -61 CURVE"
);
}
);
};
layerId = "E777F328-EA17-4AE7-9EBA-8002E537BA4F";
name = Regular;
paths = (
{
closed = 1;
nodes = (
"697 -223 OFFCURVE",
"775 -179 OFFCURVE",
"775 -115 CURVE SMOOTH",
"775 -72 OFFCURVE",
"739 -43 OFFCURVE",
"691 -43 CURVE",
"691 -116 OFFCURVE",
"660 -187 OFFCURVE",
"588 -187 CURVE SMOOTH",
"538 -187 OFFCURVE",
"504 -155 OFFCURVE",
"504 -85 CURVE SMOOTH",
"504 70 OFFCURVE",
"736 77 OFFCURVE",
"736 276 CURVE SMOOTH",
"736 386 OFFCURVE",
"649 474 OFFCURVE",
"538 474 CURVE SMOOTH",
"478 474 OFFCURVE",
"420 450 OFFCURVE",
"388 366 CURVE",
"355 450 OFFCURVE",
"298 474 OFFCURVE",
"238 474 CURVE SMOOTH",
"126 474 OFFCURVE",
"40 370 OFFCURVE",
"40 240 CURVE SMOOTH",
"40 92 OFFCURVE",
"130 -6 OFFCURVE",
"241 -6 CURVE",
"302 -6 OFFCURVE",
"336 31 OFFCURVE",
"338 65 CURVE",
"224 65 OFFCURVE",
"160 142 OFFCURVE",
"160 276 CURVE SMOOTH",
"160 337 OFFCURVE",
"187 438 OFFCURVE",
"250 438 CURVE SMOOTH",
"308 438 OFFCURVE",
"355 366 OFFCURVE",
"356 276 CURVE",
"419 276 LINE",
"420 366 OFFCURVE",
"467 438 OFFCURVE",
"526 438 CURVE SMOOTH",
"588 438 OFFCURVE",
"616 337 OFFCURVE",
"616 276 CURVE SMOOTH",
"616 40 OFFCURVE",
"384 61 OFFCURVE",
"384 -85 CURVE SMOOTH",
"384 -168 OFFCURVE",
"472 -223 OFFCURVE",
"586 -223 CURVE SMOOTH"
);
},
{
closed = 1;
nodes = (
"616 450 LINE",
"616 564 LINE",
"787 564 LINE",
"787 600 LINE",
"-12 600 LINE",
"-12 564 LINE",
"496 564 LINE",
"496 450 LINE"
);
}
);
width = 775;
},
{
anchors = (
{
name = bottom;
position = "{610, 0}";
},
{
name = nukta;
position = "{114, -120}";
},
{
name = top;
position = "{610, 600}";
}
);
background = {
paths = (
{
closed = 1;
nodes = (
"573 368 LINE",
"573 470 LINE",
"716 470 LINE",
"716 500 LINE",
"-10 500 LINE",
"-10 470 LINE",
"443 470 LINE",
"443 368 LINE"
);
},
{
closed = 0;
nodes = (
"493 -5 LINE",
"583 -5 OFFCURVE",
"673 69 OFFCURVE",
"673 205 CURVE SMOOTH",
"673 310 OFFCURVE",
"586 395 OFFCURVE",
"488 395 CURVE SMOOTH",
"423 395 OFFCURVE",
"376 358 OFFCURVE",
"353 295 CURVE",
"330 358 OFFCURVE",
"283 395 OFFCURVE",
"218 395 CURVE SMOOTH",
"120 395 OFFCURVE",
"33 310 OFFCURVE",
"33 205 CURVE SMOOTH",
"33 69 OFFCURVE",
"123 -5 OFFCURVE",
"213 -5 CURVE",
"261 -5 OFFCURVE",
"298 36 OFFCURVE",
"298 73 CURVE",
"224 73 OFFCURVE",
"163 149 OFFCURVE",
"163 240 CURVE SMOOTH",
"163 304 OFFCURVE",
"188 355 OFFCURVE",
"228 355 CURVE SMOOTH",
"267 355 OFFCURVE",
"319 295 OFFCURVE",
"319 220 CURVE",
"387 220 LINE",
"387 295 OFFCURVE",
"439 355 OFFCURVE",
"478 355 CURVE SMOOTH",
"518 355 OFFCURVE",
"543 304 OFFCURVE",
"543 240 CURVE SMOOTH",
"543 149 OFFCURVE",
"482 73 OFFCURVE",
"408 73 CURVE"
);
},
{
closed = 0;
nodes = (
"344 -56 LINE",
"344 -130 OFFCURVE",
"432 -186 OFFCURVE",
"541 -186 CURVE SMOOTH",
"616 -186 OFFCURVE",
"706 -155 OFFCURVE",
"706 -96 CURVE",
"706 -59 OFFCURVE",
"670 -44 OFFCURVE",
"634 -44 CURVE",
"634 -127 OFFCURVE",
"583 -146 OFFCURVE",
"551 -146 CURVE SMOOTH",
"503 -146 OFFCURVE",
"474 -102 OFFCURVE",
"474 -56 CURVE"
);
}
);
};
layerId = "39185045-6A8C-415A-8312-7B8F11386A4C";
name = Bold;
paths = (
{
closed = 1;
nodes = (
"743 -223 OFFCURVE",
"844 -185 OFFCURVE",
"844 -103 CURVE",
"844 -64 OFFCURVE",
"797 -25 OFFCURVE",
"734 -25 CURVE",
"734 -138 OFFCURVE",
"680 -175 OFFCURVE",
"634 -175 CURVE SMOOTH",
"586 -175 OFFCURVE",
"553 -134 OFFCURVE",
"553 -67 CURVE SMOOTH",
"553 77 OFFCURVE",
"808 72 OFFCURVE",
"808 286 CURVE SMOOTH",
"808 394 OFFCURVE",
"715 474 OFFCURVE",
"586 474 CURVE SMOOTH",
"508 474 OFFCURVE",
"451 430 OFFCURVE",
"424 354 CURVE",
"396 430 OFFCURVE",
"340 474 OFFCURVE",
"262 474 CURVE SMOOTH",
"144 474 OFFCURVE",
"40 372 OFFCURVE",
"40 246 CURVE SMOOTH",
"40 83 OFFCURVE",
"148 -6 OFFCURVE",
"256 -6 CURVE",
"313 -6 OFFCURVE",
"358 43 OFFCURVE",
"358 88 CURVE",
"269 88 OFFCURVE",
"196 179 OFFCURVE",
"196 288 CURVE SMOOTH",
"196 365 OFFCURVE",
"226 426 OFFCURVE",
"274 426 CURVE SMOOTH",
"320 426 OFFCURVE",
"383 354 OFFCURVE",
"383 264 CURVE",
"464 264 LINE",
"464 354 OFFCURVE",
"527 426 OFFCURVE",
"574 426 CURVE SMOOTH",
"622 426 OFFCURVE",
"652 365 OFFCURVE",
"652 288 CURVE SMOOTH",
"652 71 OFFCURVE",
"397 85 OFFCURVE",
"397 -67 CURVE SMOOTH",
"397 -156 OFFCURVE",
"504 -223 OFFCURVE",
"634 -223 CURVE SMOOTH"
);
},
{
closed = 1;
nodes = (
"688 442 LINE",
"688 564 LINE",
"859 564 LINE",
"859 600 LINE",
"-12 600 LINE",
"-12 564 LINE",
"532 564 LINE",
"532 442 LINE"
);
}
);
width = 847;
}
);
unicode = 090C;
},
{
color = 6;
glyphname = "llVocalic-deva";
lastChange = "2015-05-11 17:51:26 +0000";
layers = (
{
anchors = (
{
name = bottom;
position = "{556, 0}";
},
{
name = nukta;
position = "{108, -120}";
},
{
name = top;
position = "{556, 600}";
}
);
background = {
paths = (
{
closed = 1;
nodes = (
"513 375 LINE",
"513 470 LINE",
"656 470 LINE",
"656 500 LINE",
"-10 500 LINE",
"-10 470 LINE",
"413 470 LINE",
"413 375 LINE"
);
},
{
closed = 0;
nodes = (
"613 230 LINE",
"613 322 OFFCURVE",
"541 395 OFFCURVE",
"448 395 CURVE SMOOTH",
"398 395 OFFCURVE",
"350 375 OFFCURVE",
"323 305 CURVE",
"296 375 OFFCURVE",
"248 395 OFFCURVE",
"198 395 CURVE SMOOTH",
"105 395 OFFCURVE",
"33 308 OFFCURVE",
"33 200 CURVE SMOOTH",
"33 77 OFFCURVE",
"110 -5 OFFCURVE",
"201 -5 CURVE",
"252 -5 OFFCURVE",
"280 26 OFFCURVE",
"282 54 CURVE",
"187 54 OFFCURVE",
"133 118 OFFCURVE",
"133 230 CURVE SMOOTH",
"133 281 OFFCURVE",
"156 365 OFFCURVE",
"208 365 CURVE SMOOTH",
"257 365 OFFCURVE",
"296 305 OFFCURVE",
"297 230 CURVE",
"349 230 LINE",
"350 305 OFFCURVE",
"389 365 OFFCURVE",
"438 365 CURVE SMOOTH",
"490 365 OFFCURVE",
"513 281 OFFCURVE",
"513 230 CURVE"
);
},
{
closed = 1;
nodes = (
"408 -1 OFFCURVE",
"321 -37 OFFCURVE",
"321 -105 CURVE SMOOTH",
"321 -158 OFFCURVE",
"396 -201 OFFCURVE",
"494 -201 CURVE SMOOTH",
"569 -201 OFFCURVE",
"657 -170 OFFCURVE",
"657 -111 CURVE",
"657 -90 OFFCURVE",
"631 -71 OFFCURVE",
"597 -71 CURVE",
"597 -132 OFFCURVE",
"557 -171 OFFCURVE",
"501 -171 CURVE SMOOTH",
"455 -171 OFFCURVE",
"421 -146 OFFCURVE",
"421 -105 CURVE SMOOTH",
"421 -67 OFFCURVE",
"451 -31 OFFCURVE",
"537 -31 CURVE",
"537 -1 LINE"
);
},
{
closed = 0;
nodes = (
"512 130 LINE",
"419 130 OFFCURVE",
"351 93 OFFCURVE",
"351 45 CURVE SMOOTH",
"351 5 OFFCURVE",
"419 -32 OFFCURVE",
"504 -32 CURVE",
"511 -2 LINE",
"479 -2 OFFCURVE",
"451 20 OFFCURVE",
"451 45 CURVE SMOOTH",
"451 76 OFFCURVE",
"481 100 OFFCURVE",
"557 100 CURVE"
);
}
);
};
layerId = "E777F328-EA17-4AE7-9EBA-8002E537BA4F";
name = Regular;
paths = (
{
closed = 1;
nodes = (
"616 450 LINE",
"616 564 LINE",
"787 564 LINE",
"787 600 LINE",
"-12 600 LINE",
"-12 564 LINE",
"496 564 LINE",
"496 450 LINE"
);
},
{
closed = 1;
nodes = (
"736 386 OFFCURVE",
"649 474 OFFCURVE",
"538 474 CURVE SMOOTH",
"478 474 OFFCURVE",
"420 450 OFFCURVE",
"388 366 CURVE",
"355 450 OFFCURVE",
"298 474 OFFCURVE",
"238 474 CURVE SMOOTH",
"126 474 OFFCURVE",
"40 370 OFFCURVE",
"40 240 CURVE SMOOTH",
"40 92 OFFCURVE",
"132 -6 OFFCURVE",
"241 -6 CURVE",
"302 -6 OFFCURVE",
"336 31 OFFCURVE",
"338 65 CURVE",
"224 65 OFFCURVE",
"160 142 OFFCURVE",
"160 276 CURVE SMOOTH",
"160 337 OFFCURVE",
"187 438 OFFCURVE",
"250 438 CURVE SMOOTH",
"308 438 OFFCURVE",
"355 366 OFFCURVE",
"356 276 CURVE",
"419 276 LINE",
"420 366 OFFCURVE",
"467 438 OFFCURVE",
"526 438 CURVE SMOOTH",
"588 438 OFFCURVE",
"616 337 OFFCURVE",
"616 276 CURVE",
"616 120 OFFCURVE",
"421 112 OFFCURVE",
"421 54 CURVE SMOOTH",
"421 6 OFFCURVE",
"503 -35 OFFCURVE",
"605 -35 CURVE",
"613 -2 LINE",
"575 -2 OFFCURVE",
"541 24 OFFCURVE",
"541 54 CURVE SMOOTH",
"541 108 OFFCURVE",
"736 125 OFFCURVE",
"736 276 CURVE"
);
},
{
closed = 1;
nodes = (
"490 -1 OFFCURVE",
"385 -44 OFFCURVE",
"385 -126 CURVE SMOOTH",
"385 -190 OFFCURVE",
"475 -241 OFFCURVE",
"581 -241 CURVE SMOOTH",
"671 -241 OFFCURVE",
"764 -204 OFFCURVE",
"764 -133 CURVE",
"764 -108 OFFCURVE",
"733 -85 OFFCURVE",
"692 -85 CURVE",
"692 -158 OFFCURVE",
"653 -205 OFFCURVE",
"589 -205 CURVE SMOOTH",
"546 -205 OFFCURVE",
"505 -175 OFFCURVE",
"505 -126 CURVE SMOOTH",
"505 -80 OFFCURVE",
"541 -37 OFFCURVE",
"644 -37 CURVE",
"644 -1 LINE"
);
}
);
width = 775;
},
{
anchors = (
{
name = bottom;
position = "{610, 0}";
},
{
name = nukta;
position = "{114, -120}";
},
{
name = top;
position = "{610, 600}";
}
);
background = {
paths = (
{
closed = 1;
nodes = (
"619 -186 OFFCURVE",
"703 -154 OFFCURVE",
"703 -86 CURVE",
"703 -53 OFFCURVE",
"664 -21 OFFCURVE",
"612 -21 CURVE",
"612 -115 OFFCURVE",
"567 -146 OFFCURVE",
"528 -146 CURVE SMOOTH",
"488 -146 OFFCURVE",
"461 -112 OFFCURVE",
"461 -56 CURVE SMOOTH",
"461 64 OFFCURVE",
"673 60 OFFCURVE",
"673 238 CURVE SMOOTH",
"673 328 OFFCURVE",
"596 395 OFFCURVE",
"488 395 CURVE SMOOTH",
"423 395 OFFCURVE",
"376 358 OFFCURVE",
"353 295 CURVE",
"330 358 OFFCURVE",
"283 395 OFFCURVE",
"218 395 CURVE SMOOTH",
"120 395 OFFCURVE",
"33 310 OFFCURVE",
"33 205 CURVE SMOOTH",
"33 69 OFFCURVE",
"123 -5 OFFCURVE",
"213 -5 CURVE",
"261 -5 OFFCURVE",
"298 36 OFFCURVE",
"298 73 CURVE",
"224 73 OFFCURVE",
"163 149 OFFCURVE",
"163 240 CURVE SMOOTH",
"163 304 OFFCURVE",
"188 355 OFFCURVE",
"228 355 CURVE SMOOTH",
"267 355 OFFCURVE",
"319 295 OFFCURVE",
"319 220 CURVE",
"387 220 LINE",
"387 295 OFFCURVE",
"439 355 OFFCURVE",
"478 355 CURVE SMOOTH",
"518 355 OFFCURVE",
"543 304 OFFCURVE",
"543 240 CURVE SMOOTH",
"543 59 OFFCURVE",
"331 71 OFFCURVE",
"331 -56 CURVE SMOOTH",
"331 -130 OFFCURVE",
"420 -186 OFFCURVE",
"528 -186 CURVE SMOOTH"
);
}
);
};
layerId = "39185045-6A8C-415A-8312-7B8F11386A4C";
name = Bold;
paths = (
{
closed = 1;
nodes = (
"688 442 LINE",
"688 564 LINE",
"859 564 LINE",
"859 600 LINE",
"-12 600 LINE",
"-12 564 LINE",
"532 564 LINE",
"532 442 LINE"
);
},
{
closed = 1;
nodes = (
"808 394 OFFCURVE",
"715 474 OFFCURVE",
"586 474 CURVE SMOOTH",
"508 474 OFFCURVE",
"451 430 OFFCURVE",
"424 354 CURVE",
"396 430 OFFCURVE",
"340 474 OFFCURVE",
"262 474 CURVE SMOOTH",
"144 474 OFFCURVE",
"40 372 OFFCURVE",
"40 246 CURVE SMOOTH",
"40 83 OFFCURVE",
"148 -6 OFFCURVE",
"256 -6 CURVE",
"313 -6 OFFCURVE",
"358 43 OFFCURVE",
"358 88 CURVE",
"269 88 OFFCURVE",
"196 179 OFFCURVE",
"196 288 CURVE SMOOTH",
"196 365 OFFCURVE",
"226 426 OFFCURVE",
"274 426 CURVE SMOOTH",
"320 426 OFFCURVE",
"383 354 OFFCURVE",
"383 264 CURVE",
"464 264 LINE",
"464 354 OFFCURVE",
"527 426 OFFCURVE",
"574 426 CURVE SMOOTH",
"622 426 OFFCURVE",
"652 365 OFFCURVE",
"652 288 CURVE",
"652 140 OFFCURVE",
"432 124 OFFCURVE",
"432 64 CURVE SMOOTH",
"432 14 OFFCURVE",
"510 -24 OFFCURVE",
"632 -24 CURVE",
"644 19 LINE",
"599 19 OFFCURVE",
"588 44 OFFCURVE",
"588 64 CURVE SMOOTH",
"588 106 OFFCURVE",
"808 126 OFFCURVE",
"808 286 CURVE"
);
},
{
closed = 1;
nodes = (
"518 24 OFFCURVE",
"396 -10 OFFCURVE",
"396 -114 CURVE SMOOTH",
"396 -185 OFFCURVE",
"494 -240 OFFCURVE",
"617 -240 CURVE SMOOTH",
"700 -240 OFFCURVE",
"799 -203 OFFCURVE",
"799 -132 CURVE",
"799 -88 OFFCURVE",
"756 -70 OFFCURVE",
"713 -70 CURVE",
"713 -169 OFFCURVE",
"661 -192 OFFCURVE",
"629 -192 CURVE SMOOTH",
"581 -192 OFFCURVE",
"552 -154 OFFCURVE",
"552 -114 CURVE SMOOTH",
"552 -49 OFFCURVE",
"608 -24 OFFCURVE",
"680 -24 CURVE",
"680 24 LINE"
);
}
);
width = 847;
}
);
unicode = 0961;
},
{
color = 3;
glyphname = "eCandra-deva";
lastChange = "2015-05-11 17:51:26 +0000";
layers = (
{
anchors = (
{
name = top;
position = "{307, 600}";
}
);
background = {
paths = (
{
closed = 1;
nodes = (
"399 325 LINE SMOOTH",
"399 281 OFFCURVE",
"362 263 OFFCURVE",
"319 244 CURVE",
"319 233 LINE",
"384 189 LINE",
"427 204 OFFCURVE",
"487 242 OFFCURVE",
"487 342 CURVE SMOOTH",
"487 575 LINE",
"588 575 LINE",
"588 590 LINE",
"556 650 LINE",
"-31 650 LINE",
"-31 634 LINE",
"0 575 LINE",
"91 575 LINE",
"91 279 LINE SMOOTH",
"91 232 OFFCURVE",
"103 211 OFFCURVE",
"199 147 CURVE SMOOTH",
"559 -95 LINE",
"505 -154 LINE",
"505 -156 LINE",
"514 -176 OFFCURVE",
"536 -202 OFFCURVE",
"573 -202 CURVE SMOOTH",
"613 -202 OFFCURVE",
"647 -180 OFFCURVE",
"647 -136 CURVE SMOOTH",
"647 -101 OFFCURVE",
"625 -73 OFFCURVE",
"529 -10 CURVE SMOOTH",
"224 197 LINE SMOOTH",
"186 223 OFFCURVE",
"180 240 OFFCURVE",
"180 268 CURVE SMOOTH",
"180 575 LINE",
"399 575 LINE"
);
},
{
closed = 1;
nodes = (
"433 918 LINE",
"406 874 OFFCURVE",
"345 818 OFFCURVE",
"257 818 CURVE SMOOTH",
"191 818 OFFCURVE",
"139 867 OFFCURVE",
"98 925 CURVE",
"65 911 LINE",
"104 843 OFFCURVE",
"183 752 OFFCURVE",
"295 752 CURVE SMOOTH",
"392 752 OFFCURVE",
"451 798 OFFCURVE",
"498 857 CURVE"
);
}
);
};
components = (
{
name = "e-deva";
},
{
disableAlignment = 1;
name = "eCandraMatra-deva";
transform = "{1, 0, 0, 1, 482, 0}";
}
);
layerId = "E777F328-EA17-4AE7-9EBA-8002E537BA4F";
name = Regular;
width = 614;
},
{
anchors = (
{
name = top;
position = "{335, 600}";
}
);
background = {
paths = (
{
closed = 1;
nodes = (
"399 325 LINE SMOOTH",
"399 281 OFFCURVE",
"362 263 OFFCURVE",
"319 244 CURVE",
"319 233 LINE",
"384 189 LINE",
"427 204 OFFCURVE",
"487 242 OFFCURVE",
"487 342 CURVE SMOOTH",
"487 575 LINE",
"588 575 LINE",
"588 590 LINE",
"556 650 LINE",
"-31 650 LINE",
"-31 634 LINE",
"0 575 LINE",
"91 575 LINE",
"91 279 LINE SMOOTH",
"91 232 OFFCURVE",
"103 211 OFFCURVE",
"199 147 CURVE SMOOTH",
"559 -95 LINE",
"505 -154 LINE",
"505 -156 LINE",
"514 -176 OFFCURVE",
"536 -202 OFFCURVE",
"573 -202 CURVE SMOOTH",
"613 -202 OFFCURVE",
"647 -180 OFFCURVE",
"647 -136 CURVE SMOOTH",
"647 -101 OFFCURVE",
"625 -73 OFFCURVE",
"529 -10 CURVE SMOOTH",
"224 197 LINE SMOOTH",
"186 223 OFFCURVE",
"180 240 OFFCURVE",
"180 268 CURVE SMOOTH",
"180 575 LINE",
"399 575 LINE"
);
},
{
closed = 1;
nodes = (
"433 918 LINE",
"406 874 OFFCURVE",
"345 818 OFFCURVE",
"257 818 CURVE SMOOTH",
"191 818 OFFCURVE",
"139 867 OFFCURVE",
"98 925 CURVE",
"65 911 LINE",
"104 843 OFFCURVE",
"183 752 OFFCURVE",
"295 752 CURVE SMOOTH",
"392 752 OFFCURVE",
"451 798 OFFCURVE",
"498 857 CURVE"
);
}
);
};
components = (
{
name = "e-deva";
},
{
disableAlignment = 1;
name = "eCandraMatra-deva";
transform = "{1, 0, 0, 1, 527, 0}";
}
);
layerId = "39185045-6A8C-415A-8312-7B8F11386A4C";
name = Bold;
width = 670;
}
);
rightMetricsKey = "=e-deva";
unicode = 090D;
},
{
color = 3;
glyphname = "eShort-deva";
lastChange = "2015-05-11 17:51:26 +0000";
layers = (
{
anchors = (
{
name = top;
position = "{307, 600}";
}
);
background = {
paths = (
{
closed = 1;
nodes = (
"-16 937 OFFCURVE",
"-26 907 OFFCURVE",
"-26 878 CURVE SMOOTH",
"-26 835 OFFCURVE",
"36 775 OFFCURVE",
"161 775 CURVE SMOOTH",
"220 775 OFFCURVE",
"279 786 OFFCURVE",
"317 786 CURVE SMOOTH",
"405 786 OFFCURVE",
"430 721 OFFCURVE",
"430 664 CURVE SMOOTH",
"430 649 OFFCURVE",
"426 636 OFFCURVE",
"419 625 CURVE",
"465 622 LINE",
"469 637 OFFCURVE",
"474 661 OFFCURVE",
"474 679 CURVE SMOOTH",
"474 715 OFFCURVE",
"457 754 OFFCURVE",
"431 786 CURVE SMOOTH",
"407 816 OFFCURVE",
"359 836 OFFCURVE",
"307 836 CURVE SMOOTH",
"273 836 OFFCURVE",
"150 824 OFFCURVE",
"113 824 CURVE SMOOTH",
"59 824 OFFCURVE",
"18 850 OFFCURVE",
"18 893 CURVE SMOOTH",
"18 908 OFFCURVE",
"23 927 OFFCURVE",
"29 948 CURVE",
"-10 955 LINE"
);
},
{
closed = 1;
nodes = (
"109 605 LINE",
"109 279 LINE SMOOTH",
"109 235 OFFCURVE",
"127 203 OFFCURVE",
"199 154 CURVE SMOOTH",
"562 -91 LINE",
"511 -147 LINE",
"511 -149 LINE",
"521 -168 OFFCURVE",
"544 -192 OFFCURVE",
"573 -192 CURVE SMOOTH",
"607 -192 OFFCURVE",
"635 -171 OFFCURVE",
"637 -138 CURVE SMOOTH",
"639 -103 OFFCURVE",
"615 -79 OFFCURVE",
"529 -21 CURVE SMOOTH",
"224 186 LINE SMOOTH",
"183 214 OFFCURVE",
"163 235 OFFCURVE",
"163 268 CURVE SMOOTH",
"163 605 LINE"
);
},
{
closed = 1;
nodes = (
"415 605 LINE",
"415 328 LINE SMOOTH",
"415 283 OFFCURVE",
"378 259 OFFCURVE",
"336 240 CURVE",
"336 231 LINE",
"378 202 LINE",
"416 215 OFFCURVE",
"469 250 OFFCURVE",
"469 339 CURVE SMOOTH",
"469 605 LINE"
);
},
{
closed = 1;
nodes = (
"-29 634 LINE",
"-29 624 LINE",
"-12 590 LINE",
"569 590 LINE",
"569 601 LINE",
"550 634 LINE"
);
}
);
};
components = (
{
name = "e-deva";
},
{
name = "eShortMatra-deva";
transform = "{1, 0, 0, 1, 626, 0}";
}
);
layerId = "E777F328-EA17-4AE7-9EBA-8002E537BA4F";
name = Regular;
width = 614;
},
{
anchors = (
{
name = top;
position = "{335, 600}";
}
);
components = (
{
name = "e-deva";
},
{
name = "eShortMatra-deva";
transform = "{1, 0, 0, 1, 682, 0}";
}
);
layerId = "39185045-6A8C-415A-8312-7B8F11386A4C";
name = Bold;
width = 670;
}
);
unicode = 090E;
},
{
color = 3;
glyphname = "e-deva";
lastChange = "2015-05-11 17:51:26 +0000";
layers = (
{
anchors = (
{
name = top;
position = "{482, 600}";
}
);
layerId = "E777F328-EA17-4AE7-9EBA-8002E537BA4F";
name = Regular;
paths = (
{
closed = 1;
nodes = (
"427 -276 OFFCURVE",
"522 -196 OFFCURVE",
"522 -96 CURVE SMOOTH",
"522 137 OFFCURVE",
"192 155 OFFCURVE",
"192 324 CURVE SMOOTH",
"192 564 LINE",
"422 564 LINE",
"422 416 LINE",
"422 336 OFFCURVE",
"390 253 OFFCURVE",
"323 204 CURVE",
"463 217 OFFCURVE",
"542 310 OFFCURVE",
"542 412 CURVE",
"542 564 LINE",
"626 564 LINE",
"626 600 LINE",
"-12 600 LINE",
"-12 564 LINE",
"72 564 LINE",
"72 300 LINE SMOOTH",
"72 121 OFFCURVE",
"438 31 OFFCURVE",
"438 -120 CURVE SMOOTH",
"438 -194 OFFCURVE",
"380 -234 OFFCURVE",
"312 -234 CURVE",
"253 -234 OFFCURVE",
"210 -176 OFFCURVE",
"210 -108 CURVE SMOOTH",
"210 -89 OFFCURVE",
"212 -66 OFFCURVE",
"216 -48 CURVE",
"136 -48 OFFCURVE",
"90 -85 OFFCURVE",
"90 -132 CURVE SMOOTH",
"90 -212 OFFCURVE",
"178 -276 OFFCURVE",
"312 -276 CURVE"
);
}
);
width = 614;
},
{
anchors = (
{
name = top;
position = "{520, 600}";
}
);
layerId = "39185045-6A8C-415A-8312-7B8F11386A4C";
name = Bold;
paths = (
{
closed = 1;
nodes = (
"478 -276 OFFCURVE",
"582 -188 OFFCURVE",
"582 -82 CURVE SMOOTH",
"582 142 OFFCURVE",
"228 174 OFFCURVE",
"228 336 CURVE SMOOTH",
"228 564 LINE",
"442 564 LINE",
"442 418 LINE",
"442 342 OFFCURVE",
"415 264 OFFCURVE",
"366 216 CURVE",
"516 232 OFFCURVE",
"598 324 OFFCURVE",
"598 424 CURVE",
"598 564 LINE",
"682 564 LINE",
"682 600 LINE",
"-12 600 LINE",
"-12 564 LINE",
"72 564 LINE",
"72 300 LINE SMOOTH",
"72 148 OFFCURVE",
"474 23 OFFCURVE",
"474 -120 CURVE SMOOTH",
"474 -190 OFFCURVE",
"416 -222 OFFCURVE",
"348 -222 CURVE",
"287 -222 OFFCURVE",
"253 -170 OFFCURVE",
"253 -108 CURVE SMOOTH",
"253 -82 OFFCURVE",
"257 -64 OFFCURVE",
"264 -36 CURVE",
"149 -36 OFFCURVE",
"97 -85 OFFCURVE",
"97 -132 CURVE SMOOTH",
"97 -224 OFFCURVE",
"210 -276 OFFCURVE",
"348 -276 CURVE"
);
}
);
width = 670;
},
{
anchors = (
{
name = top;
position = "{272, 500}";
}
);
associatedMasterId = "E777F328-EA17-4AE7-9EBA-8002E537BA4F";
layerId = "E1214054-17B3-454D-9261-2E9DF83F1A86";
name = "Regular Nov 5 14, 18:54";
paths = (
{
closed = 1;
nodes = (
"-10 500 LINE",
"-10 470 LINE",
"42 470 LINE",
"42 250 LINE SMOOTH",
"42 121 OFFCURVE",
"377 36 OFFCURVE",
"377 -100 CURVE SMOOTH",
"377 -149 OFFCURVE",
"336 -190 OFFCURVE",
"287 -190 CURVE SMOOTH",
"240 -190 OFFCURVE",
"192 -137 OFFCURVE",
"172 -60 CURVE",
"82 -120 LINE",
"106 -187 OFFCURVE",
"181 -230 OFFCURVE",
"272 -230 CURVE SMOOTH",
"368 -230 OFFCURVE",
"447 -167 OFFCURVE",
"447 -90 CURVE SMOOTH",
"447 120 OFFCURVE",
"142 125 OFFCURVE",
"142 270 CURVE SMOOTH",
"142 470 LINE",
"222 470 LINE",
"283 434 OFFCURVE",
"322 364 OFFCURVE",
"322 285 CURVE SMOOTH",
"322 237 OFFCURVE",
"296 187 OFFCURVE",
"252 150 CURVE",
"352 150 OFFCURVE",
"432 213 OFFCURVE",
"432 290 CURVE SMOOTH",
"432 357 OFFCURVE",
"399 422 OFFCURVE",
"342 470 CURVE",
"475 470 LINE",
"475 500 LINE"
);
}
);
width = 465;
},
{
anchors = (
{
name = top;
position = "{310, 500}";
}
);
associatedMasterId = "39185045-6A8C-415A-8312-7B8F11386A4C";
layerId = "DD610930-2F62-4D69-BD65-5BFAC6397595";
name = "Bold Nov 5 14, 18:55";
paths = (
{
closed = 1;
nodes = (
"-10 500 LINE",
"-10 470 LINE",
"42 470 LINE",
"42 250 LINE SMOOTH",
"42 123 OFFCURVE",
"407 19 OFFCURVE",
"407 -100 CURVE SMOOTH",
"407 -161 OFFCURVE",
"366 -190 OFFCURVE",
"317 -190 CURVE SMOOTH",
"270 -190 OFFCURVE",
"222 -137 OFFCURVE",
"202 -60 CURVE",
"82 -120 LINE",
"106 -187 OFFCURVE",
"194 -230 OFFCURVE",
"302 -230 CURVE SMOOTH",
"410 -230 OFFCURVE",
"497 -157 OFFCURVE",
"497 -68 CURVE SMOOTH",
"497 118 OFFCURVE",
"172 175 OFFCURVE",
"172 280 CURVE SMOOTH",
"172 470 LINE",
"242 470 LINE",
"303 434 OFFCURVE",
"342 364 OFFCURVE",
"342 285 CURVE SMOOTH",
"342 241 OFFCURVE",
"322 199 OFFCURVE",
"287 170 CURVE",
"392 170 OFFCURVE",
"478 226 OFFCURVE",
"478 295 CURVE SMOOTH",
"478 360 OFFCURVE",
"447 425 OFFCURVE",
"392 470 CURVE",
"520 470 LINE",
"520 500 LINE"
);
}
);
width = 510;
}
);
unicode = 090F;
},
{
color = 3;
glyphname = "ai-deva";
lastChange = "2015-05-11 17:51:26 +0000";
layers = (
{
background = {
paths = (
{
closed = 1;
nodes = (
"269 634 LINE",
"269 624 LINE",
"286 590 LINE",
"415 590 LINE",
"414 13 LINE",
"457 -11 LINE",
"469 -11 LINE",
"469 590 LINE",
"585 590 LINE",
"585 601 LINE",
"566 634 LINE"
);
},
{
closed = 1;
nodes = (
"127 1010 OFFCURVE",
"103 990 OFFCURVE",
"103 956 CURVE SMOOTH",
"103 929 OFFCURVE",
"119 905 OFFCURVE",
"133 894 CURVE",
"247 928 LINE",
"264 917 OFFCURVE",
"307 848 OFFCURVE",
"360 748 CURVE SMOOTH",
"371 727 OFFCURVE",
"400 667 OFFCURVE",
"415 633 CURVE",
"465 633 LINE",
"446 676 OFFCURVE",
"403 760 OFFCURVE",
"385 795 CURVE SMOOTH",
"323 913 OFFCURVE",
"262 1010 OFFCURVE",
"165 1010 CURVE SMOOTH"
);
}
);
};
components = (
{
name = "e-deva";
},
{
name = "eMatra-deva";
transform = "{1, 0, 0, 1, 626, 0}";
}
);
layerId = "E777F328-EA17-4AE7-9EBA-8002E537BA4F";
name = Regular;
width = 614;
},
{
background = {
paths = (
{
closed = 1;
nodes = (
"399 325 LINE SMOOTH",
"399 281 OFFCURVE",
"362 263 OFFCURVE",
"319 244 CURVE",
"319 233 LINE",
"384 189 LINE",
"427 204 OFFCURVE",
"487 242 OFFCURVE",
"487 342 CURVE SMOOTH",
"487 575 LINE",
"588 575 LINE",
"588 590 LINE",
"556 650 LINE",
"465 650 LINE",
"446 692 OFFCURVE",
"410 765 OFFCURVE",
"391 801 CURVE SMOOTH",
"327 924 OFFCURVE",
"262 1018 OFFCURVE",
"164 1018 CURVE SMOOTH",
"121 1018 OFFCURVE",
"93 996 OFFCURVE",
"93 956 CURVE SMOOTH",
"93 928 OFFCURVE",
"109 900 OFFCURVE",
"128 885 CURVE",
"247 921 LINE",
"269 910 OFFCURVE",
"309 844 OFFCURVE",
"360 753 CURVE SMOOTH",
"369 738 OFFCURVE",
"396 682 OFFCURVE",
"411 650 CURVE",
"-31 650 LINE",
"-31 634 LINE",
"0 575 LINE",
"91 575 LINE",
"91 279 LINE SMOOTH",
"91 232 OFFCURVE",
"103 211 OFFCURVE",
"199 147 CURVE SMOOTH",
"559 -95 LINE",
"505 -154 LINE",
"505 -156 LINE",
"514 -176 OFFCURVE",
"536 -202 OFFCURVE",
"573 -202 CURVE SMOOTH",
"613 -202 OFFCURVE",
"647 -180 OFFCURVE",
"647 -136 CURVE SMOOTH",
"647 -101 OFFCURVE",
"625 -73 OFFCURVE",
"529 -10 CURVE SMOOTH",
"224 197 LINE SMOOTH",
"186 223 OFFCURVE",
"180 240 OFFCURVE",
"180 268 CURVE SMOOTH",
"180 575 LINE",
"399 575 LINE"
);
}
);
};
components = (
{
name = "e-deva";
},
{
name = "eMatra-deva";
transform = "{1, 0, 0, 1, 682, 0}";
}
);
layerId = "39185045-6A8C-415A-8312-7B8F11386A4C";
name = Bold;
width = 670;
}
);
unicode = 0910;
},
{
color = 6;
glyphname = "oCandra-deva";
lastChange = "2015-05-11 17:51:26 +0000";
layers = (
{
background = {
paths = (
{
closed = 1;
nodes = (
"708 634 LINE",
"708 624 LINE",
"725 590 LINE",
"854 590 LINE",
"853 13 LINE",
"896 -11 LINE",
"908 -11 LINE",
"908 590 LINE",
"1024 590 LINE",
"1024 601 LINE",
"1005 634 LINE"
);
},
{
closed = 1;
nodes = (
"1027 874 LINE",
"997 835 OFFCURVE",
"933 784 OFFCURVE",
"843 785 CURVE SMOOTH",
"778 786 OFFCURVE",
"726 831 OFFCURVE",
"685 885 CURVE",
"662 868 LINE",
"699 812 OFFCURVE",
"770 736 OFFCURVE",
"872 735 CURVE SMOOTH",
"966 734 OFFCURVE",
"1021 780 OFFCURVE",
"1067 837 CURVE"
);
}
);
};
components = (
{
name = "aa-deva";
},
{
disableAlignment = 1;
name = "eCandraMatra-deva";
transform = "{1, 0, 0, 1, 983, 0}";
}
);
layerId = "E777F328-EA17-4AE7-9EBA-8002E537BA4F";
name = Regular;
width = 1116;
},
{
background = {
paths = (
{
closed = 1;
nodes = (
"953 -1 LINE",
"1025 -42 LINE",
"1040 -42 LINE",
"1040 575 LINE",
"1150 575 LINE",
"1150 590 LINE",
"1118 650 LINE",
"467 650 LINE",
"467 634 LINE",
"499 575 LINE",
"645 575 LINE",
"645 327 LINE",
"618 310 OFFCURVE",
"589 296 OFFCURVE",
"545 296 CURVE SMOOTH",
"492 296 OFFCURVE",
"432 320 OFFCURVE",
"397 339 CURVE",
"429 368 OFFCURVE",
"451 419 OFFCURVE",
"451 461 CURVE SMOOTH",
"451 557 OFFCURVE",
"336 665 OFFCURVE",
"256 667 CURVE SMOOTH",
"219 667 OFFCURVE",
"133 630 OFFCURVE",
"96 603 CURVE",
"142 516 LINE",
"183 553 OFFCURVE",
"234 586 OFFCURVE",
"290 586 CURVE SMOOTH",
"342 586 OFFCURVE",
"388 544 OFFCURVE",
"388 497 CURVE SMOOTH",
"388 450 OFFCURVE",
"360 425 OFFCURVE",
"328 407 CURVE SMOOTH",
"292 388 OFFCURVE",
"233 382 OFFCURVE",
"197 380 CURVE",
"186 353 LINE",
"221 289 LINE",
"252 293 OFFCURVE",
"315 303 OFFCURVE",
"355 316 CURVE",
"386 290 OFFCURVE",
"399 247 OFFCURVE",
"399 210 CURVE SMOOTH",
"399 150 OFFCURVE",
"350 98 OFFCURVE",
"280 98 CURVE SMOOTH",
"186 98 OFFCURVE",
"93 199 OFFCURVE",
"42 284 CURVE",
"8 262 LINE",
"57 173 OFFCURVE",
"153 18 OFFCURVE",
"317 18 CURVE SMOOTH",
"414 18 OFFCURVE",
"478 77 OFFCURVE",
"478 173 CURVE SMOOTH",
"478 209 OFFCURVE",
"469 240 OFFCURVE",
"455 267 CURVE",
"460 270 LINE",
"498 240 OFFCURVE",
"537 220 OFFCURVE",
"585 220 CURVE SMOOTH",
"609 220 OFFCURVE",
"630 225 OFFCURVE",
"643 232 CURVE",
"645 232 LINE",
"645 -1 LINE",
"717 -42 LINE",
"733 -42 LINE",
"733 575 LINE",
"953 575 LINE"
);
},
{
closed = 1;
nodes = (
"1147 918 LINE",
"1119 874 OFFCURVE",
"1058 818 OFFCURVE",
"971 818 CURVE SMOOTH",
"905 818 OFFCURVE",
"852 867 OFFCURVE",
"811 925 CURVE",
"779 911 LINE",
"819 843 OFFCURVE",
"897 752 OFFCURVE",
"1009 752 CURVE SMOOTH",
"1107 752 OFFCURVE",
"1165 798 OFFCURVE",
"1211 857 CURVE"
);
}
);
};
components = (
{
name = "aa-deva";
},
{
disableAlignment = 1;
name = "eCandraMatra-deva";
transform = "{1, 0, 0, 1, 1064, 0}";
}
);
layerId = "39185045-6A8C-415A-8312-7B8F11386A4C";
name = Bold;
width = 1223;
}
);
leftMetricsKey = "=aa-deva";
rightMetricsKey = "=aa-deva";
unicode = 0911;
},
